<svg xmlns="http://www.w3.org/2000/svg" width="760" height="514" viewBox="0 0 760 514"><rect width="760" height="514" fill="#0d1117"/><text x="6" y="18" fill="#e6edf3" font-size="12" font-family="monospace">#41 · Thu 2026-06-04 17:12 PT · ASIA · retrace arm · SHORT @4455.27 SL 4465.41 → -1.03R</text><g><text x="6" y="42" fill="#8b949e" font-size="11" font-family="monospace">15-min · entry marked</text><line x1="9.3" x2="9.3" y1="65.1" y2="71.2" stroke="#ef4444" stroke-width="1"/><rect x="5.3" y="65.7" width="8.0" height="4.1" fill="#ef4444"/><line x1="28.0" x2="28.0" y1="58.9" y2="74.9" stroke="#22c55e" stroke-width="1"/><rect x="24.0" y="63.8" width="8.0" height="6.0" fill="#22c55e"/><line x1="46.6" x2="46.6" y1="63.9" y2="93.3" stroke="#ef4444" stroke-width="1"/><rect x="42.6" y="63.9" width="8.0" height="29.4" fill="#ef4444"/><line x1="65.3" x2="65.3" y1="78.5" y2="101.3" stroke="#22c55e" stroke-width="1"/><rect x="61.3" y="89.1" width="8.0" height="4.1" fill="#22c55e"/><line x1="83.9" x2="83.9" y1="69.7" y2="92.1" stroke="#ef4444" stroke-width="1"/><rect x="79.9" y="89.4" width="8.0" height="1.0" fill="#ef4444"/><line x1="102.6" x2="102.6" y1="74.5" y2="89.7" stroke="#22c55e" stroke-width="1"/><rect x="98.6" y="83.8" width="8.0" height="5.8" fill="#22c55e"/><line x1="121.2" x2="121.2" y1="75.3" y2="91.5" stroke="#22c55e" stroke-width="1"/><rect x="117.2" y="80.9" width="8.0" height="3.0" fill="#22c55e"/><line x1="139.9" x2="139.9" y1="71.4" y2="87.0" stroke="#ef4444" stroke-width="1"/><rect x="135.9" y="80.1" width="8.0" height="3.5" fill="#ef4444"/><line x1="158.5" x2="158.5" y1="83.7" y2="106.9" stroke="#ef4444" stroke-width="1"/><rect x="154.5" y="83.7" width="8.0" height="16.5" fill="#ef4444"/><line x1="177.2" x2="177.2" y1="78.1" y2="102.3" stroke="#22c55e" stroke-width="1"/><rect x="173.2" y="84.1" width="8.0" height="16.0" fill="#22c55e"/><line x1="195.8" x2="195.8" y1="61.5" y2="92.1" stroke="#22c55e" stroke-width="1"/><rect x="191.8" y="83.7" width="8.0" height="1.0" fill="#22c55e"/><line x1="214.5" x2="214.5" y1="74.9" y2="85.6" stroke="#22c55e" stroke-width="1"/><rect x="210.5" y="75.2" width="8.0" height="8.5" fill="#22c55e"/><line x1="233.1" x2="233.1" y1="73.9" y2="87.0" stroke="#ef4444" stroke-width="1"/><rect x="229.1" y="75.1" width="8.0" height="9.3" fill="#ef4444"/><line x1="251.8" x2="251.8" y1="65.8" y2="89.3" stroke="#22c55e" stroke-width="1"/><rect x="247.8" y="72.9" width="8.0" height="11.9" fill="#22c55e"/><line x1="270.4" x2="270.4" y1="68.8" y2="84.9" stroke="#ef4444" stroke-width="1"/><rect x="266.4" y="72.5" width="8.0" height="12.2" fill="#ef4444"/><line x1="289.1" x2="289.1" y1="79.7" y2="90.4" stroke="#ef4444" stroke-width="1"/><rect x="285.1" y="85.2" width="8.0" height="1.0" fill="#ef4444"/><line x1="307.7" x2="307.7" y1="86.2" y2="96.9" stroke="#ef4444" stroke-width="1"/><rect x="303.7" y="86.2" width="8.0" height="10.7" fill="#ef4444"/><line x1="326.4" x2="326.4" y1="93.2" y2="100.4" stroke="#22c55e" stroke-width="1"/><rect x="322.4" y="95.8" width="8.0" height="1.1" fill="#22c55e"/><line x1="345.0" x2="345.0" y1="92.3" y2="105.8" stroke="#22c55e" stroke-width="1"/><rect x="341.0" y="95.9" width="8.0" height="7.9" fill="#22c55e"/><line x1="363.6" x2="363.6" y1="71.3" y2="99.1" stroke="#22c55e" stroke-width="1"/><rect x="359.6" y="80.5" width="8.0" height="15.4" fill="#22c55e"/><line x1="382.3" x2="382.3" y1="69.1" y2="96.7" stroke="#ef4444" stroke-width="1"/><rect x="378.3" y="80.6" width="8.0" height="16.2" fill="#ef4444"/><line x1="400.9" x2="400.9" y1="92.9" y2="123.8" stroke="#ef4444" stroke-width="1"/><rect x="396.9" y="97.4" width="8.0" height="23.8" fill="#ef4444"/><line x1="419.6" x2="419.6" y1="100.8" y2="144.4" stroke="#22c55e" stroke-width="1"/><rect x="415.6" y="114.2" width="8.0" height="7.2" fill="#22c55e"/><line x1="438.2" x2="438.2" y1="104.0" y2="132.9" stroke="#ef4444" stroke-width="1"/><rect x="434.2" y="114.2" width="8.0" height="7.4" fill="#ef4444"/><line x1="456.9" x2="456.9" y1="120.1" y2="152.9" stroke="#ef4444" stroke-width="1"/><rect x="452.9" y="121.6" width="8.0" height="25.7" fill="#ef4444"/><line x1="475.5" x2="475.5" y1="135.5" y2="159.6" stroke="#ef4444" stroke-width="1"/><rect x="471.5" y="147.3" width="8.0" height="6.8" fill="#ef4444"/><line x1="494.2" x2="494.2" y1="140.0" y2="184.8" stroke="#ef4444" stroke-width="1"/><rect x="490.2" y="154.4" width="8.0" height="27.6" fill="#ef4444"/><text x="494.2" y="258" fill="#eab308" font-size="12" text-anchor="middle">▲</text><line x1="512.8" x2="512.8" y1="171.5" y2="201.6" stroke="#22c55e" stroke-width="1"/><rect x="508.8" y="172.0" width="8.0" height="9.6" fill="#22c55e"/><text x="512.8" y="258" fill="#eab308" font-size="12" text-anchor="middle">▲</text><line x1="531.5" x2="531.5" y1="132.3" y2="177.8" stroke="#22c55e" stroke-width="1"/><rect x="527.5" y="148.6" width="8.0" height="23.3" fill="#22c55e"/><line x1="550.1" x2="550.1" y1="134.8" y2="167.5" stroke="#ef4444" stroke-width="1"/><rect x="546.1" y="148.6" width="8.0" height="14.8" fill="#ef4444"/><line x1="568.8" x2="568.8" y1="119.4" y2="191.5" stroke="#22c55e" stroke-width="1"/><rect x="564.8" y="160.0" width="8.0" height="4.6" fill="#22c55e"/><line x1="587.4" x2="587.4" y1="140.0" y2="206.9" stroke="#ef4444" stroke-width="1"/><rect x="583.4" y="161.4" width="8.0" height="6.9" fill="#ef4444"/><line x1="606.1" x2="606.1" y1="163.4" y2="224.8" stroke="#ef4444" stroke-width="1"/><rect x="602.1" y="167.4" width="8.0" height="54.6" fill="#ef4444"/><line x1="624.7" x2="624.7" y1="200.2" y2="229.7" stroke="#22c55e" stroke-width="1"/><rect x="620.7" y="217.9" width="8.0" height="3.9" fill="#22c55e"/><line x1="643.4" x2="643.4" y1="200.2" y2="237.0" stroke="#22c55e" stroke-width="1"/><rect x="639.4" y="206.9" width="8.0" height="11.2" fill="#22c55e"/><line x1="662.0" x2="662.0" y1="183.2" y2="221.2" stroke="#22c55e" stroke-width="1"/><rect x="658.0" y="199.3" width="8.0" height="7.6" fill="#22c55e"/><line x1="680.7" x2="680.7" y1="196.8" y2="241.1" stroke="#ef4444" stroke-width="1"/><rect x="676.7" y="199.6" width="8.0" height="30.3" fill="#ef4444"/><line x1="0" x2="690" y1="138.7" y2="138.7" stroke="#ef4444" stroke-width="1" stroke-dasharray="5,4" opacity="0.85"/><text x="694" y="141.7" fill="#ef4444" font-size="10" font-family="monospace">SL 4465.41</text><line x1="0" x2="690" y1="182.2" y2="182.2" stroke="#e6edf3" stroke-width="1" stroke-dasharray="5,4" opacity="0.85"/><text x="694" y="185.2" fill="#e6edf3" font-size="10" font-family="monospace">entry 4455.27</text></g><g><text x="6" y="284" fill="#8b949e" font-size="11" font-family="monospace">3-min · entry marked</text><line x1="7.0" x2="7.0" y1="300.9" y2="326.8" stroke="#ef4444" stroke-width="1"/><rect x="3.0" y="306.6" width="8.0" height="20.3" fill="#ef4444"/><line x1="21.1" x2="21.1" y1="321.1" y2="331.1" stroke="#22c55e" stroke-width="1"/><rect x="17.1" y="325.0" width="8.0" height="2.8" fill="#22c55e"/><line x1="35.2" x2="35.2" y1="323.5" y2="346.2" stroke="#ef4444" stroke-width="1"/><rect x="31.2" y="324.4" width="8.0" height="15.0" fill="#ef4444"/><line x1="49.3" x2="49.3" y1="338.6" y2="352.7" stroke="#ef4444" stroke-width="1"/><rect x="45.3" y="339.4" width="8.0" height="11.9" fill="#ef4444"/><line x1="63.4" x2="63.4" y1="350.9" y2="362.6" stroke="#ef4444" stroke-width="1"/><rect x="59.4" y="351.3" width="8.0" height="7.8" fill="#ef4444"/><line x1="77.4" x2="77.4" y1="348.3" y2="367.2" stroke="#ef4444" stroke-width="1"/><rect x="73.4" y="358.3" width="8.0" height="5.1" fill="#ef4444"/><line x1="91.5" x2="91.5" y1="351.3" y2="397.9" stroke="#ef4444" stroke-width="1"/><rect x="87.5" y="363.5" width="8.0" height="31.9" fill="#ef4444"/><line x1="105.6" x2="105.6" y1="347.8" y2="395.2" stroke="#22c55e" stroke-width="1"/><rect x="101.6" y="374.7" width="8.0" height="20.5" fill="#22c55e"/><line x1="119.7" x2="119.7" y1="338.5" y2="379.1" stroke="#22c55e" stroke-width="1"/><rect x="115.7" y="349.6" width="8.0" height="26.6" fill="#22c55e"/><line x1="133.8" x2="133.8" y1="343.9" y2="355.0" stroke="#22c55e" stroke-width="1"/><rect x="129.8" y="349.2" width="8.0" height="1.0" fill="#22c55e"/><line x1="147.9" x2="147.9" y1="332.9" y2="354.6" stroke="#ef4444" stroke-width="1"/><rect x="143.9" y="349.2" width="8.0" height="3.6" fill="#ef4444"/><line x1="161.9" x2="161.9" y1="350.6" y2="360.2" stroke="#ef4444" stroke-width="1"/><rect x="157.9" y="352.8" width="8.0" height="2.6" fill="#ef4444"/><line x1="176.0" x2="176.0" y1="350.2" y2="376.2" stroke="#ef4444" stroke-width="1"/><rect x="172.0" y="355.4" width="8.0" height="13.7" fill="#ef4444"/><line x1="190.1" x2="190.1" y1="354.0" y2="380.7" stroke="#22c55e" stroke-width="1"/><rect x="186.1" y="354.0" width="8.0" height="15.0" fill="#22c55e"/><line x1="204.2" x2="204.2" y1="337.7" y2="355.6" stroke="#22c55e" stroke-width="1"/><rect x="200.2" y="351.2" width="8.0" height="2.5" fill="#22c55e"/><line x1="218.3" x2="218.3" y1="342.4" y2="370.6" stroke="#ef4444" stroke-width="1"/><rect x="214.3" y="351.2" width="8.0" height="12.7" fill="#ef4444"/><line x1="232.3" x2="232.3" y1="361.6" y2="397.1" stroke="#ef4444" stroke-width="1"/><rect x="228.3" y="363.9" width="8.0" height="22.2" fill="#ef4444"/><line x1="246.4" x2="246.4" y1="380.4" y2="392.5" stroke="#22c55e" stroke-width="1"/><rect x="242.4" y="386.0" width="8.0" height="1.0" fill="#22c55e"/><line x1="260.5" x2="260.5" y1="382.8" y2="406.4" stroke="#ef4444" stroke-width="1"/><rect x="256.5" y="386.4" width="8.0" height="18.7" fill="#ef4444"/><line x1="274.6" x2="274.6" y1="391.9" y2="405.1" stroke="#22c55e" stroke-width="1"/><rect x="270.6" y="393.7" width="8.0" height="11.4" fill="#22c55e"/><line x1="288.7" x2="288.7" y1="391.5" y2="410.5" stroke="#ef4444" stroke-width="1"/><rect x="284.7" y="393.7" width="8.0" height="8.4" fill="#ef4444"/><line x1="302.8" x2="302.8" y1="401.2" y2="420.5" stroke="#ef4444" stroke-width="1"/><rect x="298.8" y="402.1" width="8.0" height="6.4" fill="#ef4444"/><line x1="316.8" x2="316.8" y1="387.0" y2="410.8" stroke="#22c55e" stroke-width="1"/><rect x="312.8" y="390.6" width="8.0" height="17.7" fill="#22c55e"/><line x1="330.9" x2="330.9" y1="384.5" y2="403.7" stroke="#ef4444" stroke-width="1"/><rect x="326.9" y="390.6" width="8.0" height="9.3" fill="#ef4444"/><line x1="345.0" x2="345.0" y1="392.8" y2="403.8" stroke="#ef4444" stroke-width="1"/><rect x="341.0" y="399.9" width="8.0" height="1.1" fill="#ef4444"/><line x1="359.1" x2="359.1" y1="399.1" y2="416.1" stroke="#ef4444" stroke-width="1"/><rect x="355.1" y="400.5" width="8.0" height="11.8" fill="#ef4444"/><line x1="373.2" x2="373.2" y1="399.1" y2="426.6" stroke="#22c55e" stroke-width="1"/><rect x="369.2" y="411.9" width="8.0" height="1.0" fill="#22c55e"/><line x1="387.2" x2="387.2" y1="391.3" y2="412.2" stroke="#22c55e" stroke-width="1"/><rect x="383.2" y="399.7" width="8.0" height="12.2" fill="#22c55e"/><line x1="401.3" x2="401.3" y1="400.6" y2="418.1" stroke="#ef4444" stroke-width="1"/><rect x="397.3" y="401.2" width="8.0" height="13.0" fill="#ef4444"/><line x1="415.4" x2="415.4" y1="407.1" y2="425.2" stroke="#ef4444" stroke-width="1"/><rect x="411.4" y="414.1" width="8.0" height="7.7" fill="#ef4444"/><line x1="429.5" x2="429.5" y1="421.0" y2="458.0" stroke="#ef4444" stroke-width="1"/><rect x="425.5" y="421.8" width="8.0" height="32.1" fill="#ef4444"/><text x="429.5" y="500" fill="#eab308" font-size="12" text-anchor="middle">▲</text><line x1="443.6" x2="443.6" y1="439.2" y2="473.2" stroke="#ef4444" stroke-width="1"/><rect x="439.6" y="453.3" width="8.0" height="14.1" fill="#ef4444"/><line x1="457.7" x2="457.7" y1="460.7" y2="483.1" stroke="#ef4444" stroke-width="1"/><rect x="453.7" y="467.4" width="8.0" height="6.4" fill="#ef4444"/><line x1="471.7" x2="471.7" y1="451.8" y2="482.2" stroke="#22c55e" stroke-width="1"/><rect x="467.7" y="456.1" width="8.0" height="17.9" fill="#22c55e"/><line x1="485.8" x2="485.8" y1="448.7" y2="469.7" stroke="#ef4444" stroke-width="1"/><rect x="481.8" y="456.1" width="8.0" height="1.8" fill="#ef4444"/><line x1="499.9" x2="499.9" y1="438.2" y2="461.5" stroke="#22c55e" stroke-width="1"/><rect x="495.9" y="439.1" width="8.0" height="18.7" fill="#22c55e"/><line x1="514.0" x2="514.0" y1="417.8" y2="447.6" stroke="#22c55e" stroke-width="1"/><rect x="510.0" y="433.4" width="8.0" height="5.5" fill="#22c55e"/><line x1="528.1" x2="528.1" y1="403.2" y2="434.1" stroke="#22c55e" stroke-width="1"/><rect x="524.1" y="406.4" width="8.0" height="27.4" fill="#22c55e"/><line x1="542.1" x2="542.1" y1="379.9" y2="410.6" stroke="#22c55e" stroke-width="1"/><rect x="538.1" y="401.4" width="8.0" height="3.8" fill="#22c55e"/><line x1="556.2" x2="556.2" y1="383.0" y2="411.8" stroke="#22c55e" stroke-width="1"/><rect x="552.2" y="392.4" width="8.0" height="9.0" fill="#22c55e"/><line x1="570.3" x2="570.3" y1="385.5" y2="406.7" stroke="#ef4444" stroke-width="1"/><rect x="566.3" y="392.5" width="8.0" height="11.6" fill="#ef4444"/><line x1="584.4" x2="584.4" y1="383.6" y2="410.1" stroke="#22c55e" stroke-width="1"/><rect x="580.4" y="400.9" width="8.0" height="3.3" fill="#22c55e"/><line x1="598.5" x2="598.5" y1="397.9" y2="416.9" stroke="#ef4444" stroke-width="1"/><rect x="594.5" y="400.9" width="8.0" height="9.7" fill="#ef4444"/><line x1="612.6" x2="612.6" y1="389.3" y2="414.3" stroke="#22c55e" stroke-width="1"/><rect x="608.6" y="391.6" width="8.0" height="18.9" fill="#22c55e"/><line x1="626.6" x2="626.6" y1="387.3" y2="405.1" stroke="#ef4444" stroke-width="1"/><rect x="622.6" y="391.6" width="8.0" height="12.5" fill="#ef4444"/><line x1="640.7" x2="640.7" y1="396.6" y2="432.3" stroke="#ef4444" stroke-width="1"/><rect x="636.7" y="404.1" width="8.0" height="22.2" fill="#ef4444"/><line x1="654.8" x2="654.8" y1="414.4" y2="468.1" stroke="#22c55e" stroke-width="1"/><rect x="650.8" y="420.2" width="8.0" height="7.9" fill="#22c55e"/><line x1="668.9" x2="668.9" y1="360.6" y2="426.2" stroke="#22c55e" stroke-width="1"/><rect x="664.9" y="371.4" width="8.0" height="48.4" fill="#22c55e"/><line x1="683.0" x2="683.0" y1="371.2" y2="394.7" stroke="#ef4444" stroke-width="1"/><rect x="679.0" y="371.2" width="8.0" height="21.8" fill="#ef4444"/><line x1="0" x2="690" y1="389.3" y2="389.3" stroke="#ef4444" stroke-width="1" stroke-dasharray="5,4" opacity="0.85"/><text x="694" y="392.3" fill="#ef4444" font-size="10" font-family="monospace">SL 4465.41</text><line x1="0" x2="690" y1="454.2" y2="454.2" stroke="#e6edf3" stroke-width="1" stroke-dasharray="5,4" opacity="0.85"/><text x="694" y="457.2" fill="#e6edf3" font-size="10" font-family="monospace">entry 4455.27</text></g></svg>