<svg xmlns="http://www.w3.org/2000/svg" width="760" height="514" viewBox="0 0 760 514"><rect width="760" height="514" fill="#0d1117"/><text x="6" y="18" fill="#e6edf3" font-size="12" font-family="monospace">#43 · Fri 2026-06-05 06:12 PT · NY · retrace arm · LONG @4418.83 SL 4408.03 → -1.005R</text><g><text x="6" y="42" fill="#8b949e" font-size="11" font-family="monospace">15-min · entry marked</text><line x1="8.6" x2="8.6" y1="100.2" y2="104.4" stroke="#ef4444" stroke-width="1"/><rect x="4.6" y="101.3" width="8.0" height="2.3" fill="#ef4444"/><line x1="25.9" x2="25.9" y1="97.2" y2="110.5" stroke="#ef4444" stroke-width="1"/><rect x="21.9" y="103.6" width="8.0" height="5.0" fill="#ef4444"/><line x1="43.1" x2="43.1" y1="105.0" y2="115.1" stroke="#ef4444" stroke-width="1"/><rect x="39.1" y="108.5" width="8.0" height="4.7" fill="#ef4444"/><line x1="60.4" x2="60.4" y1="100.0" y2="124.0" stroke="#22c55e" stroke-width="1"/><rect x="56.4" y="105.2" width="8.0" height="8.2" fill="#22c55e"/><line x1="77.6" x2="77.6" y1="94.6" y2="105.2" stroke="#22c55e" stroke-width="1"/><rect x="73.6" y="96.8" width="8.0" height="8.2" fill="#22c55e"/><line x1="94.9" x2="94.9" y1="86.1" y2="99.0" stroke="#22c55e" stroke-width="1"/><rect x="90.9" y="90.7" width="8.0" height="6.0" fill="#22c55e"/><line x1="112.1" x2="112.1" y1="76.0" y2="92.1" stroke="#22c55e" stroke-width="1"/><rect x="108.1" y="82.8" width="8.0" height="8.0" fill="#22c55e"/><line x1="129.4" x2="129.4" y1="70.5" y2="82.8" stroke="#22c55e" stroke-width="1"/><rect x="125.4" y="70.8" width="8.0" height="12.0" fill="#22c55e"/><line x1="146.6" x2="146.6" y1="70.6" y2="81.4" stroke="#ef4444" stroke-width="1"/><rect x="142.6" y="70.7" width="8.0" height="7.0" fill="#ef4444"/><line x1="163.9" x2="163.9" y1="73.6" y2="79.6" stroke="#ef4444" stroke-width="1"/><rect x="159.9" y="77.8" width="8.0" height="1.7" fill="#ef4444"/><line x1="181.1" x2="181.1" y1="75.9" y2="82.4" stroke="#22c55e" stroke-width="1"/><rect x="177.1" y="79.2" width="8.0" height="1.0" fill="#22c55e"/><line x1="198.4" x2="198.4" y1="71.2" y2="80.9" stroke="#22c55e" stroke-width="1"/><rect x="194.4" y="71.2" width="8.0" height="7.9" fill="#22c55e"/><line x1="215.6" x2="215.6" y1="69.3" y2="79.2" stroke="#ef4444" stroke-width="1"/><rect x="211.6" y="71.4" width="8.0" height="6.7" fill="#ef4444"/><line x1="232.9" x2="232.9" y1="74.4" y2="78.5" stroke="#22c55e" stroke-width="1"/><rect x="228.9" y="77.0" width="8.0" height="1.1" fill="#22c55e"/><line x1="250.1" x2="250.1" y1="68.0" y2="82.3" stroke="#22c55e" stroke-width="1"/><rect x="246.1" y="72.3" width="8.0" height="4.7" fill="#22c55e"/><line x1="267.4" x2="267.4" y1="67.6" y2="77.7" stroke="#ef4444" stroke-width="1"/><rect x="263.4" y="72.1" width="8.0" height="4.5" fill="#ef4444"/><line x1="284.6" x2="284.6" y1="72.1" y2="81.7" stroke="#22c55e" stroke-width="1"/><rect x="280.6" y="72.4" width="8.0" height="4.1" fill="#22c55e"/><line x1="301.9" x2="301.9" y1="67.8" y2="76.9" stroke="#ef4444" stroke-width="1"/><rect x="297.9" y="72.3" width="8.0" height="1.6" fill="#ef4444"/><line x1="319.1" x2="319.1" y1="73.5" y2="76.2" stroke="#22c55e" stroke-width="1"/><rect x="315.1" y="73.5" width="8.0" height="1.0" fill="#22c55e"/><line x1="336.4" x2="336.4" y1="69.6" y2="74.4" stroke="#22c55e" stroke-width="1"/><rect x="332.4" y="72.4" width="8.0" height="1.1" fill="#22c55e"/><line x1="353.6" x2="353.6" y1="71.1" y2="78.1" stroke="#ef4444" stroke-width="1"/><rect x="349.6" y="72.4" width="8.0" height="2.0" fill="#ef4444"/><line x1="370.9" x2="370.9" y1="69.6" y2="74.6" stroke="#22c55e" stroke-width="1"/><rect x="366.9" y="70.9" width="8.0" height="3.4" fill="#22c55e"/><line x1="388.1" x2="388.1" y1="70.7" y2="79.0" stroke="#ef4444" stroke-width="1"/><rect x="384.1" y="71.5" width="8.0" height="7.2" fill="#ef4444"/><line x1="405.4" x2="405.4" y1="72.2" y2="82.7" stroke="#22c55e" stroke-width="1"/><rect x="401.4" y="72.2" width="8.0" height="6.5" fill="#22c55e"/><line x1="422.6" x2="422.6" y1="70.7" y2="76.2" stroke="#ef4444" stroke-width="1"/><rect x="418.6" y="72.2" width="8.0" height="1.6" fill="#ef4444"/><line x1="439.9" x2="439.9" y1="59.4" y2="75.0" stroke="#22c55e" stroke-width="1"/><rect x="435.9" y="66.6" width="8.0" height="7.2" fill="#22c55e"/><line x1="457.1" x2="457.1" y1="65.3" y2="75.0" stroke="#ef4444" stroke-width="1"/><rect x="453.1" y="66.8" width="8.0" height="1.0" fill="#ef4444"/><line x1="474.4" x2="474.4" y1="58.9" y2="78.4" stroke="#ef4444" stroke-width="1"/><rect x="470.4" y="67.6" width="8.0" height="5.9" fill="#ef4444"/><line x1="491.6" x2="491.6" y1="72.4" y2="108.9" stroke="#ef4444" stroke-width="1"/><rect x="487.6" y="73.3" width="8.0" height="27.1" fill="#ef4444"/><line x1="508.9" x2="508.9" y1="95.9" y2="157.3" stroke="#ef4444" stroke-width="1"/><rect x="504.9" y="100.0" width="8.0" height="55.3" fill="#ef4444"/><line x1="526.1" x2="526.1" y1="135.5" y2="164.0" stroke="#22c55e" stroke-width="1"/><rect x="522.1" y="138.4" width="8.0" height="16.9" fill="#22c55e"/><text x="526.1" y="258" fill="#eab308" font-size="12" text-anchor="middle">▲</text><line x1="543.4" x2="543.4" y1="134.8" y2="158.5" stroke="#ef4444" stroke-width="1"/><rect x="539.4" y="138.4" width="8.0" height="18.6" fill="#ef4444"/><text x="543.4" y="258" fill="#eab308" font-size="12" text-anchor="middle">▲</text><line x1="560.6" x2="560.6" y1="150.9" y2="183.6" stroke="#ef4444" stroke-width="1"/><rect x="556.6" y="158.0" width="8.0" height="20.7" fill="#ef4444"/><line x1="577.9" x2="577.9" y1="176.6" y2="212.1" stroke="#ef4444" stroke-width="1"/><rect x="573.9" y="178.8" width="8.0" height="33.0" fill="#ef4444"/><line x1="595.1" x2="595.1" y1="193.1" y2="214.2" stroke="#22c55e" stroke-width="1"/><rect x="591.1" y="211.2" width="8.0" height="1.0" fill="#22c55e"/><line x1="612.4" x2="612.4" y1="205.5" y2="229.7" stroke="#ef4444" stroke-width="1"/><rect x="608.4" y="211.4" width="8.0" height="7.0" fill="#ef4444"/><line x1="629.6" x2="629.6" y1="214.4" y2="241.1" stroke="#ef4444" stroke-width="1"/><rect x="625.6" y="218.3" width="8.0" height="16.5" fill="#ef4444"/><line x1="646.9" x2="646.9" y1="205.6" y2="236.1" stroke="#22c55e" stroke-width="1"/><rect x="642.9" y="206.3" width="8.0" height="28.6" fill="#22c55e"/><line x1="664.1" x2="664.1" y1="202.3" y2="229.2" stroke="#ef4444" stroke-width="1"/><rect x="660.1" y="206.3" width="8.0" height="22.9" fill="#ef4444"/><line x1="681.4" x2="681.4" y1="223.3" y2="236.1" stroke="#22c55e" stroke-width="1"/><rect x="677.4" y="226.9" width="8.0" height="2.7" fill="#22c55e"/><line x1="0" x2="690" y1="138.0" y2="138.0" stroke="#e6edf3" stroke-width="1" stroke-dasharray="5,4" opacity="0.85"/><text x="694" y="141.0" fill="#e6edf3" font-size="10" font-family="monospace">entry 4418.83</text><line x1="0" x2="690" y1="153.0" y2="153.0" stroke="#ef4444" stroke-width="1" stroke-dasharray="5,4" opacity="0.85"/><text x="694" y="156.0" fill="#ef4444" font-size="10" font-family="monospace">SL 4408.03</text></g><g><text x="6" y="284" fill="#8b949e" font-size="11" font-family="monospace">3-min · entry marked</text><line x1="7.5" x2="7.5" y1="319.0" y2="322.0" stroke="#22c55e" stroke-width="1"/><rect x="3.5" y="320.6" width="8.0" height="1.0" fill="#22c55e"/><line x1="22.5" x2="22.5" y1="316.1" y2="322.2" stroke="#22c55e" stroke-width="1"/><rect x="18.5" y="317.2" width="8.0" height="3.4" fill="#22c55e"/><line x1="37.5" x2="37.5" y1="315.3" y2="318.8" stroke="#22c55e" stroke-width="1"/><rect x="33.5" y="315.3" width="8.0" height="1.9" fill="#22c55e"/><line x1="52.5" x2="52.5" y1="301.6" y2="315.7" stroke="#22c55e" stroke-width="1"/><rect x="48.5" y="309.7" width="8.0" height="5.7" fill="#22c55e"/><line x1="67.5" x2="67.5" y1="306.7" y2="314.7" stroke="#ef4444" stroke-width="1"/><rect x="63.5" y="309.7" width="8.0" height="4.8" fill="#ef4444"/><line x1="82.5" x2="82.5" y1="310.2" y2="315.7" stroke="#22c55e" stroke-width="1"/><rect x="78.5" y="311.1" width="8.0" height="3.6" fill="#22c55e"/><line x1="97.5" x2="97.5" y1="310.0" y2="316.8" stroke="#ef4444" stroke-width="1"/><rect x="93.5" y="311.3" width="8.0" height="3.7" fill="#ef4444"/><line x1="112.5" x2="112.5" y1="313.9" y2="322.1" stroke="#ef4444" stroke-width="1"/><rect x="108.5" y="314.9" width="8.0" height="2.1" fill="#ef4444"/><line x1="127.5" x2="127.5" y1="314.8" y2="318.9" stroke="#ef4444" stroke-width="1"/><rect x="123.5" y="317.2" width="8.0" height="1.2" fill="#ef4444"/><line x1="142.5" x2="142.5" y1="309.3" y2="319.5" stroke="#22c55e" stroke-width="1"/><rect x="138.5" y="313.1" width="8.0" height="5.3" fill="#22c55e"/><line x1="157.5" x2="157.5" y1="311.1" y2="317.1" stroke="#22c55e" stroke-width="1"/><rect x="153.5" y="312.6" width="8.0" height="1.0" fill="#22c55e"/><line x1="172.5" x2="172.5" y1="311.1" y2="314.2" stroke="#ef4444" stroke-width="1"/><rect x="168.5" y="312.4" width="8.0" height="1.0" fill="#ef4444"/><line x1="187.5" x2="187.5" y1="300.9" y2="313.9" stroke="#ef4444" stroke-width="1"/><rect x="183.5" y="312.6" width="8.0" height="1.3" fill="#ef4444"/><line x1="202.5" x2="202.5" y1="310.1" y2="315.8" stroke="#ef4444" stroke-width="1"/><rect x="198.5" y="312.7" width="8.0" height="1.0" fill="#ef4444"/><line x1="217.5" x2="217.5" y1="312.8" y2="320.9" stroke="#ef4444" stroke-width="1"/><rect x="213.5" y="312.9" width="8.0" height="7.6" fill="#ef4444"/><line x1="232.5" x2="232.5" y1="320.1" y2="326.7" stroke="#22c55e" stroke-width="1"/><rect x="228.5" y="320.2" width="8.0" height="1.0" fill="#22c55e"/><line x1="247.5" x2="247.5" y1="318.8" y2="353.0" stroke="#ef4444" stroke-width="1"/><rect x="243.5" y="320.0" width="8.0" height="26.0" fill="#ef4444"/><line x1="262.5" x2="262.5" y1="337.0" y2="350.2" stroke="#ef4444" stroke-width="1"/><rect x="258.5" y="346.5" width="8.0" height="3.8" fill="#ef4444"/><line x1="277.5" x2="277.5" y1="350.3" y2="367.0" stroke="#ef4444" stroke-width="1"/><rect x="273.5" y="350.3" width="8.0" height="13.1" fill="#ef4444"/><line x1="292.5" x2="292.5" y1="351.6" y2="363.4" stroke="#22c55e" stroke-width="1"/><rect x="288.5" y="355.4" width="8.0" height="7.6" fill="#22c55e"/><line x1="307.5" x2="307.5" y1="352.5" y2="360.2" stroke="#ef4444" stroke-width="1"/><rect x="303.5" y="355.5" width="8.0" height="1.0" fill="#ef4444"/><line x1="322.5" x2="322.5" y1="349.9" y2="358.8" stroke="#ef4444" stroke-width="1"/><rect x="318.5" y="355.3" width="8.0" height="1.0" fill="#ef4444"/><line x1="337.5" x2="337.5" y1="353.0" y2="376.5" stroke="#ef4444" stroke-width="1"/><rect x="333.5" y="355.7" width="8.0" height="16.0" fill="#ef4444"/><line x1="352.5" x2="352.5" y1="371.8" y2="402.9" stroke="#ef4444" stroke-width="1"/><rect x="348.5" y="371.8" width="8.0" height="29.3" fill="#ef4444"/><line x1="367.5" x2="367.5" y1="399.0" y2="416.5" stroke="#ef4444" stroke-width="1"/><rect x="363.5" y="401.5" width="8.0" height="14.4" fill="#ef4444"/><line x1="382.5" x2="382.5" y1="411.9" y2="431.2" stroke="#ef4444" stroke-width="1"/><rect x="378.5" y="415.8" width="8.0" height="12.7" fill="#ef4444"/><line x1="397.5" x2="397.5" y1="406.2" y2="439.9" stroke="#22c55e" stroke-width="1"/><rect x="393.5" y="416.2" width="8.0" height="12.3" fill="#22c55e"/><line x1="412.5" x2="412.5" y1="414.0" y2="424.3" stroke="#22c55e" stroke-width="1"/><rect x="408.5" y="415.4" width="8.0" height="1.0" fill="#22c55e"/><line x1="427.5" x2="427.5" y1="408.8" y2="424.9" stroke="#22c55e" stroke-width="1"/><rect x="423.5" y="409.4" width="8.0" height="4.7" fill="#22c55e"/><line x1="442.5" x2="442.5" y1="403.7" y2="413.1" stroke="#22c55e" stroke-width="1"/><rect x="438.5" y="406.7" width="8.0" height="2.6" fill="#22c55e"/><line x1="457.5" x2="457.5" y1="402.2" y2="411.6" stroke="#22c55e" stroke-width="1"/><rect x="453.5" y="406.1" width="8.0" height="1.0" fill="#22c55e"/><text x="457.5" y="500" fill="#eab308" font-size="12" text-anchor="middle">▲</text><line x1="472.5" x2="472.5" y1="401.3" y2="410.3" stroke="#ef4444" stroke-width="1"/><rect x="468.5" y="406.1" width="8.0" height="2.3" fill="#ef4444"/><line x1="487.5" x2="487.5" y1="404.8" y2="414.2" stroke="#ef4444" stroke-width="1"/><rect x="483.5" y="409.2" width="8.0" height="2.4" fill="#ef4444"/><line x1="502.5" x2="502.5" y1="402.9" y2="417.4" stroke="#ef4444" stroke-width="1"/><rect x="498.5" y="411.7" width="8.0" height="1.0" fill="#ef4444"/><line x1="517.5" x2="517.5" y1="411.8" y2="423.0" stroke="#ef4444" stroke-width="1"/><rect x="513.5" y="412.4" width="8.0" height="6.2" fill="#ef4444"/><line x1="532.5" x2="532.5" y1="417.5" y2="432.7" stroke="#ef4444" stroke-width="1"/><rect x="528.5" y="418.3" width="8.0" height="12.4" fill="#ef4444"/><line x1="547.5" x2="547.5" y1="422.8" y2="443.2" stroke="#22c55e" stroke-width="1"/><rect x="543.5" y="423.4" width="8.0" height="8.6" fill="#22c55e"/><line x1="562.5" x2="562.5" y1="422.7" y2="439.7" stroke="#ef4444" stroke-width="1"/><rect x="558.5" y="422.8" width="8.0" height="9.9" fill="#ef4444"/><line x1="577.5" x2="577.5" y1="432.7" y2="465.9" stroke="#ef4444" stroke-width="1"/><rect x="573.5" y="432.7" width="8.0" height="29.1" fill="#ef4444"/><line x1="592.5" x2="592.5" y1="443.4" y2="464.5" stroke="#22c55e" stroke-width="1"/><rect x="588.5" y="455.7" width="8.0" height="7.1" fill="#22c55e"/><line x1="607.5" x2="607.5" y1="451.5" y2="461.5" stroke="#ef4444" stroke-width="1"/><rect x="603.5" y="455.7" width="8.0" height="3.8" fill="#ef4444"/><line x1="622.5" x2="622.5" y1="456.7" y2="470.8" stroke="#ef4444" stroke-width="1"/><rect x="618.5" y="459.6" width="8.0" height="9.0" fill="#ef4444"/><line x1="637.5" x2="637.5" y1="462.1" y2="471.6" stroke="#ef4444" stroke-width="1"/><rect x="633.5" y="468.4" width="8.0" height="3.2" fill="#ef4444"/><line x1="652.5" x2="652.5" y1="462.2" y2="472.7" stroke="#22c55e" stroke-width="1"/><rect x="648.5" y="469.7" width="8.0" height="1.7" fill="#22c55e"/><line x1="667.5" x2="667.5" y1="464.7" y2="482.8" stroke="#ef4444" stroke-width="1"/><rect x="663.5" y="469.8" width="8.0" height="8.6" fill="#ef4444"/><line x1="682.5" x2="682.5" y1="475.8" y2="483.1" stroke="#ef4444" stroke-width="1"/><rect x="678.5" y="478.2" width="8.0" height="3.9" fill="#ef4444"/><line x1="0" x2="690" y1="405.5" y2="405.5" stroke="#e6edf3" stroke-width="1" stroke-dasharray="5,4" opacity="0.85"/><text x="694" y="408.5" fill="#e6edf3" font-size="10" font-family="monospace">entry 4418.83</text><line x1="0" x2="690" y1="425.4" y2="425.4" stroke="#ef4444" stroke-width="1" stroke-dasharray="5,4" opacity="0.85"/><text x="694" y="428.4" fill="#ef4444" font-size="10" font-family="monospace">SL 4408.03</text></g></svg>