<svg xmlns="http://www.w3.org/2000/svg" width="760" height="514" viewBox="0 0 760 514"><rect width="760" height="514" fill="#0d1117"/><text x="6" y="18" fill="#e6edf3" font-size="12" font-family="monospace">#44 · Tue 2026-06-09 19:24 PT · ASIA · retrace arm · SHORT @4179.14 SL 4186.69 → -1.04R</text><g><text x="6" y="42" fill="#8b949e" font-size="11" font-family="monospace">15-min · entry marked</text><line x1="9.9" x2="9.9" y1="59.2" y2="70.3" stroke="#22c55e" stroke-width="1"/><rect x="5.9" y="62.2" width="8.0" height="5.0" fill="#22c55e"/><line x1="29.6" x2="29.6" y1="58.9" y2="84.1" stroke="#ef4444" stroke-width="1"/><rect x="25.6" y="61.8" width="8.0" height="21.0" fill="#ef4444"/><line x1="49.3" x2="49.3" y1="82.8" y2="93.7" stroke="#ef4444" stroke-width="1"/><rect x="45.3" y="82.9" width="8.0" height="2.4" fill="#ef4444"/><line x1="69.0" x2="69.0" y1="79.9" y2="98.6" stroke="#ef4444" stroke-width="1"/><rect x="65.0" y="85.5" width="8.0" height="11.6" fill="#ef4444"/><line x1="88.7" x2="88.7" y1="80.9" y2="98.9" stroke="#22c55e" stroke-width="1"/><rect x="84.7" y="83.3" width="8.0" height="13.6" fill="#22c55e"/><line x1="108.4" x2="108.4" y1="78.5" y2="88.6" stroke="#ef4444" stroke-width="1"/><rect x="104.4" y="82.6" width="8.0" height="1.0" fill="#ef4444"/><line x1="128.1" x2="128.1" y1="79.6" y2="84.3" stroke="#22c55e" stroke-width="1"/><rect x="124.1" y="82.1" width="8.0" height="1.2" fill="#22c55e"/><line x1="147.9" x2="147.9" y1="76.8" y2="84.6" stroke="#22c55e" stroke-width="1"/><rect x="143.9" y="77.9" width="8.0" height="4.4" fill="#22c55e"/><line x1="167.6" x2="167.6" y1="76.6" y2="81.7" stroke="#ef4444" stroke-width="1"/><rect x="163.6" y="77.7" width="8.0" height="3.8" fill="#ef4444"/><line x1="187.3" x2="187.3" y1="85.5" y2="97.5" stroke="#ef4444" stroke-width="1"/><rect x="183.3" y="87.8" width="8.0" height="1.1" fill="#ef4444"/><line x1="207.0" x2="207.0" y1="86.3" y2="93.3" stroke="#22c55e" stroke-width="1"/><rect x="203.0" y="86.3" width="8.0" height="2.5" fill="#22c55e"/><line x1="226.7" x2="226.7" y1="85.3" y2="103.2" stroke="#ef4444" stroke-width="1"/><rect x="222.7" y="86.4" width="8.0" height="14.4" fill="#ef4444"/><line x1="246.4" x2="246.4" y1="99.3" y2="131.4" stroke="#ef4444" stroke-width="1"/><rect x="242.4" y="100.8" width="8.0" height="21.5" fill="#ef4444"/><line x1="266.1" x2="266.1" y1="103.7" y2="125.5" stroke="#ef4444" stroke-width="1"/><rect x="262.1" y="122.4" width="8.0" height="2.5" fill="#ef4444"/><line x1="285.9" x2="285.9" y1="123.5" y2="148.7" stroke="#ef4444" stroke-width="1"/><rect x="281.9" y="124.4" width="8.0" height="22.2" fill="#ef4444"/><line x1="305.6" x2="305.6" y1="136.3" y2="160.5" stroke="#ef4444" stroke-width="1"/><rect x="301.6" y="146.5" width="8.0" height="10.3" fill="#ef4444"/><line x1="325.3" x2="325.3" y1="145.8" y2="172.0" stroke="#22c55e" stroke-width="1"/><rect x="321.3" y="150.5" width="8.0" height="6.4" fill="#22c55e"/><line x1="345.0" x2="345.0" y1="142.0" y2="160.4" stroke="#22c55e" stroke-width="1"/><rect x="341.0" y="144.8" width="8.0" height="5.7" fill="#22c55e"/><line x1="364.7" x2="364.7" y1="139.0" y2="158.0" stroke="#ef4444" stroke-width="1"/><rect x="360.7" y="144.8" width="8.0" height="13.2" fill="#ef4444"/><line x1="384.4" x2="384.4" y1="156.2" y2="192.9" stroke="#ef4444" stroke-width="1"/><rect x="380.4" y="157.5" width="8.0" height="25.4" fill="#ef4444"/><line x1="404.1" x2="404.1" y1="152.5" y2="191.5" stroke="#22c55e" stroke-width="1"/><rect x="400.1" y="157.5" width="8.0" height="25.7" fill="#22c55e"/><line x1="423.9" x2="423.9" y1="156.9" y2="214.8" stroke="#ef4444" stroke-width="1"/><rect x="419.9" y="157.4" width="8.0" height="27.5" fill="#ef4444"/><line x1="443.6" x2="443.6" y1="160.3" y2="195.9" stroke="#ef4444" stroke-width="1"/><rect x="439.6" y="185.1" width="8.0" height="2.7" fill="#ef4444"/><line x1="463.3" x2="463.3" y1="178.1" y2="219.5" stroke="#ef4444" stroke-width="1"/><rect x="459.3" y="187.6" width="8.0" height="26.8" fill="#ef4444"/><line x1="483.0" x2="483.0" y1="199.2" y2="220.9" stroke="#22c55e" stroke-width="1"/><rect x="479.0" y="212.1" width="8.0" height="2.5" fill="#22c55e"/><line x1="502.7" x2="502.7" y1="206.4" y2="228.6" stroke="#ef4444" stroke-width="1"/><rect x="498.7" y="212.1" width="8.0" height="10.8" fill="#ef4444"/><line x1="522.4" x2="522.4" y1="212.6" y2="231.3" stroke="#22c55e" stroke-width="1"/><rect x="518.4" y="213.3" width="8.0" height="9.5" fill="#22c55e"/><text x="522.4" y="258" fill="#eab308" font-size="12" text-anchor="middle">▲</text><line x1="542.1" x2="542.1" y1="204.7" y2="238.5" stroke="#ef4444" stroke-width="1"/><rect x="538.1" y="213.4" width="8.0" height="6.3" fill="#ef4444"/><text x="542.1" y="258" fill="#eab308" font-size="12" text-anchor="middle">▲</text><line x1="561.9" x2="561.9" y1="208.6" y2="240.6" stroke="#ef4444" stroke-width="1"/><rect x="557.9" y="220.0" width="8.0" height="19.1" fill="#ef4444"/><line x1="581.6" x2="581.6" y1="226.8" y2="241.1" stroke="#22c55e" stroke-width="1"/><rect x="577.6" y="231.6" width="8.0" height="7.6" fill="#22c55e"/><line x1="601.3" x2="601.3" y1="226.0" y2="239.4" stroke="#ef4444" stroke-width="1"/><rect x="597.3" y="231.4" width="8.0" height="1.8" fill="#ef4444"/><line x1="621.0" x2="621.0" y1="222.4" y2="234.8" stroke="#22c55e" stroke-width="1"/><rect x="617.0" y="228.2" width="8.0" height="5.0" fill="#22c55e"/><line x1="640.7" x2="640.7" y1="216.0" y2="228.6" stroke="#22c55e" stroke-width="1"/><rect x="636.7" y="219.2" width="8.0" height="9.1" fill="#22c55e"/><line x1="660.4" x2="660.4" y1="214.6" y2="226.7" stroke="#ef4444" stroke-width="1"/><rect x="656.4" y="219.1" width="8.0" height="6.4" fill="#ef4444"/><line x1="680.1" x2="680.1" y1="222.4" y2="234.3" stroke="#ef4444" stroke-width="1"/><rect x="676.1" y="225.7" width="8.0" height="6.4" fill="#ef4444"/><line x1="0" x2="690" y1="215.7" y2="215.7" stroke="#ef4444" stroke-width="1" stroke-dasharray="5,4" opacity="0.85"/><text x="694" y="218.7" fill="#ef4444" font-size="10" font-family="monospace">SL 4186.69</text><line x1="0" x2="690" y1="229.6" y2="229.6" stroke="#e6edf3" stroke-width="1" stroke-dasharray="5,4" opacity="0.85"/><text x="694" y="232.6" fill="#e6edf3" font-size="10" font-family="monospace">entry 4179.14</text></g><g><text x="6" y="284" fill="#8b949e" font-size="11" font-family="monospace">3-min · entry marked</text><line x1="8.2" x2="8.2" y1="332.4" y2="358.2" stroke="#22c55e" stroke-width="1"/><rect x="4.2" y="334.8" width="8.0" height="14.2" fill="#22c55e"/><line x1="24.6" x2="24.6" y1="300.9" y2="340.6" stroke="#22c55e" stroke-width="1"/><rect x="20.6" y="311.3" width="8.0" height="23.6" fill="#22c55e"/><line x1="41.1" x2="41.1" y1="310.1" y2="379.6" stroke="#ef4444" stroke-width="1"/><rect x="37.1" y="311.2" width="8.0" height="58.0" fill="#ef4444"/><line x1="57.5" x2="57.5" y1="367.3" y2="428.9" stroke="#ef4444" stroke-width="1"/><rect x="53.5" y="369.8" width="8.0" height="57.0" fill="#ef4444"/><line x1="73.9" x2="73.9" y1="382.7" y2="430.2" stroke="#22c55e" stroke-width="1"/><rect x="69.9" y="391.9" width="8.0" height="36.3" fill="#22c55e"/><line x1="90.4" x2="90.4" y1="372.7" y2="403.9" stroke="#22c55e" stroke-width="1"/><rect x="86.4" y="378.8" width="8.0" height="13.3" fill="#22c55e"/><line x1="106.8" x2="106.8" y1="355.7" y2="382.6" stroke="#22c55e" stroke-width="1"/><rect x="102.8" y="368.2" width="8.0" height="10.6" fill="#22c55e"/><line x1="123.2" x2="123.2" y1="321.0" y2="378.6" stroke="#22c55e" stroke-width="1"/><rect x="119.2" y="321.3" width="8.0" height="47.3" fill="#22c55e"/><line x1="139.6" x2="139.6" y1="317.2" y2="357.8" stroke="#ef4444" stroke-width="1"/><rect x="135.6" y="321.0" width="8.0" height="35.8" fill="#ef4444"/><line x1="156.1" x2="156.1" y1="348.1" y2="362.7" stroke="#ef4444" stroke-width="1"/><rect x="152.1" y="358.4" width="8.0" height="1.3" fill="#ef4444"/><line x1="172.5" x2="172.5" y1="356.7" y2="391.0" stroke="#ef4444" stroke-width="1"/><rect x="168.5" y="358.9" width="8.0" height="23.1" fill="#ef4444"/><line x1="188.9" x2="188.9" y1="364.0" y2="388.6" stroke="#22c55e" stroke-width="1"/><rect x="184.9" y="374.2" width="8.0" height="7.7" fill="#22c55e"/><line x1="205.4" x2="205.4" y1="363.7" y2="393.3" stroke="#ef4444" stroke-width="1"/><rect x="201.4" y="373.8" width="8.0" height="3.1" fill="#ef4444"/><line x1="221.8" x2="221.8" y1="370.2" y2="395.1" stroke="#ef4444" stroke-width="1"/><rect x="217.8" y="376.9" width="8.0" height="1.0" fill="#ef4444"/><line x1="238.2" x2="238.2" y1="367.7" y2="389.6" stroke="#22c55e" stroke-width="1"/><rect x="234.2" y="367.7" width="8.0" height="10.3" fill="#22c55e"/><line x1="254.6" x2="254.6" y1="354.2" y2="409.4" stroke="#ef4444" stroke-width="1"/><rect x="250.6" y="367.5" width="8.0" height="40.9" fill="#ef4444"/><line x1="271.1" x2="271.1" y1="407.2" y2="439.9" stroke="#ef4444" stroke-width="1"/><rect x="267.1" y="408.5" width="8.0" height="20.9" fill="#ef4444"/><line x1="287.5" x2="287.5" y1="413.5" y2="439.5" stroke="#ef4444" stroke-width="1"/><rect x="283.5" y="429.8" width="8.0" height="9.7" fill="#ef4444"/><line x1="303.9" x2="303.9" y1="397.9" y2="439.6" stroke="#22c55e" stroke-width="1"/><rect x="299.9" y="415.8" width="8.0" height="23.6" fill="#22c55e"/><line x1="320.4" x2="320.4" y1="414.4" y2="442.9" stroke="#ef4444" stroke-width="1"/><rect x="316.4" y="415.8" width="8.0" height="8.3" fill="#ef4444"/><line x1="336.8" x2="336.8" y1="408.9" y2="425.1" stroke="#22c55e" stroke-width="1"/><rect x="332.8" y="419.2" width="8.0" height="4.6" fill="#22c55e"/><line x1="353.2" x2="353.2" y1="415.9" y2="429.3" stroke="#ef4444" stroke-width="1"/><rect x="349.2" y="419.2" width="8.0" height="5.6" fill="#ef4444"/><line x1="369.6" x2="369.6" y1="412.9" y2="425.2" stroke="#22c55e" stroke-width="1"/><rect x="365.6" y="422.8" width="8.0" height="2.0" fill="#22c55e"/><line x1="386.1" x2="386.1" y1="421.9" y2="443.5" stroke="#ef4444" stroke-width="1"/><rect x="382.1" y="422.6" width="8.0" height="18.1" fill="#ef4444"/><line x1="402.5" x2="402.5" y1="440.8" y2="458.6" stroke="#ef4444" stroke-width="1"/><rect x="398.5" y="440.8" width="8.0" height="10.8" fill="#ef4444"/><line x1="418.9" x2="418.9" y1="440.3" y2="458.9" stroke="#22c55e" stroke-width="1"/><rect x="414.9" y="441.3" width="8.0" height="10.9" fill="#22c55e"/><line x1="435.4" x2="435.4" y1="433.3" y2="448.0" stroke="#ef4444" stroke-width="1"/><rect x="431.4" y="441.6" width="8.0" height="5.6" fill="#ef4444"/><line x1="451.8" x2="451.8" y1="433.4" y2="452.6" stroke="#22c55e" stroke-width="1"/><rect x="447.8" y="433.4" width="8.0" height="13.5" fill="#22c55e"/><line x1="468.2" x2="468.2" y1="433.5" y2="458.2" stroke="#ef4444" stroke-width="1"/><rect x="464.2" y="433.5" width="8.0" height="13.8" fill="#ef4444"/><line x1="484.6" x2="484.6" y1="435.8" y2="448.9" stroke="#22c55e" stroke-width="1"/><rect x="480.6" y="442.3" width="8.0" height="5.6" fill="#22c55e"/><line x1="501.1" x2="501.1" y1="430.3" y2="464.5" stroke="#ef4444" stroke-width="1"/><rect x="497.1" y="442.2" width="8.0" height="18.7" fill="#ef4444"/><text x="501.1" y="500" fill="#eab308" font-size="12" text-anchor="middle">▲</text><line x1="517.5" x2="517.5" y1="425.8" y2="462.4" stroke="#22c55e" stroke-width="1"/><rect x="513.5" y="427.2" width="8.0" height="33.7" fill="#22c55e"/><line x1="533.9" x2="533.9" y1="409.4" y2="469.2" stroke="#ef4444" stroke-width="1"/><rect x="529.9" y="427.3" width="8.0" height="38.9" fill="#ef4444"/><line x1="550.4" x2="550.4" y1="451.9" y2="479.5" stroke="#22c55e" stroke-width="1"/><rect x="546.4" y="456.0" width="8.0" height="10.1" fill="#22c55e"/><line x1="566.8" x2="566.8" y1="424.6" y2="456.7" stroke="#22c55e" stroke-width="1"/><rect x="562.8" y="425.5" width="8.0" height="30.4" fill="#22c55e"/><line x1="583.2" x2="583.2" y1="421.0" y2="445.8" stroke="#ef4444" stroke-width="1"/><rect x="579.2" y="425.2" width="8.0" height="2.3" fill="#ef4444"/><line x1="599.6" x2="599.6" y1="423.8" y2="456.8" stroke="#ef4444" stroke-width="1"/><rect x="595.6" y="427.5" width="8.0" height="13.0" fill="#ef4444"/><line x1="616.1" x2="616.1" y1="417.4" y2="443.0" stroke="#22c55e" stroke-width="1"/><rect x="612.1" y="440.4" width="8.0" height="1.0" fill="#22c55e"/><line x1="632.5" x2="632.5" y1="425.3" y2="452.7" stroke="#ef4444" stroke-width="1"/><rect x="628.5" y="441.8" width="8.0" height="10.3" fill="#ef4444"/><line x1="648.9" x2="648.9" y1="453.2" y2="480.3" stroke="#ef4444" stroke-width="1"/><rect x="644.9" y="453.2" width="8.0" height="21.5" fill="#ef4444"/><line x1="665.4" x2="665.4" y1="470.6" y2="483.1" stroke="#ef4444" stroke-width="1"/><rect x="661.4" y="474.3" width="8.0" height="1.0" fill="#ef4444"/><line x1="681.8" x2="681.8" y1="473.3" y2="478.4" stroke="#ef4444" stroke-width="1"/><rect x="677.8" y="475.1" width="8.0" height="1.0" fill="#ef4444"/><line x1="0" x2="690" y1="432.1" y2="432.1" stroke="#ef4444" stroke-width="1" stroke-dasharray="5,4" opacity="0.85"/><text x="694" y="435.1" fill="#ef4444" font-size="10" font-family="monospace">SL 4186.69</text><line x1="0" x2="690" y1="461.1" y2="461.1" stroke="#e6edf3" stroke-width="1" stroke-dasharray="5,4" opacity="0.85"/><text x="694" y="464.1" fill="#e6edf3" font-size="10" font-family="monospace">entry 4179.14</text></g></svg>