<svg xmlns="http://www.w3.org/2000/svg" width="760" height="514" viewBox="0 0 760 514"><rect width="760" height="514" fill="#0d1117"/><text x="6" y="18" fill="#e6edf3" font-size="12" font-family="monospace">#37 · Mon 2026-05-25 06:06 PT · NY · retrace arm · LONG @4569.25 SL 4561.37 → -1.006R</text><g><text x="6" y="42" fill="#8b949e" font-size="11" font-family="monospace">15-min · entry marked</text><line x1="8.6" x2="8.6" y1="168.2" y2="208.5" stroke="#ef4444" stroke-width="1"/><rect x="4.6" y="184.0" width="8.0" height="12.0" fill="#ef4444"/><line x1="25.9" x2="25.9" y1="190.4" y2="231.3" stroke="#ef4444" stroke-width="1"/><rect x="21.9" y="195.9" width="8.0" height="25.5" fill="#ef4444"/><line x1="43.1" x2="43.1" y1="204.4" y2="241.1" stroke="#22c55e" stroke-width="1"/><rect x="39.1" y="218.2" width="8.0" height="3.5" fill="#22c55e"/><line x1="60.4" x2="60.4" y1="193.9" y2="229.0" stroke="#22c55e" stroke-width="1"/><rect x="56.4" y="215.3" width="8.0" height="2.5" fill="#22c55e"/><line x1="77.6" x2="77.6" y1="193.7" y2="219.7" stroke="#22c55e" stroke-width="1"/><rect x="73.6" y="200.1" width="8.0" height="14.9" fill="#22c55e"/><line x1="94.9" x2="94.9" y1="153.4" y2="201.8" stroke="#22c55e" stroke-width="1"/><rect x="90.9" y="158.2" width="8.0" height="42.1" fill="#22c55e"/><line x1="112.1" x2="112.1" y1="142.9" y2="170.2" stroke="#ef4444" stroke-width="1"/><rect x="108.1" y="158.7" width="8.0" height="11.4" fill="#ef4444"/><line x1="129.4" x2="129.4" y1="167.7" y2="226.9" stroke="#ef4444" stroke-width="1"/><rect x="125.4" y="170.1" width="8.0" height="43.7" fill="#ef4444"/><line x1="146.6" x2="146.6" y1="163.7" y2="215.9" stroke="#22c55e" stroke-width="1"/><rect x="142.6" y="176.1" width="8.0" height="37.4" fill="#22c55e"/><line x1="163.9" x2="163.9" y1="140.5" y2="184.7" stroke="#22c55e" stroke-width="1"/><rect x="159.9" y="142.9" width="8.0" height="33.4" fill="#22c55e"/><line x1="181.1" x2="181.1" y1="141.3" y2="177.5" stroke="#ef4444" stroke-width="1"/><rect x="177.1" y="142.9" width="8.0" height="25.3" fill="#ef4444"/><line x1="198.4" x2="198.4" y1="166.7" y2="218.3" stroke="#ef4444" stroke-width="1"/><rect x="194.4" y="168.2" width="8.0" height="41.9" fill="#ef4444"/><line x1="215.6" x2="215.6" y1="188.7" y2="219.2" stroke="#ef4444" stroke-width="1"/><rect x="211.6" y="209.9" width="8.0" height="2.9" fill="#ef4444"/><line x1="232.9" x2="232.9" y1="199.1" y2="220.8" stroke="#22c55e" stroke-width="1"/><rect x="228.9" y="202.4" width="8.0" height="10.2" fill="#22c55e"/><line x1="250.1" x2="250.1" y1="184.5" y2="210.3" stroke="#ef4444" stroke-width="1"/><rect x="246.1" y="202.6" width="8.0" height="4.0" fill="#ef4444"/><line x1="267.4" x2="267.4" y1="182.5" y2="206.9" stroke="#22c55e" stroke-width="1"/><rect x="263.4" y="183.1" width="8.0" height="23.7" fill="#22c55e"/><line x1="284.6" x2="284.6" y1="133.9" y2="186.2" stroke="#22c55e" stroke-width="1"/><rect x="280.6" y="136.2" width="8.0" height="47.2" fill="#22c55e"/><line x1="301.9" x2="301.9" y1="113.4" y2="143.6" stroke="#22c55e" stroke-width="1"/><rect x="297.9" y="123.9" width="8.0" height="12.4" fill="#22c55e"/><line x1="319.1" x2="319.1" y1="90.0" y2="123.7" stroke="#22c55e" stroke-width="1"/><rect x="315.1" y="94.0" width="8.0" height="29.5" fill="#22c55e"/><line x1="336.4" x2="336.4" y1="81.5" y2="107.4" stroke="#ef4444" stroke-width="1"/><rect x="332.4" y="93.5" width="8.0" height="7.3" fill="#ef4444"/><line x1="353.6" x2="353.6" y1="84.9" y2="117.4" stroke="#ef4444" stroke-width="1"/><rect x="349.6" y="100.8" width="8.0" height="5.1" fill="#ef4444"/><line x1="370.9" x2="370.9" y1="90.8" y2="117.4" stroke="#ef4444" stroke-width="1"/><rect x="366.9" y="106.0" width="8.0" height="10.2" fill="#ef4444"/><line x1="388.1" x2="388.1" y1="90.4" y2="123.4" stroke="#22c55e" stroke-width="1"/><rect x="384.1" y="92.6" width="8.0" height="22.5" fill="#22c55e"/><line x1="405.4" x2="405.4" y1="71.0" y2="110.4" stroke="#ef4444" stroke-width="1"/><rect x="401.4" y="92.6" width="8.0" height="3.1" fill="#ef4444"/><line x1="422.6" x2="422.6" y1="64.0" y2="96.1" stroke="#22c55e" stroke-width="1"/><rect x="418.6" y="76.2" width="8.0" height="20.0" fill="#22c55e"/><line x1="439.9" x2="439.9" y1="58.9" y2="111.9" stroke="#ef4444" stroke-width="1"/><rect x="435.9" y="76.2" width="8.0" height="34.7" fill="#ef4444"/><line x1="457.1" x2="457.1" y1="110.8" y2="202.0" stroke="#ef4444" stroke-width="1"/><rect x="453.1" y="111.7" width="8.0" height="89.1" fill="#ef4444"/><line x1="474.4" x2="474.4" y1="169.1" y2="224.3" stroke="#22c55e" stroke-width="1"/><rect x="470.4" y="172.0" width="8.0" height="28.8" fill="#22c55e"/><line x1="491.6" x2="491.6" y1="105.4" y2="176.2" stroke="#22c55e" stroke-width="1"/><rect x="487.6" y="131.3" width="8.0" height="40.4" fill="#22c55e"/><line x1="508.9" x2="508.9" y1="116.0" y2="146.7" stroke="#22c55e" stroke-width="1"/><rect x="504.9" y="122.7" width="8.0" height="7.9" fill="#22c55e"/><line x1="526.1" x2="526.1" y1="96.6" y2="164.3" stroke="#ef4444" stroke-width="1"/><rect x="522.1" y="123.0" width="8.0" height="23.1" fill="#ef4444"/><text x="526.1" y="258" fill="#eab308" font-size="12" text-anchor="middle">▲</text><line x1="543.4" x2="543.4" y1="144.2" y2="171.8" stroke="#ef4444" stroke-width="1"/><rect x="539.4" y="145.2" width="8.0" height="18.1" fill="#ef4444"/><text x="543.4" y="258" fill="#eab308" font-size="12" text-anchor="middle">▲</text><line x1="560.6" x2="560.6" y1="137.3" y2="165.4" stroke="#22c55e" stroke-width="1"/><rect x="556.6" y="140.0" width="8.0" height="23.1" fill="#22c55e"/><line x1="577.9" x2="577.9" y1="139.0" y2="174.4" stroke="#ef4444" stroke-width="1"/><rect x="573.9" y="140.7" width="8.0" height="13.9" fill="#ef4444"/><line x1="595.1" x2="595.1" y1="107.0" y2="159.6" stroke="#22c55e" stroke-width="1"/><rect x="591.1" y="122.5" width="8.0" height="32.1" fill="#22c55e"/><line x1="612.4" x2="612.4" y1="103.3" y2="125.3" stroke="#22c55e" stroke-width="1"/><rect x="608.4" y="121.7" width="8.0" height="1.0" fill="#22c55e"/><line x1="629.6" x2="629.6" y1="117.1" y2="140.3" stroke="#ef4444" stroke-width="1"/><rect x="625.6" y="121.4" width="8.0" height="6.5" fill="#ef4444"/><line x1="646.9" x2="646.9" y1="114.2" y2="138.7" stroke="#ef4444" stroke-width="1"/><rect x="642.9" y="127.8" width="8.0" height="1.0" fill="#ef4444"/><line x1="664.1" x2="664.1" y1="83.5" y2="136.8" stroke="#22c55e" stroke-width="1"/><rect x="660.1" y="106.0" width="8.0" height="23.7" fill="#22c55e"/><line x1="681.4" x2="681.4" y1="101.9" y2="112.9" stroke="#ef4444" stroke-width="1"/><rect x="677.4" y="106.1" width="8.0" height="4.0" fill="#ef4444"/><line x1="0" x2="690" y1="112.3" y2="112.3" stroke="#e6edf3" stroke-width="1" stroke-dasharray="5,4" opacity="0.85"/><text x="694" y="115.3" fill="#e6edf3" font-size="10" font-family="monospace">entry 4569.25</text><line x1="0" x2="690" y1="166.3" y2="166.3" stroke="#ef4444" stroke-width="1" stroke-dasharray="5,4" opacity="0.85"/><text x="694" y="169.3" fill="#ef4444" font-size="10" font-family="monospace">SL 4561.37</text></g><g><text x="6" y="284" fill="#8b949e" font-size="11" font-family="monospace">3-min · entry marked</text><line x1="7.8" x2="7.8" y1="306.5" y2="330.6" stroke="#22c55e" stroke-width="1"/><rect x="3.8" y="310.2" width="8.0" height="18.3" fill="#22c55e"/><line x1="23.5" x2="23.5" y1="307.6" y2="321.4" stroke="#ef4444" stroke-width="1"/><rect x="19.5" y="310.2" width="8.0" height="8.3" fill="#ef4444"/><line x1="39.2" x2="39.2" y1="316.6" y2="324.4" stroke="#ef4444" stroke-width="1"/><rect x="35.2" y="318.6" width="8.0" height="1.3" fill="#ef4444"/><line x1="54.9" x2="54.9" y1="300.9" y2="322.3" stroke="#ef4444" stroke-width="1"/><rect x="50.9" y="319.9" width="8.0" height="1.0" fill="#ef4444"/><line x1="70.6" x2="70.6" y1="320.1" y2="346.4" stroke="#ef4444" stroke-width="1"/><rect x="66.6" y="320.3" width="8.0" height="23.7" fill="#ef4444"/><line x1="86.3" x2="86.3" y1="339.2" y2="350.6" stroke="#ef4444" stroke-width="1"/><rect x="82.3" y="344.0" width="8.0" height="5.8" fill="#ef4444"/><line x1="101.9" x2="101.9" y1="345.2" y2="357.9" stroke="#ef4444" stroke-width="1"/><rect x="97.9" y="349.9" width="8.0" height="1.0" fill="#ef4444"/><line x1="117.6" x2="117.6" y1="346.7" y2="359.3" stroke="#ef4444" stroke-width="1"/><rect x="113.6" y="350.9" width="8.0" height="7.3" fill="#ef4444"/><line x1="133.3" x2="133.3" y1="358.1" y2="396.3" stroke="#ef4444" stroke-width="1"/><rect x="129.3" y="359.1" width="8.0" height="33.2" fill="#ef4444"/><line x1="149.0" x2="149.0" y1="386.2" y2="403.5" stroke="#ef4444" stroke-width="1"/><rect x="145.0" y="392.0" width="8.0" height="6.6" fill="#ef4444"/><line x1="164.7" x2="164.7" y1="397.5" y2="451.3" stroke="#ef4444" stroke-width="1"/><rect x="160.7" y="398.2" width="8.0" height="36.9" fill="#ef4444"/><line x1="180.3" x2="180.3" y1="420.2" y2="449.3" stroke="#ef4444" stroke-width="1"/><rect x="176.3" y="434.9" width="8.0" height="9.2" fill="#ef4444"/><line x1="196.0" x2="196.0" y1="438.1" y2="458.5" stroke="#ef4444" stroke-width="1"/><rect x="192.0" y="444.1" width="8.0" height="13.2" fill="#ef4444"/><line x1="211.7" x2="211.7" y1="453.1" y2="469.4" stroke="#ef4444" stroke-width="1"/><rect x="207.7" y="457.3" width="8.0" height="11.3" fill="#ef4444"/><line x1="227.4" x2="227.4" y1="464.0" y2="483.1" stroke="#ef4444" stroke-width="1"/><rect x="223.4" y="468.6" width="8.0" height="7.5" fill="#ef4444"/><line x1="243.1" x2="243.1" y1="452.4" y2="481.2" stroke="#22c55e" stroke-width="1"/><rect x="239.1" y="465.8" width="8.0" height="10.3" fill="#22c55e"/><line x1="258.8" x2="258.8" y1="444.1" y2="465.4" stroke="#22c55e" stroke-width="1"/><rect x="254.8" y="447.8" width="8.0" height="15.3" fill="#22c55e"/><line x1="274.4" x2="274.4" y1="422.4" y2="447.8" stroke="#22c55e" stroke-width="1"/><rect x="270.4" y="425.5" width="8.0" height="22.2" fill="#22c55e"/><line x1="290.1" x2="290.1" y1="402.1" y2="430.1" stroke="#22c55e" stroke-width="1"/><rect x="286.1" y="408.9" width="8.0" height="16.2" fill="#22c55e"/><line x1="305.8" x2="305.8" y1="392.0" y2="411.5" stroke="#22c55e" stroke-width="1"/><rect x="301.8" y="392.3" width="8.0" height="16.6" fill="#22c55e"/><line x1="321.5" x2="321.5" y1="352.1" y2="393.7" stroke="#22c55e" stroke-width="1"/><rect x="317.5" y="367.2" width="8.0" height="25.0" fill="#22c55e"/><line x1="337.2" x2="337.2" y1="359.1" y2="369.6" stroke="#22c55e" stroke-width="1"/><rect x="333.2" y="365.8" width="8.0" height="1.0" fill="#22c55e"/><line x1="352.8" x2="352.8" y1="360.7" y2="380.8" stroke="#ef4444" stroke-width="1"/><rect x="348.8" y="365.5" width="8.0" height="15.1" fill="#ef4444"/><line x1="368.5" x2="368.5" y1="368.3" y2="397.6" stroke="#22c55e" stroke-width="1"/><rect x="364.5" y="373.3" width="8.0" height="6.6" fill="#22c55e"/><line x1="384.2" x2="384.2" y1="372.8" y2="390.4" stroke="#ef4444" stroke-width="1"/><rect x="380.2" y="372.9" width="8.0" height="6.6" fill="#ef4444"/><line x1="399.9" x2="399.9" y1="376.5" y2="384.5" stroke="#ef4444" stroke-width="1"/><rect x="395.9" y="379.6" width="8.0" height="2.7" fill="#ef4444"/><line x1="415.6" x2="415.6" y1="364.1" y2="382.3" stroke="#22c55e" stroke-width="1"/><rect x="411.6" y="365.0" width="8.0" height="17.2" fill="#22c55e"/><line x1="431.2" x2="431.2" y1="363.8" y2="379.0" stroke="#ef4444" stroke-width="1"/><rect x="427.2" y="365.0" width="8.0" height="6.1" fill="#ef4444"/><line x1="446.9" x2="446.9" y1="371.1" y2="417.0" stroke="#ef4444" stroke-width="1"/><rect x="442.9" y="371.5" width="8.0" height="38.9" fill="#ef4444"/><line x1="462.6" x2="462.6" y1="380.8" y2="415.9" stroke="#22c55e" stroke-width="1"/><rect x="458.6" y="384.6" width="8.0" height="25.5" fill="#22c55e"/><line x1="478.3" x2="478.3" y1="342.4" y2="391.1" stroke="#22c55e" stroke-width="1"/><rect x="474.3" y="361.9" width="8.0" height="22.6" fill="#22c55e"/><text x="478.3" y="500" fill="#eab308" font-size="12" text-anchor="middle">▲</text><line x1="494.0" x2="494.0" y1="360.0" y2="386.5" stroke="#ef4444" stroke-width="1"/><rect x="490.0" y="362.1" width="8.0" height="24.0" fill="#ef4444"/><line x1="509.7" x2="509.7" y1="385.6" y2="409.1" stroke="#ef4444" stroke-width="1"/><rect x="505.7" y="386.1" width="8.0" height="10.9" fill="#ef4444"/><line x1="525.3" x2="525.3" y1="396.0" y2="421.4" stroke="#ef4444" stroke-width="1"/><rect x="521.3" y="396.0" width="8.0" height="22.6" fill="#ef4444"/><line x1="541.0" x2="541.0" y1="404.5" y2="425.3" stroke="#22c55e" stroke-width="1"/><rect x="537.0" y="404.8" width="8.0" height="13.9" fill="#22c55e"/><line x1="556.7" x2="556.7" y1="394.9" y2="409.6" stroke="#22c55e" stroke-width="1"/><rect x="552.7" y="401.3" width="8.0" height="3.6" fill="#22c55e"/><line x1="572.4" x2="572.4" y1="400.1" y2="422.4" stroke="#ef4444" stroke-width="1"/><rect x="568.4" y="401.3" width="8.0" height="18.6" fill="#ef4444"/><line x1="588.1" x2="588.1" y1="404.4" y2="420.4" stroke="#22c55e" stroke-width="1"/><rect x="584.1" y="415.9" width="8.0" height="4.0" fill="#22c55e"/><line x1="603.8" x2="603.8" y1="404.1" y2="418.3" stroke="#22c55e" stroke-width="1"/><rect x="599.8" y="408.7" width="8.0" height="7.0" fill="#22c55e"/><line x1="619.4" x2="619.4" y1="387.4" y2="414.0" stroke="#22c55e" stroke-width="1"/><rect x="615.4" y="388.5" width="8.0" height="21.0" fill="#22c55e"/><line x1="635.1" x2="635.1" y1="388.2" y2="406.2" stroke="#ef4444" stroke-width="1"/><rect x="631.1" y="388.4" width="8.0" height="16.9" fill="#ef4444"/><line x1="650.8" x2="650.8" y1="387.3" y2="406.3" stroke="#22c55e" stroke-width="1"/><rect x="646.8" y="398.1" width="8.0" height="7.3" fill="#22c55e"/><line x1="666.5" x2="666.5" y1="388.6" y2="401.0" stroke="#22c55e" stroke-width="1"/><rect x="662.5" y="390.3" width="8.0" height="7.8" fill="#22c55e"/><line x1="682.2" x2="682.2" y1="389.2" y2="400.1" stroke="#ef4444" stroke-width="1"/><rect x="678.2" y="391.1" width="8.0" height="8.8" fill="#ef4444"/><line x1="0" x2="690" y1="359.7" y2="359.7" stroke="#e6edf3" stroke-width="1" stroke-dasharray="5,4" opacity="0.85"/><text x="694" y="362.7" fill="#e6edf3" font-size="10" font-family="monospace">entry 4569.25</text><line x1="0" x2="690" y1="419.3" y2="419.3" stroke="#ef4444" stroke-width="1" stroke-dasharray="5,4" opacity="0.85"/><text x="694" y="422.3" fill="#ef4444" font-size="10" font-family="monospace">SL 4561.37</text></g></svg>