<svg xmlns="http://www.w3.org/2000/svg" width="760" height="514" viewBox="0 0 760 514"><rect width="760" height="514" fill="#0d1117"/><text x="6" y="18" fill="#e6edf3" font-size="12" font-family="monospace">#45 · Tue 2026-06-09 19:30 PT · ASIA · retrace arm · SHORT @4177.74 SL 4186.69 → -1.034R</text><g><text x="6" y="42" fill="#8b949e" font-size="11" font-family="monospace">15-min · entry marked</text><line x1="9.9" x2="9.9" y1="58.9" y2="84.1" stroke="#ef4444" stroke-width="1"/><rect x="5.9" y="61.8" width="8.0" height="21.0" fill="#ef4444"/><line x1="29.6" x2="29.6" y1="82.8" y2="93.7" stroke="#ef4444" stroke-width="1"/><rect x="25.6" y="82.9" width="8.0" height="2.4" fill="#ef4444"/><line x1="49.3" x2="49.3" y1="79.9" y2="98.6" stroke="#ef4444" stroke-width="1"/><rect x="45.3" y="85.5" width="8.0" height="11.6" fill="#ef4444"/><line x1="69.0" x2="69.0" y1="80.9" y2="98.9" stroke="#22c55e" stroke-width="1"/><rect x="65.0" y="83.3" width="8.0" height="13.6" fill="#22c55e"/><line x1="88.7" x2="88.7" y1="78.5" y2="88.6" stroke="#ef4444" stroke-width="1"/><rect x="84.7" y="82.6" width="8.0" height="1.0" fill="#ef4444"/><line x1="108.4" x2="108.4" y1="79.6" y2="84.3" stroke="#22c55e" stroke-width="1"/><rect x="104.4" y="82.1" width="8.0" height="1.2" fill="#22c55e"/><line x1="128.1" x2="128.1" y1="76.8" y2="84.6" stroke="#22c55e" stroke-width="1"/><rect x="124.1" y="77.9" width="8.0" height="4.4" fill="#22c55e"/><line x1="147.9" x2="147.9" y1="76.6" y2="81.7" stroke="#ef4444" stroke-width="1"/><rect x="143.9" y="77.7" width="8.0" height="3.8" fill="#ef4444"/><line x1="167.6" x2="167.6" y1="85.5" y2="97.5" stroke="#ef4444" stroke-width="1"/><rect x="163.6" y="87.8" width="8.0" height="1.1" fill="#ef4444"/><line x1="187.3" x2="187.3" y1="86.3" y2="93.3" stroke="#22c55e" stroke-width="1"/><rect x="183.3" y="86.3" width="8.0" height="2.5" fill="#22c55e"/><line x1="207.0" x2="207.0" y1="85.3" y2="103.2" stroke="#ef4444" stroke-width="1"/><rect x="203.0" y="86.4" width="8.0" height="14.4" fill="#ef4444"/><line x1="226.7" x2="226.7" y1="99.3" y2="131.4" stroke="#ef4444" stroke-width="1"/><rect x="222.7" y="100.8" width="8.0" height="21.5" fill="#ef4444"/><line x1="246.4" x2="246.4" y1="103.7" y2="125.5" stroke="#ef4444" stroke-width="1"/><rect x="242.4" y="122.4" width="8.0" height="2.5" fill="#ef4444"/><line x1="266.1" x2="266.1" y1="123.5" y2="148.7" stroke="#ef4444" stroke-width="1"/><rect x="262.1" y="124.4" width="8.0" height="22.2" fill="#ef4444"/><line x1="285.9" x2="285.9" y1="136.3" y2="160.5" stroke="#ef4444" stroke-width="1"/><rect x="281.9" y="146.5" width="8.0" height="10.3" fill="#ef4444"/><line x1="305.6" x2="305.6" y1="145.8" y2="172.0" stroke="#22c55e" stroke-width="1"/><rect x="301.6" y="150.5" width="8.0" height="6.4" fill="#22c55e"/><line x1="325.3" x2="325.3" y1="142.0" y2="160.4" stroke="#22c55e" stroke-width="1"/><rect x="321.3" y="144.8" width="8.0" height="5.7" fill="#22c55e"/><line x1="345.0" x2="345.0" y1="139.0" y2="158.0" stroke="#ef4444" stroke-width="1"/><rect x="341.0" y="144.8" width="8.0" height="13.2" fill="#ef4444"/><line x1="364.7" x2="364.7" y1="156.2" y2="192.9" stroke="#ef4444" stroke-width="1"/><rect x="360.7" y="157.5" width="8.0" height="25.4" fill="#ef4444"/><line x1="384.4" x2="384.4" y1="152.5" y2="191.5" stroke="#22c55e" stroke-width="1"/><rect x="380.4" y="157.5" width="8.0" height="25.7" fill="#22c55e"/><line x1="404.1" x2="404.1" y1="156.9" y2="214.8" stroke="#ef4444" stroke-width="1"/><rect x="400.1" y="157.4" width="8.0" height="27.5" fill="#ef4444"/><line x1="423.9" x2="423.9" y1="160.3" y2="195.9" stroke="#ef4444" stroke-width="1"/><rect x="419.9" y="185.1" width="8.0" height="2.7" fill="#ef4444"/><line x1="443.6" x2="443.6" y1="178.1" y2="219.5" stroke="#ef4444" stroke-width="1"/><rect x="439.6" y="187.6" width="8.0" height="26.8" fill="#ef4444"/><line x1="463.3" x2="463.3" y1="199.2" y2="220.9" stroke="#22c55e" stroke-width="1"/><rect x="459.3" y="212.1" width="8.0" height="2.5" fill="#22c55e"/><line x1="483.0" x2="483.0" y1="206.4" y2="228.6" stroke="#ef4444" stroke-width="1"/><rect x="479.0" y="212.1" width="8.0" height="10.8" fill="#ef4444"/><line x1="502.7" x2="502.7" y1="212.6" y2="231.3" stroke="#22c55e" stroke-width="1"/><rect x="498.7" y="213.3" width="8.0" height="9.5" fill="#22c55e"/><line x1="522.4" x2="522.4" y1="204.7" y2="238.5" stroke="#ef4444" stroke-width="1"/><rect x="518.4" y="213.4" width="8.0" height="6.3" fill="#ef4444"/><text x="522.4" y="258" fill="#eab308" font-size="12" text-anchor="middle">▲</text><line x1="542.1" x2="542.1" y1="208.6" y2="240.6" stroke="#ef4444" stroke-width="1"/><rect x="538.1" y="220.0" width="8.0" height="19.1" fill="#ef4444"/><line x1="561.9" x2="561.9" y1="226.8" y2="241.1" stroke="#22c55e" stroke-width="1"/><rect x="557.9" y="231.6" width="8.0" height="7.6" fill="#22c55e"/><line x1="581.6" x2="581.6" y1="226.0" y2="239.4" stroke="#ef4444" stroke-width="1"/><rect x="577.6" y="231.4" width="8.0" height="1.8" fill="#ef4444"/><line x1="601.3" x2="601.3" y1="222.4" y2="234.8" stroke="#22c55e" stroke-width="1"/><rect x="597.3" y="228.2" width="8.0" height="5.0" fill="#22c55e"/><line x1="621.0" x2="621.0" y1="216.0" y2="228.6" stroke="#22c55e" stroke-width="1"/><rect x="617.0" y="219.2" width="8.0" height="9.1" fill="#22c55e"/><line x1="640.7" x2="640.7" y1="214.6" y2="226.7" stroke="#ef4444" stroke-width="1"/><rect x="636.7" y="219.1" width="8.0" height="6.4" fill="#ef4444"/><line x1="660.4" x2="660.4" y1="222.4" y2="239.7" stroke="#ef4444" stroke-width="1"/><rect x="656.4" y="225.7" width="8.0" height="12.4" fill="#ef4444"/><line x1="680.1" x2="680.1" y1="236.8" y2="241.1" stroke="#ef4444" stroke-width="1"/><rect x="676.1" y="238.2" width="8.0" height="1.0" fill="#ef4444"/><line x1="0" x2="690" y1="215.7" y2="215.7" stroke="#ef4444" stroke-width="1" stroke-dasharray="5,4" opacity="0.85"/><text x="694" y="218.7" fill="#ef4444" font-size="10" font-family="monospace">SL 4186.69</text><line x1="0" x2="690" y1="232.2" y2="232.2" stroke="#e6edf3" stroke-width="1" stroke-dasharray="5,4" opacity="0.85"/><text x="694" y="235.2" fill="#e6edf3" font-size="10" font-family="monospace">entry 4177.74</text></g><g><text x="6" y="284" fill="#8b949e" font-size="11" font-family="monospace">3-min · entry marked</text><line x1="8.0" x2="8.0" y1="300.9" y2="373.4" stroke="#ef4444" stroke-width="1"/><rect x="4.0" y="302.0" width="8.0" height="60.4" fill="#ef4444"/><line x1="24.1" x2="24.1" y1="360.6" y2="424.7" stroke="#ef4444" stroke-width="1"/><rect x="20.1" y="363.2" width="8.0" height="59.4" fill="#ef4444"/><line x1="40.1" x2="40.1" y1="376.6" y2="426.1" stroke="#22c55e" stroke-width="1"/><rect x="36.1" y="386.2" width="8.0" height="37.8" fill="#22c55e"/><line x1="56.2" x2="56.2" y1="366.1" y2="398.7" stroke="#22c55e" stroke-width="1"/><rect x="52.2" y="372.5" width="8.0" height="13.9" fill="#22c55e"/><line x1="72.2" x2="72.2" y1="348.4" y2="376.5" stroke="#22c55e" stroke-width="1"/><rect x="68.2" y="361.5" width="8.0" height="11.0" fill="#22c55e"/><line x1="88.3" x2="88.3" y1="312.2" y2="372.3" stroke="#22c55e" stroke-width="1"/><rect x="84.3" y="312.6" width="8.0" height="49.3" fill="#22c55e"/><line x1="104.3" x2="104.3" y1="308.4" y2="350.6" stroke="#ef4444" stroke-width="1"/><rect x="100.3" y="312.2" width="8.0" height="37.3" fill="#ef4444"/><line x1="120.3" x2="120.3" y1="340.5" y2="355.8" stroke="#ef4444" stroke-width="1"/><rect x="116.3" y="351.3" width="8.0" height="1.4" fill="#ef4444"/><line x1="136.4" x2="136.4" y1="349.5" y2="385.3" stroke="#ef4444" stroke-width="1"/><rect x="132.4" y="351.8" width="8.0" height="24.1" fill="#ef4444"/><line x1="152.4" x2="152.4" y1="357.1" y2="382.7" stroke="#22c55e" stroke-width="1"/><rect x="148.4" y="367.8" width="8.0" height="8.1" fill="#22c55e"/><line x1="168.5" x2="168.5" y1="356.7" y2="387.6" stroke="#ef4444" stroke-width="1"/><rect x="164.5" y="367.3" width="8.0" height="3.2" fill="#ef4444"/><line x1="184.5" x2="184.5" y1="363.6" y2="389.6" stroke="#ef4444" stroke-width="1"/><rect x="180.5" y="370.6" width="8.0" height="1.0" fill="#ef4444"/><line x1="200.6" x2="200.6" y1="361.0" y2="383.8" stroke="#22c55e" stroke-width="1"/><rect x="196.6" y="361.0" width="8.0" height="10.7" fill="#22c55e"/><line x1="216.6" x2="216.6" y1="346.9" y2="404.4" stroke="#ef4444" stroke-width="1"/><rect x="212.6" y="360.7" width="8.0" height="42.6" fill="#ef4444"/><line x1="232.7" x2="232.7" y1="402.1" y2="436.3" stroke="#ef4444" stroke-width="1"/><rect x="228.7" y="403.5" width="8.0" height="21.8" fill="#ef4444"/><line x1="248.7" x2="248.7" y1="408.7" y2="435.8" stroke="#ef4444" stroke-width="1"/><rect x="244.7" y="425.7" width="8.0" height="10.1" fill="#ef4444"/><line x1="264.8" x2="264.8" y1="392.4" y2="436.0" stroke="#22c55e" stroke-width="1"/><rect x="260.8" y="411.1" width="8.0" height="24.6" fill="#22c55e"/><line x1="280.8" x2="280.8" y1="409.7" y2="439.4" stroke="#ef4444" stroke-width="1"/><rect x="276.8" y="411.1" width="8.0" height="8.7" fill="#ef4444"/><line x1="296.9" x2="296.9" y1="403.9" y2="420.8" stroke="#22c55e" stroke-width="1"/><rect x="292.9" y="414.7" width="8.0" height="4.8" fill="#22c55e"/><line x1="312.9" x2="312.9" y1="411.2" y2="425.1" stroke="#ef4444" stroke-width="1"/><rect x="308.9" y="414.6" width="8.0" height="5.8" fill="#ef4444"/><line x1="329.0" x2="329.0" y1="408.1" y2="420.9" stroke="#22c55e" stroke-width="1"/><rect x="325.0" y="418.4" width="8.0" height="2.0" fill="#22c55e"/><line x1="345.0" x2="345.0" y1="417.5" y2="440.0" stroke="#ef4444" stroke-width="1"/><rect x="341.0" y="418.2" width="8.0" height="18.9" fill="#ef4444"/><line x1="361.0" x2="361.0" y1="437.2" y2="455.8" stroke="#ef4444" stroke-width="1"/><rect x="357.0" y="437.2" width="8.0" height="11.3" fill="#ef4444"/><line x1="377.1" x2="377.1" y1="436.6" y2="456.0" stroke="#22c55e" stroke-width="1"/><rect x="373.1" y="437.7" width="8.0" height="11.3" fill="#22c55e"/><line x1="393.1" x2="393.1" y1="429.3" y2="444.6" stroke="#ef4444" stroke-width="1"/><rect x="389.1" y="438.0" width="8.0" height="5.8" fill="#ef4444"/><line x1="409.2" x2="409.2" y1="429.5" y2="449.5" stroke="#22c55e" stroke-width="1"/><rect x="405.2" y="429.5" width="8.0" height="14.1" fill="#22c55e"/><line x1="425.2" x2="425.2" y1="429.5" y2="455.3" stroke="#ef4444" stroke-width="1"/><rect x="421.2" y="429.6" width="8.0" height="14.4" fill="#ef4444"/><line x1="441.3" x2="441.3" y1="432.0" y2="445.6" stroke="#22c55e" stroke-width="1"/><rect x="437.3" y="438.7" width="8.0" height="5.9" fill="#22c55e"/><line x1="457.3" x2="457.3" y1="426.3" y2="461.9" stroke="#ef4444" stroke-width="1"/><rect x="453.3" y="438.6" width="8.0" height="19.4" fill="#ef4444"/><line x1="473.4" x2="473.4" y1="421.5" y2="459.6" stroke="#22c55e" stroke-width="1"/><rect x="469.4" y="423.0" width="8.0" height="35.1" fill="#22c55e"/><line x1="489.4" x2="489.4" y1="404.4" y2="466.8" stroke="#ef4444" stroke-width="1"/><rect x="485.4" y="423.1" width="8.0" height="40.6" fill="#ef4444"/><text x="489.4" y="500" fill="#eab308" font-size="12" text-anchor="middle">▲</text><line x1="505.5" x2="505.5" y1="448.8" y2="477.5" stroke="#22c55e" stroke-width="1"/><rect x="501.5" y="453.0" width="8.0" height="10.6" fill="#22c55e"/><line x1="521.5" x2="521.5" y1="420.3" y2="453.7" stroke="#22c55e" stroke-width="1"/><rect x="517.5" y="421.2" width="8.0" height="31.7" fill="#22c55e"/><line x1="537.6" x2="537.6" y1="416.5" y2="442.3" stroke="#ef4444" stroke-width="1"/><rect x="533.6" y="420.9" width="8.0" height="2.4" fill="#ef4444"/><line x1="553.6" x2="553.6" y1="419.4" y2="453.8" stroke="#ef4444" stroke-width="1"/><rect x="549.6" y="423.3" width="8.0" height="13.6" fill="#ef4444"/><line x1="569.7" x2="569.7" y1="412.8" y2="439.5" stroke="#22c55e" stroke-width="1"/><rect x="565.7" y="436.8" width="8.0" height="1.0" fill="#22c55e"/><line x1="585.7" x2="585.7" y1="421.0" y2="449.6" stroke="#ef4444" stroke-width="1"/><rect x="581.7" y="438.2" width="8.0" height="10.7" fill="#ef4444"/><line x1="601.7" x2="601.7" y1="450.1" y2="478.3" stroke="#ef4444" stroke-width="1"/><rect x="597.7" y="450.1" width="8.0" height="22.4" fill="#ef4444"/><line x1="617.8" x2="617.8" y1="468.2" y2="481.2" stroke="#ef4444" stroke-width="1"/><rect x="613.8" y="472.1" width="8.0" height="1.0" fill="#ef4444"/><line x1="633.8" x2="633.8" y1="471.0" y2="482.1" stroke="#ef4444" stroke-width="1"/><rect x="629.8" y="472.9" width="8.0" height="5.9" fill="#ef4444"/><line x1="649.9" x2="649.9" y1="468.0" y2="483.1" stroke="#22c55e" stroke-width="1"/><rect x="645.9" y="474.6" width="8.0" height="4.4" fill="#22c55e"/><line x1="665.9" x2="665.9" y1="460.2" y2="480.3" stroke="#22c55e" stroke-width="1"/><rect x="661.9" y="460.2" width="8.0" height="14.5" fill="#22c55e"/><line x1="682.0" x2="682.0" y1="452.1" y2="460.2" stroke="#22c55e" stroke-width="1"/><rect x="678.0" y="454.0" width="8.0" height="6.3" fill="#22c55e"/><line x1="0" x2="690" y1="428.1" y2="428.1" stroke="#ef4444" stroke-width="1" stroke-dasharray="5,4" opacity="0.85"/><text x="694" y="431.1" fill="#ef4444" font-size="10" font-family="monospace">SL 4186.69</text><line x1="0" x2="690" y1="463.9" y2="463.9" stroke="#e6edf3" stroke-width="1" stroke-dasharray="5,4" opacity="0.85"/><text x="694" y="466.9" fill="#e6edf3" font-size="10" font-family="monospace">entry 4177.74</text></g></svg>