<svg xmlns="http://www.w3.org/2000/svg" width="760" height="514" viewBox="0 0 760 514"><rect width="760" height="514" fill="#0d1117"/><text x="6" y="18" fill="#e6edf3" font-size="12" font-family="monospace">#36 · Wed 2026-05-20 17:51 PT · ASIA · retrace arm · LONG @4548.02 SL 4541.15 → -1.007R</text><g><text x="6" y="42" fill="#8b949e" font-size="11" font-family="monospace">15-min · entry marked</text><line x1="9.6" x2="9.6" y1="208.9" y2="234.6" stroke="#ef4444" stroke-width="1"/><rect x="5.6" y="209.7" width="8.0" height="18.6" fill="#ef4444"/><line x1="28.8" x2="28.8" y1="210.1" y2="239.5" stroke="#22c55e" stroke-width="1"/><rect x="24.8" y="225.0" width="8.0" height="1.4" fill="#22c55e"/><line x1="47.9" x2="47.9" y1="215.7" y2="237.8" stroke="#ef4444" stroke-width="1"/><rect x="43.9" y="225.4" width="8.0" height="6.7" fill="#ef4444"/><line x1="67.1" x2="67.1" y1="221.3" y2="241.1" stroke="#22c55e" stroke-width="1"/><rect x="63.1" y="226.1" width="8.0" height="5.8" fill="#22c55e"/><line x1="86.3" x2="86.3" y1="209.7" y2="230.5" stroke="#22c55e" stroke-width="1"/><rect x="82.3" y="216.7" width="8.0" height="9.4" fill="#22c55e"/><line x1="105.4" x2="105.4" y1="179.8" y2="216.8" stroke="#22c55e" stroke-width="1"/><rect x="101.4" y="206.9" width="8.0" height="9.9" fill="#22c55e"/><line x1="124.6" x2="124.6" y1="172.7" y2="208.7" stroke="#22c55e" stroke-width="1"/><rect x="120.6" y="184.5" width="8.0" height="24.0" fill="#22c55e"/><line x1="143.8" x2="143.8" y1="171.9" y2="187.1" stroke="#22c55e" stroke-width="1"/><rect x="139.8" y="178.3" width="8.0" height="6.3" fill="#22c55e"/><line x1="162.9" x2="162.9" y1="168.5" y2="180.4" stroke="#22c55e" stroke-width="1"/><rect x="158.9" y="172.7" width="8.0" height="5.3" fill="#22c55e"/><line x1="182.1" x2="182.1" y1="150.8" y2="172.5" stroke="#22c55e" stroke-width="1"/><rect x="178.1" y="166.9" width="8.0" height="5.6" fill="#22c55e"/><line x1="201.3" x2="201.3" y1="157.4" y2="171.2" stroke="#ef4444" stroke-width="1"/><rect x="197.3" y="166.9" width="8.0" height="2.9" fill="#ef4444"/><line x1="220.4" x2="220.4" y1="149.5" y2="171.2" stroke="#22c55e" stroke-width="1"/><rect x="216.4" y="165.6" width="8.0" height="4.6" fill="#22c55e"/><line x1="239.6" x2="239.6" y1="158.2" y2="181.0" stroke="#ef4444" stroke-width="1"/><rect x="235.6" y="165.4" width="8.0" height="4.7" fill="#ef4444"/><line x1="258.8" x2="258.8" y1="167.0" y2="182.9" stroke="#ef4444" stroke-width="1"/><rect x="254.8" y="169.6" width="8.0" height="10.0" fill="#ef4444"/><line x1="277.9" x2="277.9" y1="174.5" y2="185.9" stroke="#22c55e" stroke-width="1"/><rect x="273.9" y="178.7" width="8.0" height="1.0" fill="#22c55e"/><line x1="297.1" x2="297.1" y1="156.5" y2="200.9" stroke="#ef4444" stroke-width="1"/><rect x="293.1" y="164.7" width="8.0" height="30.0" fill="#ef4444"/><line x1="316.3" x2="316.3" y1="193.0" y2="215.1" stroke="#ef4444" stroke-width="1"/><rect x="312.3" y="194.7" width="8.0" height="4.7" fill="#ef4444"/><line x1="335.4" x2="335.4" y1="179.8" y2="200.4" stroke="#22c55e" stroke-width="1"/><rect x="331.4" y="184.8" width="8.0" height="14.5" fill="#22c55e"/><line x1="354.6" x2="354.6" y1="174.4" y2="207.3" stroke="#ef4444" stroke-width="1"/><rect x="350.6" y="184.8" width="8.0" height="10.5" fill="#ef4444"/><line x1="373.8" x2="373.8" y1="180.3" y2="203.9" stroke="#ef4444" stroke-width="1"/><rect x="369.8" y="194.9" width="8.0" height="1.0" fill="#ef4444"/><line x1="392.9" x2="392.9" y1="191.8" y2="218.5" stroke="#ef4444" stroke-width="1"/><rect x="388.9" y="195.2" width="8.0" height="6.0" fill="#ef4444"/><line x1="412.1" x2="412.1" y1="170.9" y2="203.6" stroke="#22c55e" stroke-width="1"/><rect x="408.1" y="182.2" width="8.0" height="19.0" fill="#22c55e"/><line x1="431.3" x2="431.3" y1="163.3" y2="187.1" stroke="#22c55e" stroke-width="1"/><rect x="427.3" y="166.3" width="8.0" height="15.8" fill="#22c55e"/><line x1="450.4" x2="450.4" y1="155.6" y2="193.7" stroke="#ef4444" stroke-width="1"/><rect x="446.4" y="166.5" width="8.0" height="6.7" fill="#ef4444"/><line x1="469.6" x2="469.6" y1="136.7" y2="206.5" stroke="#ef4444" stroke-width="1"/><rect x="465.6" y="173.3" width="8.0" height="6.2" fill="#ef4444"/><line x1="488.8" x2="488.8" y1="172.6" y2="196.3" stroke="#22c55e" stroke-width="1"/><rect x="484.8" y="178.6" width="8.0" height="1.0" fill="#22c55e"/><line x1="507.9" x2="507.9" y1="156.9" y2="186.0" stroke="#22c55e" stroke-width="1"/><rect x="503.9" y="172.4" width="8.0" height="6.1" fill="#22c55e"/><text x="507.9" y="258" fill="#eab308" font-size="12" text-anchor="middle">▲</text><line x1="527.1" x2="527.1" y1="105.9" y2="195.4" stroke="#22c55e" stroke-width="1"/><rect x="523.1" y="107.6" width="8.0" height="64.6" fill="#22c55e"/><text x="527.1" y="258" fill="#eab308" font-size="12" text-anchor="middle">▲</text><line x1="546.3" x2="546.3" y1="73.3" y2="119.0" stroke="#22c55e" stroke-width="1"/><rect x="542.3" y="77.3" width="8.0" height="30.2" fill="#22c55e"/><line x1="565.4" x2="565.4" y1="58.9" y2="99.6" stroke="#22c55e" stroke-width="1"/><rect x="561.4" y="72.2" width="8.0" height="3.6" fill="#22c55e"/><line x1="584.6" x2="584.6" y1="70.6" y2="111.2" stroke="#ef4444" stroke-width="1"/><rect x="580.6" y="72.8" width="8.0" height="29.8" fill="#ef4444"/><line x1="603.8" x2="603.8" y1="85.9" y2="147.8" stroke="#ef4444" stroke-width="1"/><rect x="599.8" y="101.7" width="8.0" height="41.6" fill="#ef4444"/><line x1="622.9" x2="622.9" y1="136.7" y2="195.7" stroke="#ef4444" stroke-width="1"/><rect x="618.9" y="143.3" width="8.0" height="49.6" fill="#ef4444"/><line x1="642.1" x2="642.1" y1="184.1" y2="220.4" stroke="#ef4444" stroke-width="1"/><rect x="638.1" y="194.1" width="8.0" height="16.6" fill="#ef4444"/><line x1="661.3" x2="661.3" y1="206.3" y2="231.7" stroke="#ef4444" stroke-width="1"/><rect x="657.3" y="210.7" width="8.0" height="14.3" fill="#ef4444"/><line x1="680.4" x2="680.4" y1="225.1" y2="231.9" stroke="#ef4444" stroke-width="1"/><rect x="676.4" y="225.1" width="8.0" height="4.7" fill="#ef4444"/><line x1="0" x2="690" y1="159.7" y2="159.7" stroke="#e6edf3" stroke-width="1" stroke-dasharray="5,4" opacity="0.85"/><text x="694" y="162.7" fill="#e6edf3" font-size="10" font-family="monospace">entry 4548.02</text><line x1="0" x2="690" y1="189.9" y2="189.9" stroke="#ef4444" stroke-width="1" stroke-dasharray="5,4" opacity="0.85"/><text x="694" y="192.9" fill="#ef4444" font-size="10" font-family="monospace">SL 4541.15</text></g><g><text x="6" y="284" fill="#8b949e" font-size="11" font-family="monospace">3-min · entry marked</text><line x1="7.8" x2="7.8" y1="459.6" y2="472.0" stroke="#ef4444" stroke-width="1"/><rect x="3.8" y="464.6" width="8.0" height="6.8" fill="#ef4444"/><line x1="23.5" x2="23.5" y1="468.4" y2="478.6" stroke="#ef4444" stroke-width="1"/><rect x="19.5" y="471.6" width="8.0" height="7.1" fill="#ef4444"/><line x1="39.2" x2="39.2" y1="462.3" y2="483.1" stroke="#22c55e" stroke-width="1"/><rect x="35.2" y="462.3" width="8.0" height="16.3" fill="#22c55e"/><line x1="54.9" x2="54.9" y1="456.1" y2="465.2" stroke="#22c55e" stroke-width="1"/><rect x="50.9" y="456.8" width="8.0" height="5.5" fill="#22c55e"/><line x1="70.6" x2="70.6" y1="448.1" y2="456.8" stroke="#22c55e" stroke-width="1"/><rect x="66.6" y="450.9" width="8.0" height="6.0" fill="#22c55e"/><line x1="86.3" x2="86.3" y1="432.7" y2="452.4" stroke="#22c55e" stroke-width="1"/><rect x="82.3" y="434.1" width="8.0" height="16.8" fill="#22c55e"/><line x1="101.9" x2="101.9" y1="426.0" y2="439.6" stroke="#ef4444" stroke-width="1"/><rect x="97.9" y="434.1" width="8.0" height="4.1" fill="#ef4444"/><line x1="117.6" x2="117.6" y1="434.6" y2="442.5" stroke="#ef4444" stroke-width="1"/><rect x="113.6" y="438.1" width="8.0" height="1.4" fill="#ef4444"/><line x1="133.3" x2="133.3" y1="416.8" y2="445.4" stroke="#22c55e" stroke-width="1"/><rect x="129.3" y="424.0" width="8.0" height="15.4" fill="#22c55e"/><line x1="149.0" x2="149.0" y1="421.8" y2="431.1" stroke="#ef4444" stroke-width="1"/><rect x="145.0" y="424.0" width="8.0" height="6.3" fill="#ef4444"/><line x1="164.7" x2="164.7" y1="426.3" y2="439.2" stroke="#22c55e" stroke-width="1"/><rect x="160.7" y="427.6" width="8.0" height="2.7" fill="#22c55e"/><line x1="180.3" x2="180.3" y1="426.4" y2="431.3" stroke="#ef4444" stroke-width="1"/><rect x="176.3" y="427.6" width="8.0" height="1.5" fill="#ef4444"/><line x1="196.0" x2="196.0" y1="420.4" y2="433.8" stroke="#22c55e" stroke-width="1"/><rect x="192.0" y="420.4" width="8.0" height="8.6" fill="#22c55e"/><line x1="211.7" x2="211.7" y1="407.6" y2="434.2" stroke="#ef4444" stroke-width="1"/><rect x="207.7" y="420.7" width="8.0" height="10.8" fill="#ef4444"/><line x1="227.4" x2="227.4" y1="431.6" y2="453.3" stroke="#ef4444" stroke-width="1"/><rect x="223.4" y="431.6" width="8.0" height="10.8" fill="#ef4444"/><line x1="243.1" x2="243.1" y1="436.0" y2="452.5" stroke="#ef4444" stroke-width="1"/><rect x="239.1" y="441.0" width="8.0" height="3.7" fill="#ef4444"/><line x1="258.8" x2="258.8" y1="425.4" y2="446.1" stroke="#22c55e" stroke-width="1"/><rect x="254.8" y="432.5" width="8.0" height="12.2" fill="#22c55e"/><line x1="274.4" x2="274.4" y1="426.2" y2="435.8" stroke="#22c55e" stroke-width="1"/><rect x="270.4" y="428.8" width="8.0" height="3.4" fill="#22c55e"/><line x1="290.1" x2="290.1" y1="384.9" y2="428.8" stroke="#22c55e" stroke-width="1"/><rect x="286.1" y="404.3" width="8.0" height="24.5" fill="#22c55e"/><line x1="305.8" x2="305.8" y1="404.2" y2="454.1" stroke="#ef4444" stroke-width="1"/><rect x="301.8" y="404.2" width="8.0" height="31.9" fill="#ef4444"/><line x1="321.5" x2="321.5" y1="433.5" y2="453.7" stroke="#ef4444" stroke-width="1"/><rect x="317.5" y="435.9" width="8.0" height="17.1" fill="#ef4444"/><line x1="337.2" x2="337.2" y1="445.8" y2="466.4" stroke="#ef4444" stroke-width="1"/><rect x="333.2" y="452.7" width="8.0" height="12.2" fill="#ef4444"/><line x1="352.8" x2="352.8" y1="428.1" y2="468.6" stroke="#22c55e" stroke-width="1"/><rect x="348.8" y="436.2" width="8.0" height="29.7" fill="#22c55e"/><line x1="368.5" x2="368.5" y1="431.5" y2="456.5" stroke="#ef4444" stroke-width="1"/><rect x="364.5" y="435.9" width="8.0" height="17.8" fill="#ef4444"/><line x1="384.2" x2="384.2" y1="427.9" y2="454.9" stroke="#22c55e" stroke-width="1"/><rect x="380.2" y="432.1" width="8.0" height="21.6" fill="#22c55e"/><line x1="399.9" x2="399.9" y1="432.0" y2="442.0" stroke="#ef4444" stroke-width="1"/><rect x="395.9" y="432.0" width="8.0" height="3.4" fill="#ef4444"/><line x1="415.6" x2="415.6" y1="434.5" y2="447.1" stroke="#ef4444" stroke-width="1"/><rect x="411.6" y="435.4" width="8.0" height="7.8" fill="#ef4444"/><line x1="431.2" x2="431.2" y1="434.0" y2="444.9" stroke="#22c55e" stroke-width="1"/><rect x="427.2" y="435.1" width="8.0" height="8.1" fill="#22c55e"/><line x1="446.9" x2="446.9" y1="428.6" y2="444.1" stroke="#ef4444" stroke-width="1"/><rect x="442.9" y="435.1" width="8.0" height="4.0" fill="#ef4444"/><line x1="462.6" x2="462.6" y1="429.6" y2="443.0" stroke="#22c55e" stroke-width="1"/><rect x="458.6" y="433.4" width="8.0" height="5.6" fill="#22c55e"/><line x1="478.3" x2="478.3" y1="409.2" y2="436.0" stroke="#22c55e" stroke-width="1"/><rect x="474.3" y="414.1" width="8.0" height="19.3" fill="#22c55e"/><text x="478.3" y="500" fill="#eab308" font-size="12" text-anchor="middle">▲</text><line x1="494.0" x2="494.0" y1="411.2" y2="422.8" stroke="#ef4444" stroke-width="1"/><rect x="490.0" y="414.4" width="8.0" height="7.0" fill="#ef4444"/><line x1="509.7" x2="509.7" y1="420.4" y2="429.1" stroke="#ef4444" stroke-width="1"/><rect x="505.7" y="421.4" width="8.0" height="6.3" fill="#ef4444"/><line x1="525.3" x2="525.3" y1="405.6" y2="455.4" stroke="#22c55e" stroke-width="1"/><rect x="521.3" y="414.9" width="8.0" height="12.6" fill="#22c55e"/><line x1="541.0" x2="541.0" y1="413.0" y2="441.8" stroke="#ef4444" stroke-width="1"/><rect x="537.0" y="415.8" width="8.0" height="22.3" fill="#ef4444"/><line x1="556.7" x2="556.7" y1="412.8" y2="448.9" stroke="#22c55e" stroke-width="1"/><rect x="552.7" y="412.8" width="8.0" height="25.6" fill="#22c55e"/><line x1="572.4" x2="572.4" y1="348.0" y2="412.8" stroke="#22c55e" stroke-width="1"/><rect x="568.4" y="351.5" width="8.0" height="61.2" fill="#22c55e"/><line x1="588.1" x2="588.1" y1="349.2" y2="377.9" stroke="#22c55e" stroke-width="1"/><rect x="584.1" y="350.0" width="8.0" height="1.4" fill="#22c55e"/><line x1="603.8" x2="603.8" y1="342.2" y2="354.1" stroke="#22c55e" stroke-width="1"/><rect x="599.8" y="348.0" width="8.0" height="1.9" fill="#22c55e"/><line x1="619.4" x2="619.4" y1="344.6" y2="363.6" stroke="#ef4444" stroke-width="1"/><rect x="615.4" y="347.6" width="8.0" height="8.2" fill="#ef4444"/><line x1="635.1" x2="635.1" y1="308.8" y2="357.6" stroke="#22c55e" stroke-width="1"/><rect x="631.1" y="327.2" width="8.0" height="28.6" fill="#22c55e"/><line x1="650.8" x2="650.8" y1="320.6" y2="346.6" stroke="#ef4444" stroke-width="1"/><rect x="646.8" y="327.3" width="8.0" height="3.5" fill="#ef4444"/><line x1="666.5" x2="666.5" y1="309.1" y2="332.4" stroke="#22c55e" stroke-width="1"/><rect x="662.5" y="313.6" width="8.0" height="17.7" fill="#22c55e"/><line x1="682.2" x2="682.2" y1="300.9" y2="328.7" stroke="#22c55e" stroke-width="1"/><rect x="678.2" y="306.8" width="8.0" height="5.1" fill="#22c55e"/><line x1="0" x2="690" y1="412.5" y2="412.5" stroke="#e6edf3" stroke-width="1" stroke-dasharray="5,4" opacity="0.85"/><text x="694" y="415.5" fill="#e6edf3" font-size="10" font-family="monospace">entry 4548.02</text><line x1="0" x2="690" y1="448.7" y2="448.7" stroke="#ef4444" stroke-width="1" stroke-dasharray="5,4" opacity="0.85"/><text x="694" y="451.7" fill="#ef4444" font-size="10" font-family="monospace">SL 4541.15</text></g></svg>