<svg xmlns="http://www.w3.org/2000/svg" width="760" height="514" viewBox="0 0 760 514"><rect width="760" height="514" fill="#0d1117"/><text x="6" y="18" fill="#e6edf3" font-size="12" font-family="monospace">#13 · Thu 2026-04-16 06:33 PT · NY · sweep arm · LONG @4821.19 SL 4812.55 → -1.006R</text><g><text x="6" y="42" fill="#8b949e" font-size="11" font-family="monospace">15-min · entry marked</text><line x1="8.6" x2="8.6" y1="72.2" y2="86.1" stroke="#ef4444" stroke-width="1"/><rect x="4.6" y="80.3" width="8.0" height="4.1" fill="#ef4444"/><line x1="25.9" x2="25.9" y1="76.1" y2="110.1" stroke="#ef4444" stroke-width="1"/><rect x="21.9" y="84.5" width="8.0" height="20.5" fill="#ef4444"/><line x1="43.1" x2="43.1" y1="77.2" y2="108.8" stroke="#22c55e" stroke-width="1"/><rect x="39.1" y="80.0" width="8.0" height="24.2" fill="#22c55e"/><line x1="60.4" x2="60.4" y1="60.0" y2="85.4" stroke="#22c55e" stroke-width="1"/><rect x="56.4" y="74.2" width="8.0" height="6.1" fill="#22c55e"/><line x1="77.6" x2="77.6" y1="58.9" y2="82.7" stroke="#ef4444" stroke-width="1"/><rect x="73.6" y="74.1" width="8.0" height="3.5" fill="#ef4444"/><line x1="94.9" x2="94.9" y1="62.8" y2="101.8" stroke="#22c55e" stroke-width="1"/><rect x="90.9" y="67.5" width="8.0" height="9.9" fill="#22c55e"/><line x1="112.1" x2="112.1" y1="61.2" y2="79.4" stroke="#ef4444" stroke-width="1"/><rect x="108.1" y="67.6" width="8.0" height="2.1" fill="#ef4444"/><line x1="129.4" x2="129.4" y1="67.7" y2="95.5" stroke="#ef4444" stroke-width="1"/><rect x="125.4" y="69.6" width="8.0" height="20.5" fill="#ef4444"/><line x1="146.6" x2="146.6" y1="87.4" y2="132.6" stroke="#ef4444" stroke-width="1"/><rect x="142.6" y="89.9" width="8.0" height="28.5" fill="#ef4444"/><line x1="163.9" x2="163.9" y1="109.3" y2="125.6" stroke="#ef4444" stroke-width="1"/><rect x="159.9" y="118.5" width="8.0" height="2.1" fill="#ef4444"/><line x1="181.1" x2="181.1" y1="113.3" y2="134.9" stroke="#22c55e" stroke-width="1"/><rect x="177.1" y="118.0" width="8.0" height="2.7" fill="#22c55e"/><line x1="198.4" x2="198.4" y1="109.6" y2="128.6" stroke="#22c55e" stroke-width="1"/><rect x="194.4" y="112.7" width="8.0" height="5.3" fill="#22c55e"/><line x1="215.6" x2="215.6" y1="99.2" y2="118.8" stroke="#22c55e" stroke-width="1"/><rect x="211.6" y="105.1" width="8.0" height="7.8" fill="#22c55e"/><line x1="232.9" x2="232.9" y1="102.4" y2="120.2" stroke="#ef4444" stroke-width="1"/><rect x="228.9" y="105.1" width="8.0" height="9.6" fill="#ef4444"/><line x1="250.1" x2="250.1" y1="108.6" y2="134.1" stroke="#22c55e" stroke-width="1"/><rect x="246.1" y="109.8" width="8.0" height="4.9" fill="#22c55e"/><line x1="267.4" x2="267.4" y1="107.9" y2="124.2" stroke="#ef4444" stroke-width="1"/><rect x="263.4" y="109.8" width="8.0" height="5.7" fill="#ef4444"/><line x1="284.6" x2="284.6" y1="107.1" y2="134.0" stroke="#ef4444" stroke-width="1"/><rect x="280.6" y="115.5" width="8.0" height="18.0" fill="#ef4444"/><line x1="301.9" x2="301.9" y1="123.8" y2="139.3" stroke="#22c55e" stroke-width="1"/><rect x="297.9" y="133.7" width="8.0" height="1.0" fill="#22c55e"/><line x1="319.1" x2="319.1" y1="117.7" y2="139.4" stroke="#22c55e" stroke-width="1"/><rect x="315.1" y="129.5" width="8.0" height="4.3" fill="#22c55e"/><line x1="336.4" x2="336.4" y1="101.8" y2="135.0" stroke="#22c55e" stroke-width="1"/><rect x="332.4" y="101.9" width="8.0" height="27.6" fill="#22c55e"/><line x1="353.6" x2="353.6" y1="91.1" y2="104.5" stroke="#22c55e" stroke-width="1"/><rect x="349.6" y="100.6" width="8.0" height="1.3" fill="#22c55e"/><line x1="370.9" x2="370.9" y1="92.9" y2="107.3" stroke="#ef4444" stroke-width="1"/><rect x="366.9" y="100.6" width="8.0" height="4.6" fill="#ef4444"/><line x1="388.1" x2="388.1" y1="93.5" y2="106.3" stroke="#22c55e" stroke-width="1"/><rect x="384.1" y="99.9" width="8.0" height="5.2" fill="#22c55e"/><line x1="405.4" x2="405.4" y1="85.1" y2="105.4" stroke="#22c55e" stroke-width="1"/><rect x="401.4" y="86.2" width="8.0" height="13.7" fill="#22c55e"/><line x1="422.6" x2="422.6" y1="83.1" y2="118.9" stroke="#ef4444" stroke-width="1"/><rect x="418.6" y="85.5" width="8.0" height="15.6" fill="#ef4444"/><line x1="439.9" x2="439.9" y1="97.7" y2="112.2" stroke="#ef4444" stroke-width="1"/><rect x="435.9" y="101.0" width="8.0" height="7.4" fill="#ef4444"/><line x1="457.1" x2="457.1" y1="90.6" y2="118.0" stroke="#22c55e" stroke-width="1"/><rect x="453.1" y="102.3" width="8.0" height="5.7" fill="#22c55e"/><line x1="474.4" x2="474.4" y1="95.9" y2="112.4" stroke="#ef4444" stroke-width="1"/><rect x="470.4" y="102.4" width="8.0" height="2.9" fill="#ef4444"/><line x1="491.6" x2="491.6" y1="83.9" y2="111.6" stroke="#22c55e" stroke-width="1"/><rect x="487.6" y="101.3" width="8.0" height="4.1" fill="#22c55e"/><line x1="508.9" x2="508.9" y1="89.2" y2="108.5" stroke="#ef4444" stroke-width="1"/><rect x="504.9" y="101.8" width="8.0" height="4.9" fill="#ef4444"/><line x1="526.1" x2="526.1" y1="81.3" y2="115.6" stroke="#22c55e" stroke-width="1"/><rect x="522.1" y="104.9" width="8.0" height="1.8" fill="#22c55e"/><text x="526.1" y="258" fill="#eab308" font-size="12" text-anchor="middle">▲</text><line x1="543.4" x2="543.4" y1="94.5" y2="201.3" stroke="#ef4444" stroke-width="1"/><rect x="539.4" y="104.8" width="8.0" height="66.9" fill="#ef4444"/><text x="543.4" y="258" fill="#eab308" font-size="12" text-anchor="middle">▲</text><line x1="560.6" x2="560.6" y1="138.8" y2="201.5" stroke="#22c55e" stroke-width="1"/><rect x="556.6" y="153.8" width="8.0" height="19.1" fill="#22c55e"/><line x1="577.9" x2="577.9" y1="146.1" y2="183.8" stroke="#ef4444" stroke-width="1"/><rect x="573.9" y="153.2" width="8.0" height="4.6" fill="#ef4444"/><line x1="595.1" x2="595.1" y1="153.5" y2="241.1" stroke="#ef4444" stroke-width="1"/><rect x="591.1" y="157.7" width="8.0" height="36.4" fill="#ef4444"/><line x1="612.4" x2="612.4" y1="176.0" y2="200.5" stroke="#22c55e" stroke-width="1"/><rect x="608.4" y="191.0" width="8.0" height="2.7" fill="#22c55e"/><line x1="629.6" x2="629.6" y1="115.3" y2="192.3" stroke="#22c55e" stroke-width="1"/><rect x="625.6" y="134.7" width="8.0" height="56.3" fill="#22c55e"/><line x1="646.9" x2="646.9" y1="125.8" y2="149.1" stroke="#ef4444" stroke-width="1"/><rect x="642.9" y="134.7" width="8.0" height="14.4" fill="#ef4444"/><line x1="664.1" x2="664.1" y1="121.4" y2="161.0" stroke="#22c55e" stroke-width="1"/><rect x="660.1" y="146.4" width="8.0" height="3.9" fill="#22c55e"/><line x1="681.4" x2="681.4" y1="138.1" y2="148.5" stroke="#22c55e" stroke-width="1"/><rect x="677.4" y="138.1" width="8.0" height="8.2" fill="#22c55e"/><line x1="0" x2="690" y1="89.5" y2="89.5" stroke="#e6edf3" stroke-width="1" stroke-dasharray="5,4" opacity="0.85"/><text x="694" y="92.5" fill="#e6edf3" font-size="10" font-family="monospace">entry 4821.19</text><line x1="0" x2="690" y1="116.5" y2="116.5" stroke="#ef4444" stroke-width="1" stroke-dasharray="5,4" opacity="0.85"/><text x="694" y="119.5" fill="#ef4444" font-size="10" font-family="monospace">SL 4812.55</text></g><g><text x="6" y="284" fill="#8b949e" font-size="11" font-family="monospace">3-min · entry marked</text><line x1="7.7" x2="7.7" y1="306.3" y2="322.8" stroke="#ef4444" stroke-width="1"/><rect x="3.7" y="307.5" width="8.0" height="13.2" fill="#ef4444"/><line x1="23.0" x2="23.0" y1="313.7" y2="335.2" stroke="#ef4444" stroke-width="1"/><rect x="19.0" y="320.7" width="8.0" height="4.3" fill="#ef4444"/><line x1="38.3" x2="38.3" y1="324.7" y2="353.1" stroke="#ef4444" stroke-width="1"/><rect x="34.3" y="324.9" width="8.0" height="21.5" fill="#ef4444"/><line x1="53.7" x2="53.7" y1="330.5" y2="357.9" stroke="#22c55e" stroke-width="1"/><rect x="49.7" y="330.8" width="8.0" height="15.6" fill="#22c55e"/><line x1="69.0" x2="69.0" y1="325.7" y2="338.8" stroke="#ef4444" stroke-width="1"/><rect x="65.0" y="330.8" width="8.0" height="3.1" fill="#ef4444"/><line x1="84.3" x2="84.3" y1="325.7" y2="346.0" stroke="#ef4444" stroke-width="1"/><rect x="80.3" y="334.1" width="8.0" height="10.5" fill="#ef4444"/><line x1="99.7" x2="99.7" y1="333.2" y2="345.6" stroke="#22c55e" stroke-width="1"/><rect x="95.7" y="339.1" width="8.0" height="5.5" fill="#22c55e"/><line x1="115.0" x2="115.0" y1="327.0" y2="341.0" stroke="#22c55e" stroke-width="1"/><rect x="111.0" y="331.8" width="8.0" height="7.3" fill="#22c55e"/><line x1="130.3" x2="130.3" y1="331.6" y2="347.6" stroke="#ef4444" stroke-width="1"/><rect x="126.3" y="331.9" width="8.0" height="10.1" fill="#ef4444"/><line x1="145.7" x2="145.7" y1="335.1" y2="356.5" stroke="#22c55e" stroke-width="1"/><rect x="141.7" y="337.1" width="8.0" height="4.2" fill="#22c55e"/><line x1="161.0" x2="161.0" y1="315.0" y2="338.3" stroke="#22c55e" stroke-width="1"/><rect x="157.0" y="316.1" width="8.0" height="21.1" fill="#22c55e"/><line x1="176.3" x2="176.3" y1="316.2" y2="350.0" stroke="#ef4444" stroke-width="1"/><rect x="172.3" y="316.2" width="8.0" height="33.5" fill="#ef4444"/><line x1="191.7" x2="191.7" y1="336.8" y2="349.2" stroke="#22c55e" stroke-width="1"/><rect x="187.7" y="348.6" width="8.0" height="1.0" fill="#22c55e"/><line x1="207.0" x2="207.0" y1="332.6" y2="348.1" stroke="#22c55e" stroke-width="1"/><rect x="203.0" y="332.6" width="8.0" height="15.4" fill="#22c55e"/><line x1="222.3" x2="222.3" y1="329.4" y2="336.1" stroke="#ef4444" stroke-width="1"/><rect x="218.3" y="332.9" width="8.0" height="1.8" fill="#ef4444"/><line x1="237.7" x2="237.7" y1="332.0" y2="348.1" stroke="#22c55e" stroke-width="1"/><rect x="233.7" y="334.2" width="8.0" height="1.0" fill="#22c55e"/><line x1="253.0" x2="253.0" y1="330.8" y2="343.2" stroke="#ef4444" stroke-width="1"/><rect x="249.0" y="333.9" width="8.0" height="6.1" fill="#ef4444"/><line x1="268.3" x2="268.3" y1="323.0" y2="344.1" stroke="#22c55e" stroke-width="1"/><rect x="264.3" y="330.4" width="8.0" height="9.6" fill="#22c55e"/><line x1="283.7" x2="283.7" y1="324.3" y2="337.4" stroke="#ef4444" stroke-width="1"/><rect x="279.7" y="330.4" width="8.0" height="7.0" fill="#ef4444"/><line x1="299.0" x2="299.0" y1="304.8" y2="337.3" stroke="#22c55e" stroke-width="1"/><rect x="295.0" y="307.7" width="8.0" height="29.7" fill="#22c55e"/><line x1="314.3" x2="314.3" y1="306.1" y2="324.2" stroke="#ef4444" stroke-width="1"/><rect x="310.3" y="307.5" width="8.0" height="9.7" fill="#ef4444"/><line x1="329.7" x2="329.7" y1="309.5" y2="343.3" stroke="#ef4444" stroke-width="1"/><rect x="325.7" y="317.1" width="8.0" height="22.6" fill="#ef4444"/><line x1="345.0" x2="345.0" y1="332.0" y2="346.8" stroke="#22c55e" stroke-width="1"/><rect x="341.0" y="333.5" width="8.0" height="6.1" fill="#22c55e"/><line x1="360.3" x2="360.3" y1="323.4" y2="336.6" stroke="#22c55e" stroke-width="1"/><rect x="356.3" y="331.2" width="8.0" height="2.5" fill="#22c55e"/><line x1="375.7" x2="375.7" y1="319.4" y2="335.3" stroke="#22c55e" stroke-width="1"/><rect x="371.7" y="331.7" width="8.0" height="1.0" fill="#22c55e"/><line x1="391.0" x2="391.0" y1="312.9" y2="334.2" stroke="#22c55e" stroke-width="1"/><rect x="387.0" y="321.5" width="8.0" height="10.3" fill="#22c55e"/><line x1="406.3" x2="406.3" y1="322.0" y2="338.2" stroke="#ef4444" stroke-width="1"/><rect x="402.3" y="322.4" width="8.0" height="12.3" fill="#ef4444"/><line x1="421.7" x2="421.7" y1="324.9" y2="336.8" stroke="#22c55e" stroke-width="1"/><rect x="417.7" y="326.0" width="8.0" height="8.5" fill="#22c55e"/><line x1="437.0" x2="437.0" y1="323.8" y2="342.1" stroke="#ef4444" stroke-width="1"/><rect x="433.0" y="325.9" width="8.0" height="13.5" fill="#ef4444"/><line x1="452.3" x2="452.3" y1="330.8" y2="352.8" stroke="#ef4444" stroke-width="1"/><rect x="448.3" y="339.4" width="8.0" height="5.3" fill="#ef4444"/><line x1="467.7" x2="467.7" y1="300.9" y2="344.1" stroke="#22c55e" stroke-width="1"/><rect x="463.7" y="314.8" width="8.0" height="27.9" fill="#22c55e"/><text x="467.7" y="500" fill="#eab308" font-size="12" text-anchor="middle">▲</text><line x1="483.0" x2="483.0" y1="312.4" y2="331.8" stroke="#ef4444" stroke-width="1"/><rect x="479.0" y="314.7" width="8.0" height="1.8" fill="#ef4444"/><line x1="498.3" x2="498.3" y1="302.0" y2="345.0" stroke="#ef4444" stroke-width="1"/><rect x="494.3" y="316.2" width="8.0" height="23.4" fill="#ef4444"/><line x1="513.7" x2="513.7" y1="330.1" y2="350.6" stroke="#22c55e" stroke-width="1"/><rect x="509.7" y="336.7" width="8.0" height="1.0" fill="#22c55e"/><line x1="529.0" x2="529.0" y1="320.9" y2="359.5" stroke="#ef4444" stroke-width="1"/><rect x="525.0" y="336.6" width="8.0" height="19.2" fill="#ef4444"/><line x1="544.3" x2="544.3" y1="339.9" y2="368.0" stroke="#ef4444" stroke-width="1"/><rect x="540.3" y="356.6" width="8.0" height="2.8" fill="#ef4444"/><line x1="559.7" x2="559.7" y1="356.3" y2="439.3" stroke="#ef4444" stroke-width="1"/><rect x="555.7" y="359.5" width="8.0" height="67.4" fill="#ef4444"/><line x1="575.0" x2="575.0" y1="420.6" y2="482.7" stroke="#ef4444" stroke-width="1"/><rect x="571.0" y="426.9" width="8.0" height="20.4" fill="#ef4444"/><line x1="590.3" x2="590.3" y1="434.8" y2="460.7" stroke="#22c55e" stroke-width="1"/><rect x="586.3" y="438.0" width="8.0" height="9.3" fill="#22c55e"/><line x1="605.7" x2="605.7" y1="422.7" y2="449.0" stroke="#ef4444" stroke-width="1"/><rect x="601.7" y="439.6" width="8.0" height="3.4" fill="#ef4444"/><line x1="621.0" x2="621.0" y1="434.0" y2="483.1" stroke="#ef4444" stroke-width="1"/><rect x="617.0" y="443.2" width="8.0" height="24.5" fill="#ef4444"/><line x1="636.3" x2="636.3" y1="413.0" y2="480.5" stroke="#22c55e" stroke-width="1"/><rect x="632.3" y="413.0" width="8.0" height="55.4" fill="#22c55e"/><line x1="651.7" x2="651.7" y1="388.0" y2="424.2" stroke="#22c55e" stroke-width="1"/><rect x="647.7" y="404.5" width="8.0" height="8.6" fill="#22c55e"/><line x1="667.0" x2="667.0" y1="388.3" y2="418.5" stroke="#ef4444" stroke-width="1"/><rect x="663.0" y="404.6" width="8.0" height="6.1" fill="#ef4444"/><line x1="682.3" x2="682.3" y1="399.1" y2="413.4" stroke="#ef4444" stroke-width="1"/><rect x="678.3" y="409.8" width="8.0" height="1.2" fill="#ef4444"/><line x1="0" x2="690" y1="313.3" y2="313.3" stroke="#e6edf3" stroke-width="1" stroke-dasharray="5,4" opacity="0.85"/><text x="694" y="316.3" fill="#e6edf3" font-size="10" font-family="monospace">entry 4821.19</text><line x1="0" x2="690" y1="354.2" y2="354.2" stroke="#ef4444" stroke-width="1" stroke-dasharray="5,4" opacity="0.85"/><text x="694" y="357.2" fill="#ef4444" font-size="10" font-family="monospace">SL 4812.55</text></g></svg>