<svg xmlns="http://www.w3.org/2000/svg" width="760" height="514" viewBox="0 0 760 514"><rect width="760" height="514" fill="#0d1117"/><text x="6" y="18" fill="#e6edf3" font-size="12" font-family="monospace">#21 · Fri 2026-04-24 08:21 PT · NY · retrace arm · LONG @4725.74 SL 4719.49 → -1.008R</text><g><text x="6" y="42" fill="#8b949e" font-size="11" font-family="monospace">15-min · entry marked</text><line x1="8.8" x2="8.8" y1="184.0" y2="198.6" stroke="#22c55e" stroke-width="1"/><rect x="4.8" y="186.1" width="8.0" height="7.1" fill="#22c55e"/><line x1="26.5" x2="26.5" y1="186.0" y2="208.6" stroke="#ef4444" stroke-width="1"/><rect x="22.5" y="186.1" width="8.0" height="19.7" fill="#ef4444"/><line x1="44.2" x2="44.2" y1="178.2" y2="207.8" stroke="#22c55e" stroke-width="1"/><rect x="40.2" y="204.8" width="8.0" height="1.0" fill="#22c55e"/><line x1="61.9" x2="61.9" y1="198.3" y2="212.4" stroke="#22c55e" stroke-width="1"/><rect x="57.9" y="203.9" width="8.0" height="1.0" fill="#22c55e"/><line x1="79.6" x2="79.6" y1="190.8" y2="205.2" stroke="#22c55e" stroke-width="1"/><rect x="75.6" y="196.4" width="8.0" height="7.7" fill="#22c55e"/><line x1="97.3" x2="97.3" y1="183.3" y2="199.4" stroke="#22c55e" stroke-width="1"/><rect x="93.3" y="184.0" width="8.0" height="12.0" fill="#22c55e"/><line x1="115.0" x2="115.0" y1="180.3" y2="220.2" stroke="#ef4444" stroke-width="1"/><rect x="111.0" y="184.0" width="8.0" height="33.3" fill="#ef4444"/><line x1="132.7" x2="132.7" y1="202.7" y2="228.2" stroke="#22c55e" stroke-width="1"/><rect x="128.7" y="209.9" width="8.0" height="7.6" fill="#22c55e"/><line x1="150.4" x2="150.4" y1="208.3" y2="228.4" stroke="#ef4444" stroke-width="1"/><rect x="146.4" y="209.9" width="8.0" height="10.9" fill="#ef4444"/><line x1="168.1" x2="168.1" y1="213.7" y2="223.7" stroke="#22c55e" stroke-width="1"/><rect x="164.1" y="219.7" width="8.0" height="1.1" fill="#22c55e"/><line x1="185.8" x2="185.8" y1="209.1" y2="225.4" stroke="#ef4444" stroke-width="1"/><rect x="181.8" y="219.7" width="8.0" height="1.0" fill="#ef4444"/><line x1="203.5" x2="203.5" y1="219.8" y2="241.1" stroke="#ef4444" stroke-width="1"/><rect x="199.5" y="220.2" width="8.0" height="9.0" fill="#ef4444"/><line x1="221.2" x2="221.2" y1="224.2" y2="235.8" stroke="#ef4444" stroke-width="1"/><rect x="217.2" y="229.3" width="8.0" height="2.5" fill="#ef4444"/><line x1="238.8" x2="238.8" y1="162.3" y2="232.4" stroke="#22c55e" stroke-width="1"/><rect x="234.8" y="180.0" width="8.0" height="52.4" fill="#22c55e"/><line x1="256.5" x2="256.5" y1="123.8" y2="191.7" stroke="#22c55e" stroke-width="1"/><rect x="252.5" y="128.7" width="8.0" height="50.1" fill="#22c55e"/><line x1="274.2" x2="274.2" y1="123.6" y2="157.0" stroke="#ef4444" stroke-width="1"/><rect x="270.2" y="128.7" width="8.0" height="27.4" fill="#ef4444"/><line x1="291.9" x2="291.9" y1="148.2" y2="163.1" stroke="#22c55e" stroke-width="1"/><rect x="287.9" y="152.3" width="8.0" height="3.8" fill="#22c55e"/><line x1="309.6" x2="309.6" y1="142.5" y2="162.0" stroke="#22c55e" stroke-width="1"/><rect x="305.6" y="147.0" width="8.0" height="5.2" fill="#22c55e"/><line x1="327.3" x2="327.3" y1="138.2" y2="166.4" stroke="#22c55e" stroke-width="1"/><rect x="323.3" y="141.6" width="8.0" height="5.3" fill="#22c55e"/><line x1="345.0" x2="345.0" y1="138.7" y2="174.5" stroke="#ef4444" stroke-width="1"/><rect x="341.0" y="142.6" width="8.0" height="31.7" fill="#ef4444"/><line x1="362.7" x2="362.7" y1="168.1" y2="197.5" stroke="#22c55e" stroke-width="1"/><rect x="358.7" y="169.2" width="8.0" height="4.9" fill="#22c55e"/><line x1="380.4" x2="380.4" y1="155.4" y2="182.0" stroke="#22c55e" stroke-width="1"/><rect x="376.4" y="162.8" width="8.0" height="6.4" fill="#22c55e"/><line x1="398.1" x2="398.1" y1="157.0" y2="188.9" stroke="#ef4444" stroke-width="1"/><rect x="394.1" y="162.6" width="8.0" height="16.4" fill="#ef4444"/><line x1="415.8" x2="415.8" y1="143.9" y2="199.5" stroke="#22c55e" stroke-width="1"/><rect x="411.8" y="148.3" width="8.0" height="30.7" fill="#22c55e"/><line x1="433.5" x2="433.5" y1="123.6" y2="158.0" stroke="#22c55e" stroke-width="1"/><rect x="429.5" y="140.0" width="8.0" height="8.0" fill="#22c55e"/><line x1="451.2" x2="451.2" y1="58.9" y2="151.8" stroke="#22c55e" stroke-width="1"/><rect x="447.2" y="82.6" width="8.0" height="56.0" fill="#22c55e"/><line x1="468.8" x2="468.8" y1="76.8" y2="111.2" stroke="#ef4444" stroke-width="1"/><rect x="464.8" y="83.0" width="8.0" height="17.6" fill="#ef4444"/><line x1="486.5" x2="486.5" y1="80.1" y2="105.5" stroke="#22c55e" stroke-width="1"/><rect x="482.5" y="86.9" width="8.0" height="13.3" fill="#22c55e"/><line x1="504.2" x2="504.2" y1="84.5" y2="104.3" stroke="#ef4444" stroke-width="1"/><rect x="500.2" y="86.7" width="8.0" height="11.2" fill="#ef4444"/><line x1="521.9" x2="521.9" y1="95.9" y2="119.5" stroke="#ef4444" stroke-width="1"/><rect x="517.9" y="98.0" width="8.0" height="12.2" fill="#ef4444"/><line x1="539.6" x2="539.6" y1="98.0" y2="119.4" stroke="#ef4444" stroke-width="1"/><rect x="535.6" y="110.1" width="8.0" height="1.0" fill="#ef4444"/><text x="539.6" y="258" fill="#eab308" font-size="12" text-anchor="middle">▲</text><line x1="557.3" x2="557.3" y1="89.7" y2="129.7" stroke="#22c55e" stroke-width="1"/><rect x="553.3" y="93.2" width="8.0" height="17.2" fill="#22c55e"/><text x="557.3" y="258" fill="#eab308" font-size="12" text-anchor="middle">▲</text><line x1="575.0" x2="575.0" y1="78.6" y2="104.4" stroke="#ef4444" stroke-width="1"/><rect x="571.0" y="93.5" width="8.0" height="2.2" fill="#ef4444"/><line x1="592.7" x2="592.7" y1="89.1" y2="114.3" stroke="#ef4444" stroke-width="1"/><rect x="588.7" y="95.8" width="8.0" height="18.1" fill="#ef4444"/><line x1="610.4" x2="610.4" y1="99.4" y2="117.7" stroke="#22c55e" stroke-width="1"/><rect x="606.4" y="106.5" width="8.0" height="7.3" fill="#22c55e"/><line x1="628.1" x2="628.1" y1="95.7" y2="117.4" stroke="#ef4444" stroke-width="1"/><rect x="624.1" y="106.5" width="8.0" height="2.1" fill="#ef4444"/><line x1="645.8" x2="645.8" y1="94.4" y2="114.6" stroke="#22c55e" stroke-width="1"/><rect x="641.8" y="96.7" width="8.0" height="11.7" fill="#22c55e"/><line x1="663.5" x2="663.5" y1="88.1" y2="99.7" stroke="#22c55e" stroke-width="1"/><rect x="659.5" y="94.1" width="8.0" height="2.7" fill="#22c55e"/><line x1="681.2" x2="681.2" y1="89.9" y2="106.9" stroke="#ef4444" stroke-width="1"/><rect x="677.2" y="94.0" width="8.0" height="3.2" fill="#ef4444"/><line x1="0" x2="690" y1="99.8" y2="99.8" stroke="#e6edf3" stroke-width="1" stroke-dasharray="5,4" opacity="0.85"/><text x="694" y="102.8" fill="#e6edf3" font-size="10" font-family="monospace">entry 4725.74</text><line x1="0" x2="690" y1="117.1" y2="117.1" stroke="#ef4444" stroke-width="1" stroke-dasharray="5,4" opacity="0.85"/><text x="694" y="120.1" fill="#ef4444" font-size="10" font-family="monospace">SL 4719.49</text></g><g><text x="6" y="284" fill="#8b949e" font-size="11" font-family="monospace">3-min · entry marked</text><line x1="8.2" x2="8.2" y1="454.4" y2="474.2" stroke="#ef4444" stroke-width="1"/><rect x="4.2" y="455.2" width="8.0" height="11.0" fill="#ef4444"/><line x1="24.6" x2="24.6" y1="464.0" y2="483.1" stroke="#ef4444" stroke-width="1"/><rect x="20.6" y="464.7" width="8.0" height="6.7" fill="#ef4444"/><line x1="41.1" x2="41.1" y1="441.3" y2="472.3" stroke="#22c55e" stroke-width="1"/><rect x="37.1" y="450.0" width="8.0" height="21.6" fill="#22c55e"/><line x1="57.5" x2="57.5" y1="428.1" y2="460.1" stroke="#ef4444" stroke-width="1"/><rect x="53.5" y="447.2" width="8.0" height="3.4" fill="#ef4444"/><line x1="73.9" x2="73.9" y1="371.7" y2="471.6" stroke="#22c55e" stroke-width="1"/><rect x="69.9" y="388.6" width="8.0" height="61.3" fill="#22c55e"/><line x1="90.4" x2="90.4" y1="370.0" y2="416.3" stroke="#22c55e" stroke-width="1"/><rect x="86.4" y="380.6" width="8.0" height="6.0" fill="#22c55e"/><line x1="106.8" x2="106.8" y1="339.2" y2="380.5" stroke="#22c55e" stroke-width="1"/><rect x="102.8" y="342.6" width="8.0" height="37.9" fill="#22c55e"/><line x1="123.2" x2="123.2" y1="300.9" y2="349.8" stroke="#ef4444" stroke-width="1"/><rect x="119.2" y="341.6" width="8.0" height="2.8" fill="#ef4444"/><line x1="139.6" x2="139.6" y1="335.4" y2="368.6" stroke="#ef4444" stroke-width="1"/><rect x="135.6" y="345.2" width="8.0" height="6.3" fill="#ef4444"/><line x1="156.1" x2="156.1" y1="333.8" y2="358.7" stroke="#22c55e" stroke-width="1"/><rect x="152.1" y="344.8" width="8.0" height="7.2" fill="#22c55e"/><line x1="172.5" x2="172.5" y1="343.4" y2="370.8" stroke="#ef4444" stroke-width="1"/><rect x="168.5" y="346.7" width="8.0" height="17.5" fill="#ef4444"/><line x1="188.9" x2="188.9" y1="359.9" y2="393.0" stroke="#ef4444" stroke-width="1"/><rect x="184.9" y="364.2" width="8.0" height="20.9" fill="#ef4444"/><line x1="205.4" x2="205.4" y1="367.6" y2="397.0" stroke="#22c55e" stroke-width="1"/><rect x="201.4" y="377.4" width="8.0" height="8.1" fill="#22c55e"/><line x1="221.8" x2="221.8" y1="357.4" y2="386.4" stroke="#22c55e" stroke-width="1"/><rect x="217.8" y="362.6" width="8.0" height="14.3" fill="#22c55e"/><line x1="238.2" x2="238.2" y1="346.2" y2="366.7" stroke="#22c55e" stroke-width="1"/><rect x="234.2" y="361.6" width="8.0" height="1.5" fill="#22c55e"/><line x1="254.6" x2="254.6" y1="344.7" y2="374.1" stroke="#22c55e" stroke-width="1"/><rect x="250.6" y="349.6" width="8.0" height="11.8" fill="#22c55e"/><line x1="271.1" x2="271.1" y1="345.0" y2="364.0" stroke="#ef4444" stroke-width="1"/><rect x="267.1" y="348.7" width="8.0" height="14.3" fill="#ef4444"/><line x1="287.5" x2="287.5" y1="339.8" y2="365.6" stroke="#22c55e" stroke-width="1"/><rect x="283.5" y="352.4" width="8.0" height="10.4" fill="#22c55e"/><line x1="303.9" x2="303.9" y1="348.0" y2="369.0" stroke="#ef4444" stroke-width="1"/><rect x="299.9" y="352.0" width="8.0" height="9.0" fill="#ef4444"/><line x1="320.4" x2="320.4" y1="355.9" y2="378.1" stroke="#ef4444" stroke-width="1"/><rect x="316.4" y="360.6" width="8.0" height="10.7" fill="#ef4444"/><line x1="336.8" x2="336.8" y1="359.4" y2="380.6" stroke="#22c55e" stroke-width="1"/><rect x="332.8" y="368.9" width="8.0" height="2.5" fill="#22c55e"/><line x1="353.2" x2="353.2" y1="367.6" y2="383.1" stroke="#ef4444" stroke-width="1"/><rect x="349.2" y="368.9" width="8.0" height="12.6" fill="#ef4444"/><line x1="369.6" x2="369.6" y1="370.9" y2="384.2" stroke="#22c55e" stroke-width="1"/><rect x="365.6" y="372.6" width="8.0" height="8.7" fill="#22c55e"/><line x1="386.1" x2="386.1" y1="371.5" y2="386.3" stroke="#ef4444" stroke-width="1"/><rect x="382.1" y="372.7" width="8.0" height="6.1" fill="#ef4444"/><line x1="402.5" x2="402.5" y1="368.8" y2="398.1" stroke="#ef4444" stroke-width="1"/><rect x="398.5" y="379.0" width="8.0" height="16.5" fill="#ef4444"/><line x1="418.9" x2="418.9" y1="391.9" y2="412.2" stroke="#ef4444" stroke-width="1"/><rect x="414.9" y="395.3" width="8.0" height="2.4" fill="#ef4444"/><line x1="435.4" x2="435.4" y1="379.4" y2="398.8" stroke="#22c55e" stroke-width="1"/><rect x="431.4" y="389.8" width="8.0" height="8.0" fill="#22c55e"/><line x1="451.8" x2="451.8" y1="379.9" y2="405.2" stroke="#ef4444" stroke-width="1"/><rect x="447.8" y="390.1" width="8.0" height="5.0" fill="#ef4444"/><line x1="468.2" x2="468.2" y1="389.3" y2="406.3" stroke="#22c55e" stroke-width="1"/><rect x="464.2" y="391.1" width="8.0" height="3.9" fill="#22c55e"/><line x1="484.6" x2="484.6" y1="387.1" y2="401.3" stroke="#22c55e" stroke-width="1"/><rect x="480.6" y="388.3" width="8.0" height="3.1" fill="#22c55e"/><line x1="501.1" x2="501.1" y1="372.7" y2="387.7" stroke="#22c55e" stroke-width="1"/><rect x="497.1" y="377.5" width="8.0" height="9.6" fill="#22c55e"/><text x="501.1" y="500" fill="#eab308" font-size="12" text-anchor="middle">▲</text><line x1="517.5" x2="517.5" y1="376.6" y2="411.6" stroke="#ef4444" stroke-width="1"/><rect x="513.5" y="377.4" width="8.0" height="34.0" fill="#ef4444"/><line x1="533.9" x2="533.9" y1="392.2" y2="412.0" stroke="#22c55e" stroke-width="1"/><rect x="529.9" y="396.4" width="8.0" height="15.1" fill="#22c55e"/><line x1="550.4" x2="550.4" y1="380.8" y2="403.3" stroke="#ef4444" stroke-width="1"/><rect x="546.4" y="395.4" width="8.0" height="6.8" fill="#ef4444"/><line x1="566.8" x2="566.8" y1="395.3" y2="415.1" stroke="#ef4444" stroke-width="1"/><rect x="562.8" y="402.3" width="8.0" height="9.3" fill="#ef4444"/><line x1="583.2" x2="583.2" y1="404.8" y2="418.8" stroke="#22c55e" stroke-width="1"/><rect x="579.2" y="410.3" width="8.0" height="1.4" fill="#22c55e"/><line x1="599.6" x2="599.6" y1="404.0" y2="417.2" stroke="#ef4444" stroke-width="1"/><rect x="595.6" y="407.4" width="8.0" height="5.7" fill="#ef4444"/><line x1="616.1" x2="616.1" y1="357.5" y2="431.0" stroke="#22c55e" stroke-width="1"/><rect x="612.1" y="363.9" width="8.0" height="49.3" fill="#22c55e"/><line x1="632.5" x2="632.5" y1="337.0" y2="371.1" stroke="#ef4444" stroke-width="1"/><rect x="628.5" y="364.4" width="8.0" height="6.7" fill="#ef4444"/><line x1="648.9" x2="648.9" y1="351.2" y2="384.5" stroke="#22c55e" stroke-width="1"/><rect x="644.9" y="358.2" width="8.0" height="12.7" fill="#22c55e"/><line x1="665.4" x2="665.4" y1="353.3" y2="384.4" stroke="#ef4444" stroke-width="1"/><rect x="661.4" y="358.1" width="8.0" height="4.2" fill="#ef4444"/><line x1="681.8" x2="681.8" y1="355.7" y2="364.2" stroke="#22c55e" stroke-width="1"/><rect x="677.8" y="358.2" width="8.0" height="4.7" fill="#22c55e"/><line x1="0" x2="690" y1="376.0" y2="376.0" stroke="#e6edf3" stroke-width="1" stroke-dasharray="5,4" opacity="0.85"/><text x="694" y="379.0" fill="#e6edf3" font-size="10" font-family="monospace">entry 4725.74</text><line x1="0" x2="690" y1="407.8" y2="407.8" stroke="#ef4444" stroke-width="1" stroke-dasharray="5,4" opacity="0.85"/><text x="694" y="410.8" fill="#ef4444" font-size="10" font-family="monospace">SL 4719.49</text></g></svg>