<svg xmlns="http://www.w3.org/2000/svg" width="760" height="514" viewBox="0 0 760 514"><rect width="760" height="514" fill="#0d1117"/><text x="6" y="18" fill="#e6edf3" font-size="12" font-family="monospace">#12 · Tue 2026-04-14 15:00 PT · ASIA · retrace arm · LONG @4850.58 SL 4840.13 → -1.005R</text><g><text x="6" y="42" fill="#8b949e" font-size="11" font-family="monospace">15-min · entry marked</text><line x1="9.6" x2="9.6" y1="159.0" y2="218.9" stroke="#ef4444" stroke-width="1"/><rect x="5.6" y="185.5" width="8.0" height="33.2" fill="#ef4444"/><line x1="28.8" x2="28.8" y1="193.9" y2="228.2" stroke="#22c55e" stroke-width="1"/><rect x="24.8" y="202.8" width="8.0" height="15.2" fill="#22c55e"/><line x1="47.9" x2="47.9" y1="201.7" y2="241.1" stroke="#ef4444" stroke-width="1"/><rect x="43.9" y="201.9" width="8.0" height="28.5" fill="#ef4444"/><line x1="67.1" x2="67.1" y1="196.3" y2="235.1" stroke="#22c55e" stroke-width="1"/><rect x="63.1" y="206.2" width="8.0" height="24.2" fill="#22c55e"/><line x1="86.3" x2="86.3" y1="172.4" y2="206.3" stroke="#22c55e" stroke-width="1"/><rect x="82.3" y="186.3" width="8.0" height="20.0" fill="#22c55e"/><line x1="105.4" x2="105.4" y1="164.6" y2="193.6" stroke="#ef4444" stroke-width="1"/><rect x="101.4" y="185.9" width="8.0" height="3.4" fill="#ef4444"/><line x1="124.6" x2="124.6" y1="170.3" y2="198.5" stroke="#22c55e" stroke-width="1"/><rect x="120.6" y="184.8" width="8.0" height="4.8" fill="#22c55e"/><line x1="143.8" x2="143.8" y1="155.1" y2="191.9" stroke="#22c55e" stroke-width="1"/><rect x="139.8" y="163.9" width="8.0" height="20.9" fill="#22c55e"/><line x1="162.9" x2="162.9" y1="152.3" y2="172.6" stroke="#ef4444" stroke-width="1"/><rect x="158.9" y="163.9" width="8.0" height="3.5" fill="#ef4444"/><line x1="182.1" x2="182.1" y1="156.4" y2="186.5" stroke="#ef4444" stroke-width="1"/><rect x="178.1" y="167.2" width="8.0" height="16.3" fill="#ef4444"/><line x1="201.3" x2="201.3" y1="111.4" y2="185.3" stroke="#22c55e" stroke-width="1"/><rect x="197.3" y="131.5" width="8.0" height="51.8" fill="#22c55e"/><line x1="220.4" x2="220.4" y1="116.9" y2="139.2" stroke="#ef4444" stroke-width="1"/><rect x="216.4" y="131.5" width="8.0" height="5.2" fill="#ef4444"/><line x1="239.6" x2="239.6" y1="87.8" y2="137.8" stroke="#22c55e" stroke-width="1"/><rect x="235.6" y="101.1" width="8.0" height="35.1" fill="#22c55e"/><line x1="258.8" x2="258.8" y1="92.8" y2="109.1" stroke="#ef4444" stroke-width="1"/><rect x="254.8" y="101.2" width="8.0" height="5.6" fill="#ef4444"/><line x1="277.9" x2="277.9" y1="82.1" y2="108.8" stroke="#22c55e" stroke-width="1"/><rect x="273.9" y="95.4" width="8.0" height="11.3" fill="#22c55e"/><line x1="297.1" x2="297.1" y1="92.0" y2="112.9" stroke="#ef4444" stroke-width="1"/><rect x="293.1" y="95.4" width="8.0" height="2.8" fill="#ef4444"/><line x1="316.3" x2="316.3" y1="94.6" y2="110.1" stroke="#ef4444" stroke-width="1"/><rect x="312.3" y="98.2" width="8.0" height="10.5" fill="#ef4444"/><line x1="335.4" x2="335.4" y1="102.9" y2="120.0" stroke="#22c55e" stroke-width="1"/><rect x="331.4" y="105.3" width="8.0" height="3.4" fill="#22c55e"/><line x1="354.6" x2="354.6" y1="84.1" y2="105.1" stroke="#22c55e" stroke-width="1"/><rect x="350.6" y="88.8" width="8.0" height="16.3" fill="#22c55e"/><line x1="373.8" x2="373.8" y1="84.9" y2="95.9" stroke="#ef4444" stroke-width="1"/><rect x="369.8" y="88.7" width="8.0" height="1.0" fill="#ef4444"/><line x1="392.9" x2="392.9" y1="81.0" y2="95.8" stroke="#22c55e" stroke-width="1"/><rect x="388.9" y="88.5" width="8.0" height="1.0" fill="#22c55e"/><line x1="412.1" x2="412.1" y1="72.6" y2="92.0" stroke="#22c55e" stroke-width="1"/><rect x="408.1" y="76.0" width="8.0" height="12.7" fill="#22c55e"/><line x1="431.3" x2="431.3" y1="73.1" y2="86.0" stroke="#ef4444" stroke-width="1"/><rect x="427.3" y="76.7" width="8.0" height="6.6" fill="#ef4444"/><line x1="450.4" x2="450.4" y1="81.7" y2="93.4" stroke="#ef4444" stroke-width="1"/><rect x="446.4" y="83.2" width="8.0" height="7.3" fill="#ef4444"/><line x1="469.6" x2="469.6" y1="82.2" y2="92.4" stroke="#22c55e" stroke-width="1"/><rect x="465.6" y="85.0" width="8.0" height="5.5" fill="#22c55e"/><line x1="488.8" x2="488.8" y1="81.8" y2="90.6" stroke="#ef4444" stroke-width="1"/><rect x="484.8" y="85.4" width="8.0" height="1.2" fill="#ef4444"/><line x1="507.9" x2="507.9" y1="58.9" y2="97.4" stroke="#22c55e" stroke-width="1"/><rect x="503.9" y="77.4" width="8.0" height="13.6" fill="#22c55e"/><text x="507.9" y="258" fill="#eab308" font-size="12" text-anchor="middle">▲</text><line x1="527.1" x2="527.1" y1="70.4" y2="103.7" stroke="#ef4444" stroke-width="1"/><rect x="523.1" y="77.4" width="8.0" height="14.2" fill="#ef4444"/><line x1="546.3" x2="546.3" y1="82.2" y2="98.7" stroke="#22c55e" stroke-width="1"/><rect x="542.3" y="90.9" width="8.0" height="1.0" fill="#22c55e"/><line x1="565.4" x2="565.4" y1="90.6" y2="112.5" stroke="#ef4444" stroke-width="1"/><rect x="561.4" y="90.9" width="8.0" height="16.2" fill="#ef4444"/><line x1="584.6" x2="584.6" y1="78.6" y2="111.2" stroke="#22c55e" stroke-width="1"/><rect x="580.6" y="100.9" width="8.0" height="6.2" fill="#22c55e"/><line x1="603.8" x2="603.8" y1="94.1" y2="107.2" stroke="#ef4444" stroke-width="1"/><rect x="599.8" y="100.9" width="8.0" height="3.3" fill="#ef4444"/><line x1="622.9" x2="622.9" y1="83.2" y2="106.5" stroke="#22c55e" stroke-width="1"/><rect x="618.9" y="84.6" width="8.0" height="19.6" fill="#22c55e"/><line x1="642.1" x2="642.1" y1="79.0" y2="102.7" stroke="#ef4444" stroke-width="1"/><rect x="638.1" y="84.7" width="8.0" height="15.6" fill="#ef4444"/><line x1="661.3" x2="661.3" y1="91.4" y2="117.8" stroke="#ef4444" stroke-width="1"/><rect x="657.3" y="100.1" width="8.0" height="10.6" fill="#ef4444"/><line x1="680.4" x2="680.4" y1="110.7" y2="126.1" stroke="#ef4444" stroke-width="1"/><rect x="676.4" y="110.7" width="8.0" height="7.9" fill="#ef4444"/><line x1="0" x2="690" y1="59.5" y2="59.5" stroke="#e6edf3" stroke-width="1" stroke-dasharray="5,4" opacity="0.85"/><text x="694" y="62.5" fill="#e6edf3" font-size="10" font-family="monospace">entry 4850.58</text><line x1="0" x2="690" y1="91.5" y2="91.5" stroke="#ef4444" stroke-width="1" stroke-dasharray="5,4" opacity="0.85"/><text x="694" y="94.5" fill="#ef4444" font-size="10" font-family="monospace">SL 4840.13</text></g><g><text x="6" y="284" fill="#8b949e" font-size="11" font-family="monospace">3-min · entry marked</text><line x1="12.8" x2="12.8" y1="420.5" y2="430.9" stroke="#22c55e" stroke-width="1"/><rect x="8.8" y="429.0" width="8.0" height="1.0" fill="#22c55e"/><line x1="38.3" x2="38.3" y1="425.1" y2="433.5" stroke="#22c55e" stroke-width="1"/><rect x="34.3" y="425.3" width="8.0" height="3.6" fill="#22c55e"/><line x1="63.9" x2="63.9" y1="419.9" y2="428.6" stroke="#22c55e" stroke-width="1"/><rect x="59.9" y="423.8" width="8.0" height="1.5" fill="#22c55e"/><line x1="89.4" x2="89.4" y1="421.0" y2="437.1" stroke="#ef4444" stroke-width="1"/><rect x="85.4" y="423.8" width="8.0" height="3.5" fill="#ef4444"/><line x1="115.0" x2="115.0" y1="395.7" y2="428.6" stroke="#22c55e" stroke-width="1"/><rect x="111.0" y="407.1" width="8.0" height="20.1" fill="#22c55e"/><line x1="140.6" x2="140.6" y1="393.8" y2="414.9" stroke="#ef4444" stroke-width="1"/><rect x="136.6" y="408.6" width="8.0" height="5.3" fill="#ef4444"/><line x1="166.1" x2="166.1" y1="403.0" y2="429.5" stroke="#ef4444" stroke-width="1"/><rect x="162.1" y="413.9" width="8.0" height="14.4" fill="#ef4444"/><line x1="191.7" x2="191.7" y1="409.2" y2="428.4" stroke="#22c55e" stroke-width="1"/><rect x="187.7" y="414.2" width="8.0" height="14.2" fill="#22c55e"/><line x1="217.2" x2="217.2" y1="409.0" y2="419.5" stroke="#22c55e" stroke-width="1"/><rect x="213.2" y="413.1" width="8.0" height="1.0" fill="#22c55e"/><line x1="242.8" x2="242.8" y1="411.7" y2="429.6" stroke="#ef4444" stroke-width="1"/><rect x="238.8" y="413.1" width="8.0" height="1.0" fill="#ef4444"/><line x1="268.3" x2="268.3" y1="304.5" y2="457.6" stroke="#22c55e" stroke-width="1"/><rect x="264.3" y="307.0" width="8.0" height="124.1" fill="#22c55e"/><text x="268.3" y="500" fill="#eab308" font-size="12" text-anchor="middle">▲</text><line x1="293.9" x2="293.9" y1="300.9" y2="378.6" stroke="#ef4444" stroke-width="1"/><rect x="289.9" y="307.3" width="8.0" height="1.0" fill="#ef4444"/><line x1="319.4" x2="319.4" y1="307.5" y2="357.6" stroke="#ef4444" stroke-width="1"/><rect x="315.4" y="307.5" width="8.0" height="27.1" fill="#ef4444"/><line x1="345.0" x2="345.0" y1="322.8" y2="369.1" stroke="#ef4444" stroke-width="1"/><rect x="341.0" y="334.6" width="8.0" height="26.2" fill="#ef4444"/><line x1="370.6" x2="370.6" y1="346.6" y2="393.8" stroke="#ef4444" stroke-width="1"/><rect x="366.6" y="362.8" width="8.0" height="13.1" fill="#ef4444"/><line x1="396.1" x2="396.1" y1="347.7" y2="405.9" stroke="#ef4444" stroke-width="1"/><rect x="392.1" y="375.9" width="8.0" height="28.8" fill="#ef4444"/><line x1="421.7" x2="421.7" y1="410.7" y2="483.1" stroke="#ef4444" stroke-width="1"/><rect x="417.7" y="412.2" width="8.0" height="19.9" fill="#ef4444"/><line x1="447.2" x2="447.2" y1="405.1" y2="449.4" stroke="#22c55e" stroke-width="1"/><rect x="443.2" y="412.3" width="8.0" height="19.8" fill="#22c55e"/><line x1="472.8" x2="472.8" y1="397.8" y2="412.8" stroke="#22c55e" stroke-width="1"/><rect x="468.8" y="406.2" width="8.0" height="6.1" fill="#22c55e"/><line x1="498.3" x2="498.3" y1="406.5" y2="434.5" stroke="#ef4444" stroke-width="1"/><rect x="494.3" y="406.5" width="8.0" height="27.0" fill="#ef4444"/><line x1="523.9" x2="523.9" y1="395.7" y2="453.2" stroke="#22c55e" stroke-width="1"/><rect x="519.9" y="419.3" width="8.0" height="14.2" fill="#22c55e"/><line x1="549.4" x2="549.4" y1="419.2" y2="462.7" stroke="#ef4444" stroke-width="1"/><rect x="545.4" y="419.3" width="8.0" height="11.8" fill="#ef4444"/><line x1="575.0" x2="575.0" y1="426.4" y2="444.7" stroke="#ef4444" stroke-width="1"/><rect x="571.0" y="432.5" width="8.0" height="7.6" fill="#ef4444"/><line x1="600.6" x2="600.6" y1="417.2" y2="446.6" stroke="#22c55e" stroke-width="1"/><rect x="596.6" y="419.7" width="8.0" height="21.1" fill="#22c55e"/><line x1="626.1" x2="626.1" y1="415.6" y2="442.7" stroke="#ef4444" stroke-width="1"/><rect x="622.1" y="419.3" width="8.0" height="11.8" fill="#ef4444"/><line x1="651.7" x2="651.7" y1="429.9" y2="443.0" stroke="#ef4444" stroke-width="1"/><rect x="647.7" y="431.0" width="8.0" height="11.7" fill="#ef4444"/><line x1="677.2" x2="677.2" y1="434.6" y2="463.6" stroke="#ef4444" stroke-width="1"/><rect x="673.2" y="444.5" width="8.0" height="15.0" fill="#ef4444"/><line x1="0" x2="690" y1="303.3" y2="303.3" stroke="#e6edf3" stroke-width="1" stroke-dasharray="5,4" opacity="0.85"/><text x="694" y="306.3" fill="#e6edf3" font-size="10" font-family="monospace">entry 4850.58</text><line x1="0" x2="690" y1="433.2" y2="433.2" stroke="#ef4444" stroke-width="1" stroke-dasharray="5,4" opacity="0.85"/><text x="694" y="436.2" fill="#ef4444" font-size="10" font-family="monospace">SL 4840.13</text></g></svg>