<svg xmlns="http://www.w3.org/2000/svg" width="760" height="514" viewBox="0 0 760 514"><rect width="760" height="514" fill="#0d1117"/><text x="6" y="18" fill="#e6edf3" font-size="12" font-family="monospace">#31 · Wed 2026-05-13 19:30 PT · ASIA · retrace arm · LONG @4696.44 SL 4686.23 → -1.005R</text><g><text x="6" y="42" fill="#8b949e" font-size="11" font-family="monospace">15-min · entry marked</text><line x1="9.6" x2="9.6" y1="156.0" y2="179.6" stroke="#22c55e" stroke-width="1"/><rect x="5.6" y="156.0" width="8.0" height="17.4" fill="#22c55e"/><line x1="28.8" x2="28.8" y1="150.0" y2="166.7" stroke="#ef4444" stroke-width="1"/><rect x="24.8" y="155.9" width="8.0" height="8.1" fill="#ef4444"/><line x1="47.9" x2="47.9" y1="155.9" y2="174.8" stroke="#22c55e" stroke-width="1"/><rect x="43.9" y="158.1" width="8.0" height="5.7" fill="#22c55e"/><line x1="67.1" x2="67.1" y1="154.4" y2="179.3" stroke="#ef4444" stroke-width="1"/><rect x="63.1" y="158.2" width="8.0" height="1.0" fill="#ef4444"/><line x1="86.3" x2="86.3" y1="148.7" y2="169.5" stroke="#22c55e" stroke-width="1"/><rect x="82.3" y="148.9" width="8.0" height="10.5" fill="#22c55e"/><line x1="105.4" x2="105.4" y1="138.2" y2="151.6" stroke="#22c55e" stroke-width="1"/><rect x="101.4" y="146.9" width="8.0" height="1.9" fill="#22c55e"/><line x1="124.6" x2="124.6" y1="140.7" y2="155.8" stroke="#ef4444" stroke-width="1"/><rect x="120.6" y="146.8" width="8.0" height="2.5" fill="#ef4444"/><line x1="143.8" x2="143.8" y1="147.7" y2="161.2" stroke="#ef4444" stroke-width="1"/><rect x="139.8" y="149.2" width="8.0" height="8.2" fill="#ef4444"/><line x1="162.9" x2="162.9" y1="133.8" y2="156.3" stroke="#ef4444" stroke-width="1"/><rect x="158.9" y="144.3" width="8.0" height="3.0" fill="#ef4444"/><line x1="182.1" x2="182.1" y1="121.6" y2="148.3" stroke="#22c55e" stroke-width="1"/><rect x="178.1" y="122.7" width="8.0" height="24.6" fill="#22c55e"/><line x1="201.3" x2="201.3" y1="109.3" y2="128.9" stroke="#22c55e" stroke-width="1"/><rect x="197.3" y="114.4" width="8.0" height="8.3" fill="#22c55e"/><line x1="220.4" x2="220.4" y1="107.8" y2="124.4" stroke="#22c55e" stroke-width="1"/><rect x="216.4" y="110.1" width="8.0" height="4.3" fill="#22c55e"/><line x1="239.6" x2="239.6" y1="101.6" y2="114.1" stroke="#22c55e" stroke-width="1"/><rect x="235.6" y="105.2" width="8.0" height="5.7" fill="#22c55e"/><line x1="258.8" x2="258.8" y1="105.2" y2="124.0" stroke="#ef4444" stroke-width="1"/><rect x="254.8" y="105.2" width="8.0" height="16.2" fill="#ef4444"/><line x1="277.9" x2="277.9" y1="120.3" y2="133.7" stroke="#ef4444" stroke-width="1"/><rect x="273.9" y="123.6" width="8.0" height="7.9" fill="#ef4444"/><line x1="297.1" x2="297.1" y1="123.2" y2="138.1" stroke="#22c55e" stroke-width="1"/><rect x="293.1" y="124.5" width="8.0" height="7.1" fill="#22c55e"/><line x1="316.3" x2="316.3" y1="112.5" y2="153.6" stroke="#22c55e" stroke-width="1"/><rect x="312.3" y="120.3" width="8.0" height="5.6" fill="#22c55e"/><line x1="335.4" x2="335.4" y1="88.2" y2="120.6" stroke="#22c55e" stroke-width="1"/><rect x="331.4" y="106.0" width="8.0" height="14.2" fill="#22c55e"/><line x1="354.6" x2="354.6" y1="96.9" y2="139.4" stroke="#ef4444" stroke-width="1"/><rect x="350.6" y="106.2" width="8.0" height="1.8" fill="#ef4444"/><line x1="373.8" x2="373.8" y1="81.8" y2="112.9" stroke="#22c55e" stroke-width="1"/><rect x="369.8" y="89.5" width="8.0" height="19.1" fill="#22c55e"/><line x1="392.9" x2="392.9" y1="81.0" y2="175.7" stroke="#ef4444" stroke-width="1"/><rect x="388.9" y="89.4" width="8.0" height="66.4" fill="#ef4444"/><line x1="412.1" x2="412.1" y1="129.0" y2="162.1" stroke="#22c55e" stroke-width="1"/><rect x="408.1" y="140.7" width="8.0" height="15.2" fill="#22c55e"/><line x1="431.3" x2="431.3" y1="132.0" y2="178.3" stroke="#ef4444" stroke-width="1"/><rect x="427.3" y="140.7" width="8.0" height="16.5" fill="#ef4444"/><line x1="450.4" x2="450.4" y1="130.3" y2="179.1" stroke="#ef4444" stroke-width="1"/><rect x="446.4" y="156.4" width="8.0" height="1.0" fill="#ef4444"/><line x1="469.6" x2="469.6" y1="135.3" y2="166.7" stroke="#ef4444" stroke-width="1"/><rect x="465.6" y="156.7" width="8.0" height="2.5" fill="#ef4444"/><line x1="488.8" x2="488.8" y1="134.5" y2="163.9" stroke="#22c55e" stroke-width="1"/><rect x="484.8" y="136.2" width="8.0" height="23.1" fill="#22c55e"/><line x1="507.9" x2="507.9" y1="111.7" y2="153.6" stroke="#ef4444" stroke-width="1"/><rect x="503.9" y="136.6" width="8.0" height="8.3" fill="#ef4444"/><text x="507.9" y="258" fill="#eab308" font-size="12" text-anchor="middle">▲</text><line x1="527.1" x2="527.1" y1="137.6" y2="192.5" stroke="#ef4444" stroke-width="1"/><rect x="523.1" y="143.3" width="8.0" height="22.7" fill="#ef4444"/><line x1="546.3" x2="546.3" y1="151.1" y2="187.5" stroke="#ef4444" stroke-width="1"/><rect x="542.3" y="165.8" width="8.0" height="15.2" fill="#ef4444"/><line x1="565.4" x2="565.4" y1="138.1" y2="186.6" stroke="#22c55e" stroke-width="1"/><rect x="561.4" y="147.3" width="8.0" height="33.7" fill="#22c55e"/><line x1="584.6" x2="584.6" y1="147.0" y2="211.0" stroke="#ef4444" stroke-width="1"/><rect x="580.6" y="147.2" width="8.0" height="61.7" fill="#ef4444"/><line x1="603.8" x2="603.8" y1="202.3" y2="218.6" stroke="#ef4444" stroke-width="1"/><rect x="599.8" y="208.6" width="8.0" height="5.9" fill="#ef4444"/><line x1="622.9" x2="622.9" y1="182.6" y2="241.1" stroke="#22c55e" stroke-width="1"/><rect x="618.9" y="184.6" width="8.0" height="30.1" fill="#22c55e"/><line x1="642.1" x2="642.1" y1="79.9" y2="186.0" stroke="#22c55e" stroke-width="1"/><rect x="638.1" y="101.3" width="8.0" height="83.2" fill="#22c55e"/><line x1="661.3" x2="661.3" y1="58.9" y2="105.7" stroke="#22c55e" stroke-width="1"/><rect x="657.3" y="91.0" width="8.0" height="10.3" fill="#22c55e"/><line x1="680.4" x2="680.4" y1="87.3" y2="98.0" stroke="#ef4444" stroke-width="1"/><rect x="676.4" y="91.0" width="8.0" height="3.8" fill="#ef4444"/><line x1="0" x2="690" y1="125.2" y2="125.2" stroke="#e6edf3" stroke-width="1" stroke-dasharray="5,4" opacity="0.85"/><text x="694" y="128.2" fill="#e6edf3" font-size="10" font-family="monospace">entry 4696.44</text><line x1="0" x2="690" y1="168.0" y2="168.0" stroke="#ef4444" stroke-width="1" stroke-dasharray="5,4" opacity="0.85"/><text x="694" y="171.0" fill="#ef4444" font-size="10" font-family="monospace">SL 4686.23</text></g><g><text x="6" y="284" fill="#8b949e" font-size="11" font-family="monospace">3-min · entry marked</text><line x1="7.5" x2="7.5" y1="300.9" y2="339.7" stroke="#ef4444" stroke-width="1"/><rect x="3.5" y="314.6" width="8.0" height="22.3" fill="#ef4444"/><line x1="22.5" x2="22.5" y1="337.0" y2="398.3" stroke="#ef4444" stroke-width="1"/><rect x="18.5" y="337.2" width="8.0" height="56.7" fill="#ef4444"/><line x1="37.5" x2="37.5" y1="384.8" y2="440.3" stroke="#ef4444" stroke-width="1"/><rect x="33.5" y="393.9" width="8.0" height="43.1" fill="#ef4444"/><line x1="52.5" x2="52.5" y1="401.9" y2="439.9" stroke="#22c55e" stroke-width="1"/><rect x="48.5" y="407.9" width="8.0" height="29.7" fill="#22c55e"/><line x1="67.5" x2="67.5" y1="400.1" y2="455.7" stroke="#ef4444" stroke-width="1"/><rect x="63.5" y="406.8" width="8.0" height="16.4" fill="#ef4444"/><line x1="82.5" x2="82.5" y1="389.2" y2="429.8" stroke="#22c55e" stroke-width="1"/><rect x="78.5" y="391.8" width="8.0" height="31.6" fill="#22c55e"/><line x1="97.5" x2="97.5" y1="385.7" y2="433.5" stroke="#ef4444" stroke-width="1"/><rect x="93.5" y="392.2" width="8.0" height="11.7" fill="#ef4444"/><line x1="112.5" x2="112.5" y1="400.0" y2="420.9" stroke="#ef4444" stroke-width="1"/><rect x="108.5" y="403.6" width="8.0" height="6.2" fill="#ef4444"/><line x1="127.5" x2="127.5" y1="389.4" y2="412.0" stroke="#22c55e" stroke-width="1"/><rect x="123.5" y="400.5" width="8.0" height="9.3" fill="#22c55e"/><line x1="142.5" x2="142.5" y1="379.3" y2="405.5" stroke="#22c55e" stroke-width="1"/><rect x="138.5" y="398.5" width="8.0" height="2.0" fill="#22c55e"/><line x1="157.5" x2="157.5" y1="384.2" y2="415.4" stroke="#ef4444" stroke-width="1"/><rect x="153.5" y="398.5" width="8.0" height="7.4" fill="#ef4444"/><line x1="172.5" x2="172.5" y1="387.5" y2="419.0" stroke="#22c55e" stroke-width="1"/><rect x="168.5" y="387.9" width="8.0" height="18.0" fill="#22c55e"/><line x1="187.5" x2="187.5" y1="385.8" y2="437.6" stroke="#ef4444" stroke-width="1"/><rect x="183.5" y="387.8" width="8.0" height="40.6" fill="#ef4444"/><line x1="202.5" x2="202.5" y1="409.4" y2="439.1" stroke="#ef4444" stroke-width="1"/><rect x="198.5" y="428.2" width="8.0" height="10.5" fill="#ef4444"/><line x1="217.5" x2="217.5" y1="423.0" y2="460.0" stroke="#22c55e" stroke-width="1"/><rect x="213.5" y="425.4" width="8.0" height="12.7" fill="#22c55e"/><line x1="232.5" x2="232.5" y1="394.1" y2="436.8" stroke="#22c55e" stroke-width="1"/><rect x="228.5" y="395.0" width="8.0" height="29.0" fill="#22c55e"/><line x1="247.5" x2="247.5" y1="381.5" y2="396.4" stroke="#22c55e" stroke-width="1"/><rect x="243.5" y="389.9" width="8.0" height="2.8" fill="#22c55e"/><line x1="262.5" x2="262.5" y1="389.0" y2="461.2" stroke="#ef4444" stroke-width="1"/><rect x="258.5" y="390.9" width="8.0" height="41.1" fill="#ef4444"/><line x1="277.5" x2="277.5" y1="431.3" y2="456.5" stroke="#ef4444" stroke-width="1"/><rect x="273.5" y="431.9" width="8.0" height="7.3" fill="#ef4444"/><line x1="292.5" x2="292.5" y1="421.5" y2="450.8" stroke="#22c55e" stroke-width="1"/><rect x="288.5" y="424.8" width="8.0" height="13.4" fill="#22c55e"/><line x1="307.5" x2="307.5" y1="402.2" y2="435.3" stroke="#22c55e" stroke-width="1"/><rect x="303.5" y="403.8" width="8.0" height="20.7" fill="#22c55e"/><line x1="322.5" x2="322.5" y1="389.6" y2="409.8" stroke="#22c55e" stroke-width="1"/><rect x="318.5" y="400.3" width="8.0" height="3.4" fill="#22c55e"/><line x1="337.5" x2="337.5" y1="394.9" y2="424.7" stroke="#ef4444" stroke-width="1"/><rect x="333.5" y="400.2" width="8.0" height="16.8" fill="#ef4444"/><line x1="352.5" x2="352.5" y1="406.9" y2="425.9" stroke="#ef4444" stroke-width="1"/><rect x="348.5" y="417.0" width="8.0" height="5.6" fill="#ef4444"/><line x1="367.5" x2="367.5" y1="420.9" y2="441.0" stroke="#ef4444" stroke-width="1"/><rect x="363.5" y="422.4" width="8.0" height="6.3" fill="#ef4444"/><line x1="382.5" x2="382.5" y1="411.7" y2="436.4" stroke="#22c55e" stroke-width="1"/><rect x="378.5" y="413.9" width="8.0" height="14.9" fill="#22c55e"/><line x1="397.5" x2="397.5" y1="409.8" y2="419.0" stroke="#22c55e" stroke-width="1"/><rect x="393.5" y="413.5" width="8.0" height="1.0" fill="#22c55e"/><line x1="412.5" x2="412.5" y1="406.0" y2="418.7" stroke="#ef4444" stroke-width="1"/><rect x="408.5" y="413.6" width="8.0" height="1.7" fill="#ef4444"/><line x1="427.5" x2="427.5" y1="389.6" y2="418.6" stroke="#22c55e" stroke-width="1"/><rect x="423.5" y="397.2" width="8.0" height="17.5" fill="#22c55e"/><line x1="442.5" x2="442.5" y1="388.3" y2="417.5" stroke="#22c55e" stroke-width="1"/><rect x="438.5" y="391.1" width="8.0" height="6.2" fill="#22c55e"/><line x1="457.5" x2="457.5" y1="370.6" y2="409.0" stroke="#22c55e" stroke-width="1"/><rect x="453.5" y="375.2" width="8.0" height="16.5" fill="#22c55e"/><text x="457.5" y="500" fill="#eab308" font-size="12" text-anchor="middle">▲</text><line x1="472.5" x2="472.5" y1="351.1" y2="375.7" stroke="#22c55e" stroke-width="1"/><rect x="468.5" y="353.0" width="8.0" height="22.6" fill="#22c55e"/><line x1="487.5" x2="487.5" y1="352.7" y2="369.8" stroke="#ef4444" stroke-width="1"/><rect x="483.5" y="353.0" width="8.0" height="16.8" fill="#ef4444"/><line x1="502.5" x2="502.5" y1="366.1" y2="413.3" stroke="#ef4444" stroke-width="1"/><rect x="498.5" y="370.3" width="8.0" height="35.5" fill="#ef4444"/><line x1="517.5" x2="517.5" y1="395.9" y2="419.5" stroke="#22c55e" stroke-width="1"/><rect x="513.5" y="405.2" width="8.0" height="1.0" fill="#22c55e"/><line x1="532.5" x2="532.5" y1="393.3" y2="443.4" stroke="#ef4444" stroke-width="1"/><rect x="528.5" y="402.8" width="8.0" height="36.1" fill="#ef4444"/><line x1="547.5" x2="547.5" y1="438.6" y2="483.1" stroke="#ef4444" stroke-width="1"/><rect x="543.5" y="438.6" width="8.0" height="24.8" fill="#ef4444"/><line x1="562.5" x2="562.5" y1="445.4" y2="467.1" stroke="#22c55e" stroke-width="1"/><rect x="558.5" y="446.0" width="8.0" height="16.8" fill="#22c55e"/><line x1="577.5" x2="577.5" y1="429.0" y2="450.1" stroke="#22c55e" stroke-width="1"/><rect x="573.5" y="438.2" width="8.0" height="7.7" fill="#22c55e"/><line x1="592.5" x2="592.5" y1="427.0" y2="450.1" stroke="#ef4444" stroke-width="1"/><rect x="588.5" y="438.4" width="8.0" height="1.6" fill="#ef4444"/><line x1="607.5" x2="607.5" y1="418.2" y2="445.9" stroke="#22c55e" stroke-width="1"/><rect x="603.5" y="419.0" width="8.0" height="20.5" fill="#22c55e"/><line x1="622.5" x2="622.5" y1="415.4" y2="447.9" stroke="#ef4444" stroke-width="1"/><rect x="618.5" y="419.1" width="8.0" height="15.4" fill="#ef4444"/><line x1="637.5" x2="637.5" y1="433.7" y2="470.8" stroke="#ef4444" stroke-width="1"/><rect x="633.5" y="434.5" width="8.0" height="15.0" fill="#ef4444"/><line x1="652.5" x2="652.5" y1="445.0" y2="461.2" stroke="#22c55e" stroke-width="1"/><rect x="648.5" y="445.4" width="8.0" height="4.2" fill="#22c55e"/><line x1="667.5" x2="667.5" y1="446.9" y2="474.9" stroke="#ef4444" stroke-width="1"/><rect x="663.5" y="446.9" width="8.0" height="17.4" fill="#ef4444"/><line x1="682.5" x2="682.5" y1="445.5" y2="464.3" stroke="#22c55e" stroke-width="1"/><rect x="678.5" y="446.8" width="8.0" height="17.5" fill="#22c55e"/><line x1="0" x2="690" y1="373.1" y2="373.1" stroke="#e6edf3" stroke-width="1" stroke-dasharray="5,4" opacity="0.85"/><text x="694" y="376.1" fill="#e6edf3" font-size="10" font-family="monospace">entry 4696.44</text><line x1="0" x2="690" y1="443.0" y2="443.0" stroke="#ef4444" stroke-width="1" stroke-dasharray="5,4" opacity="0.85"/><text x="694" y="446.0" fill="#ef4444" font-size="10" font-family="monospace">SL 4686.23</text></g></svg>