<svg xmlns="http://www.w3.org/2000/svg" width="760" height="514" viewBox="0 0 760 514"><rect width="760" height="514" fill="#0d1117"/><text x="6" y="18" fill="#e6edf3" font-size="12" font-family="monospace">#46 · Wed 2026-06-10 05:18 PT · NY · retrace arm · SHORT @4134.47 SL 4143.17 → -1.034R</text><g><text x="6" y="42" fill="#8b949e" font-size="11" font-family="monospace">15-min · entry marked</text><line x1="8.6" x2="8.6" y1="150.8" y2="155.7" stroke="#22c55e" stroke-width="1"/><rect x="4.6" y="152.8" width="8.0" height="1.4" fill="#22c55e"/><line x1="25.9" x2="25.9" y1="141.6" y2="155.7" stroke="#22c55e" stroke-width="1"/><rect x="21.9" y="142.9" width="8.0" height="9.5" fill="#22c55e"/><line x1="43.1" x2="43.1" y1="128.0" y2="151.2" stroke="#22c55e" stroke-width="1"/><rect x="39.1" y="128.0" width="8.0" height="14.8" fill="#22c55e"/><line x1="60.4" x2="60.4" y1="104.5" y2="138.9" stroke="#22c55e" stroke-width="1"/><rect x="56.4" y="106.0" width="8.0" height="21.8" fill="#22c55e"/><line x1="77.6" x2="77.6" y1="84.6" y2="107.4" stroke="#22c55e" stroke-width="1"/><rect x="73.6" y="92.2" width="8.0" height="14.0" fill="#22c55e"/><line x1="94.9" x2="94.9" y1="58.9" y2="92.2" stroke="#22c55e" stroke-width="1"/><rect x="90.9" y="76.7" width="8.0" height="15.4" fill="#22c55e"/><line x1="112.1" x2="112.1" y1="69.1" y2="85.9" stroke="#ef4444" stroke-width="1"/><rect x="108.1" y="76.6" width="8.0" height="2.0" fill="#ef4444"/><line x1="129.4" x2="129.4" y1="75.6" y2="92.5" stroke="#ef4444" stroke-width="1"/><rect x="125.4" y="78.9" width="8.0" height="8.1" fill="#ef4444"/><line x1="146.6" x2="146.6" y1="82.9" y2="98.9" stroke="#ef4444" stroke-width="1"/><rect x="142.6" y="87.5" width="8.0" height="7.0" fill="#ef4444"/><line x1="163.9" x2="163.9" y1="86.8" y2="107.9" stroke="#ef4444" stroke-width="1"/><rect x="159.9" y="94.6" width="8.0" height="7.3" fill="#ef4444"/><line x1="181.1" x2="181.1" y1="94.9" y2="115.3" stroke="#ef4444" stroke-width="1"/><rect x="177.1" y="101.9" width="8.0" height="10.8" fill="#ef4444"/><line x1="198.4" x2="198.4" y1="108.2" y2="126.5" stroke="#ef4444" stroke-width="1"/><rect x="194.4" y="112.6" width="8.0" height="10.5" fill="#ef4444"/><line x1="215.6" x2="215.6" y1="116.5" y2="139.3" stroke="#ef4444" stroke-width="1"/><rect x="211.6" y="123.0" width="8.0" height="6.6" fill="#ef4444"/><line x1="232.9" x2="232.9" y1="127.6" y2="179.6" stroke="#ef4444" stroke-width="1"/><rect x="228.9" y="130.2" width="8.0" height="39.3" fill="#ef4444"/><line x1="250.1" x2="250.1" y1="144.5" y2="169.9" stroke="#22c55e" stroke-width="1"/><rect x="246.1" y="158.0" width="8.0" height="10.7" fill="#22c55e"/><line x1="267.4" x2="267.4" y1="143.9" y2="169.5" stroke="#ef4444" stroke-width="1"/><rect x="263.4" y="158.2" width="8.0" height="3.2" fill="#ef4444"/><line x1="284.6" x2="284.6" y1="149.5" y2="169.5" stroke="#ef4444" stroke-width="1"/><rect x="280.6" y="161.3" width="8.0" height="4.0" fill="#ef4444"/><line x1="301.9" x2="301.9" y1="154.3" y2="172.9" stroke="#ef4444" stroke-width="1"/><rect x="297.9" y="164.5" width="8.0" height="7.8" fill="#ef4444"/><line x1="319.1" x2="319.1" y1="152.4" y2="173.6" stroke="#22c55e" stroke-width="1"/><rect x="315.1" y="169.9" width="8.0" height="2.5" fill="#22c55e"/><line x1="336.4" x2="336.4" y1="143.4" y2="170.9" stroke="#22c55e" stroke-width="1"/><rect x="332.4" y="159.9" width="8.0" height="10.1" fill="#22c55e"/><line x1="353.6" x2="353.6" y1="152.5" y2="176.3" stroke="#ef4444" stroke-width="1"/><rect x="349.6" y="159.7" width="8.0" height="5.3" fill="#ef4444"/><line x1="370.9" x2="370.9" y1="160.2" y2="191.1" stroke="#ef4444" stroke-width="1"/><rect x="366.9" y="164.9" width="8.0" height="15.5" fill="#ef4444"/><line x1="388.1" x2="388.1" y1="162.9" y2="183.4" stroke="#22c55e" stroke-width="1"/><rect x="384.1" y="172.1" width="8.0" height="8.3" fill="#22c55e"/><line x1="405.4" x2="405.4" y1="159.7" y2="174.3" stroke="#22c55e" stroke-width="1"/><rect x="401.4" y="159.7" width="8.0" height="13.0" fill="#22c55e"/><line x1="422.6" x2="422.6" y1="145.1" y2="162.9" stroke="#22c55e" stroke-width="1"/><rect x="418.6" y="153.4" width="8.0" height="6.1" fill="#22c55e"/><line x1="439.9" x2="439.9" y1="150.2" y2="195.0" stroke="#ef4444" stroke-width="1"/><rect x="435.9" y="153.1" width="8.0" height="11.7" fill="#ef4444"/><line x1="457.1" x2="457.1" y1="159.1" y2="189.0" stroke="#ef4444" stroke-width="1"/><rect x="453.1" y="165.2" width="8.0" height="4.6" fill="#ef4444"/><line x1="474.4" x2="474.4" y1="166.4" y2="193.7" stroke="#ef4444" stroke-width="1"/><rect x="470.4" y="169.5" width="8.0" height="24.0" fill="#ef4444"/><line x1="491.6" x2="491.6" y1="175.6" y2="210.8" stroke="#ef4444" stroke-width="1"/><rect x="487.6" y="193.6" width="8.0" height="13.5" fill="#ef4444"/><line x1="508.9" x2="508.9" y1="197.4" y2="233.0" stroke="#ef4444" stroke-width="1"/><rect x="504.9" y="207.5" width="8.0" height="22.4" fill="#ef4444"/><line x1="526.1" x2="526.1" y1="216.7" y2="241.1" stroke="#22c55e" stroke-width="1"/><rect x="522.1" y="220.2" width="8.0" height="10.1" fill="#22c55e"/><text x="526.1" y="258" fill="#eab308" font-size="12" text-anchor="middle">▲</text><line x1="543.4" x2="543.4" y1="155.0" y2="222.6" stroke="#22c55e" stroke-width="1"/><rect x="539.4" y="181.6" width="8.0" height="37.8" fill="#22c55e"/><text x="543.4" y="258" fill="#eab308" font-size="12" text-anchor="middle">▲</text><line x1="560.6" x2="560.6" y1="163.4" y2="217.8" stroke="#ef4444" stroke-width="1"/><rect x="556.6" y="181.5" width="8.0" height="26.8" fill="#ef4444"/><line x1="577.9" x2="577.9" y1="186.6" y2="212.4" stroke="#22c55e" stroke-width="1"/><rect x="573.9" y="199.6" width="8.0" height="8.8" fill="#22c55e"/><line x1="595.1" x2="595.1" y1="199.7" y2="236.5" stroke="#ef4444" stroke-width="1"/><rect x="591.1" y="199.7" width="8.0" height="2.5" fill="#ef4444"/><line x1="612.4" x2="612.4" y1="146.2" y2="218.3" stroke="#22c55e" stroke-width="1"/><rect x="608.4" y="146.2" width="8.0" height="57.8" fill="#22c55e"/><line x1="629.6" x2="629.6" y1="129.9" y2="154.4" stroke="#22c55e" stroke-width="1"/><rect x="625.6" y="143.2" width="8.0" height="1.0" fill="#22c55e"/><line x1="646.9" x2="646.9" y1="140.9" y2="161.8" stroke="#ef4444" stroke-width="1"/><rect x="642.9" y="143.2" width="8.0" height="10.9" fill="#ef4444"/><line x1="664.1" x2="664.1" y1="151.4" y2="183.1" stroke="#ef4444" stroke-width="1"/><rect x="660.1" y="154.0" width="8.0" height="26.4" fill="#ef4444"/><line x1="681.4" x2="681.4" y1="175.8" y2="182.5" stroke="#22c55e" stroke-width="1"/><rect x="677.4" y="179.5" width="8.0" height="1.0" fill="#22c55e"/><line x1="0" x2="690" y1="216.1" y2="216.1" stroke="#ef4444" stroke-width="1" stroke-dasharray="5,4" opacity="0.85"/><text x="694" y="219.1" fill="#ef4444" font-size="10" font-family="monospace">SL 4143.17</text><line x1="0" x2="690" y1="233.5" y2="233.5" stroke="#e6edf3" stroke-width="1" stroke-dasharray="5,4" opacity="0.85"/><text x="694" y="236.5" fill="#e6edf3" font-size="10" font-family="monospace">entry 4134.47</text></g><g><text x="6" y="284" fill="#8b949e" font-size="11" font-family="monospace">3-min · entry marked</text><line x1="7.7" x2="7.7" y1="300.9" y2="332.6" stroke="#22c55e" stroke-width="1"/><rect x="3.7" y="311.2" width="8.0" height="18.1" fill="#22c55e"/><line x1="23.0" x2="23.0" y1="311.1" y2="327.9" stroke="#ef4444" stroke-width="1"/><rect x="19.0" y="311.2" width="8.0" height="10.5" fill="#ef4444"/><line x1="38.3" x2="38.3" y1="310.3" y2="327.5" stroke="#22c55e" stroke-width="1"/><rect x="34.3" y="313.6" width="8.0" height="8.2" fill="#22c55e"/><line x1="53.7" x2="53.7" y1="302.6" y2="319.8" stroke="#ef4444" stroke-width="1"/><rect x="49.7" y="313.9" width="8.0" height="2.9" fill="#ef4444"/><line x1="69.0" x2="69.0" y1="310.7" y2="320.9" stroke="#22c55e" stroke-width="1"/><rect x="65.0" y="314.7" width="8.0" height="1.4" fill="#22c55e"/><line x1="84.3" x2="84.3" y1="314.7" y2="395.6" stroke="#ef4444" stroke-width="1"/><rect x="80.3" y="314.7" width="8.0" height="48.4" fill="#ef4444"/><line x1="99.7" x2="99.7" y1="354.5" y2="378.6" stroke="#22c55e" stroke-width="1"/><rect x="95.7" y="359.8" width="8.0" height="4.1" fill="#22c55e"/><line x1="115.0" x2="115.0" y1="346.5" y2="375.1" stroke="#22c55e" stroke-width="1"/><rect x="111.0" y="353.9" width="8.0" height="6.9" fill="#22c55e"/><line x1="130.3" x2="130.3" y1="337.5" y2="361.1" stroke="#22c55e" stroke-width="1"/><rect x="126.3" y="338.4" width="8.0" height="15.3" fill="#22c55e"/><line x1="145.7" x2="145.7" y1="327.5" y2="346.2" stroke="#ef4444" stroke-width="1"/><rect x="141.7" y="339.1" width="8.0" height="5.8" fill="#ef4444"/><line x1="161.0" x2="161.0" y1="337.1" y2="354.2" stroke="#ef4444" stroke-width="1"/><rect x="157.0" y="344.9" width="8.0" height="6.4" fill="#ef4444"/><line x1="176.3" x2="176.3" y1="331.0" y2="351.5" stroke="#22c55e" stroke-width="1"/><rect x="172.3" y="337.3" width="8.0" height="14.2" fill="#22c55e"/><line x1="191.7" x2="191.7" y1="336.3" y2="384.2" stroke="#ef4444" stroke-width="1"/><rect x="187.7" y="338.0" width="8.0" height="22.1" fill="#ef4444"/><line x1="207.0" x2="207.0" y1="346.1" y2="364.2" stroke="#22c55e" stroke-width="1"/><rect x="203.0" y="347.9" width="8.0" height="12.3" fill="#22c55e"/><line x1="222.3" x2="222.3" y1="341.5" y2="367.2" stroke="#ef4444" stroke-width="1"/><rect x="218.3" y="347.3" width="8.0" height="14.9" fill="#ef4444"/><line x1="237.7" x2="237.7" y1="345.6" y2="362.9" stroke="#22c55e" stroke-width="1"/><rect x="233.7" y="361.1" width="8.0" height="1.0" fill="#22c55e"/><line x1="253.0" x2="253.0" y1="354.3" y2="384.8" stroke="#ef4444" stroke-width="1"/><rect x="249.0" y="361.1" width="8.0" height="20.6" fill="#ef4444"/><line x1="268.3" x2="268.3" y1="371.4" y2="385.6" stroke="#22c55e" stroke-width="1"/><rect x="264.3" y="381.1" width="8.0" height="1.0" fill="#22c55e"/><line x1="283.7" x2="283.7" y1="375.1" y2="393.1" stroke="#ef4444" stroke-width="1"/><rect x="279.7" y="380.9" width="8.0" height="12.1" fill="#ef4444"/><line x1="299.0" x2="299.0" y1="391.3" y2="400.3" stroke="#22c55e" stroke-width="1"/><rect x="295.0" y="391.4" width="8.0" height="1.6" fill="#22c55e"/><line x1="314.3" x2="314.3" y1="382.1" y2="398.4" stroke="#22c55e" stroke-width="1"/><rect x="310.3" y="382.1" width="8.0" height="7.2" fill="#22c55e"/><line x1="329.7" x2="329.7" y1="358.9" y2="384.7" stroke="#22c55e" stroke-width="1"/><rect x="325.7" y="379.5" width="8.0" height="2.8" fill="#22c55e"/><line x1="345.0" x2="345.0" y1="378.8" y2="408.2" stroke="#ef4444" stroke-width="1"/><rect x="341.0" y="379.8" width="8.0" height="26.3" fill="#ef4444"/><line x1="360.3" x2="360.3" y1="399.2" y2="425.7" stroke="#ef4444" stroke-width="1"/><rect x="356.3" y="406.4" width="8.0" height="12.3" fill="#ef4444"/><line x1="375.7" x2="375.7" y1="406.5" y2="426.2" stroke="#22c55e" stroke-width="1"/><rect x="371.7" y="407.2" width="8.0" height="12.1" fill="#22c55e"/><line x1="391.0" x2="391.0" y1="400.2" y2="421.5" stroke="#22c55e" stroke-width="1"/><rect x="387.0" y="406.8" width="8.0" height="1.0" fill="#22c55e"/><line x1="406.3" x2="406.3" y1="406.8" y2="427.9" stroke="#ef4444" stroke-width="1"/><rect x="402.3" y="406.8" width="8.0" height="18.2" fill="#ef4444"/><line x1="421.7" x2="421.7" y1="420.3" y2="447.7" stroke="#ef4444" stroke-width="1"/><rect x="417.7" y="426.0" width="8.0" height="19.9" fill="#ef4444"/><line x1="437.0" x2="437.0" y1="441.5" y2="467.8" stroke="#ef4444" stroke-width="1"/><rect x="433.0" y="446.0" width="8.0" height="15.8" fill="#ef4444"/><line x1="452.3" x2="452.3" y1="436.8" y2="463.3" stroke="#22c55e" stroke-width="1"/><rect x="448.3" y="438.5" width="8.0" height="24.1" fill="#22c55e"/><line x1="467.7" x2="467.7" y1="438.5" y2="470.6" stroke="#ef4444" stroke-width="1"/><rect x="463.7" y="438.5" width="8.0" height="30.0" fill="#ef4444"/><text x="467.7" y="500" fill="#eab308" font-size="12" text-anchor="middle">▲</text><line x1="483.0" x2="483.0" y1="457.3" y2="470.0" stroke="#ef4444" stroke-width="1"/><rect x="479.0" y="465.6" width="8.0" height="1.6" fill="#ef4444"/><line x1="498.3" x2="498.3" y1="441.0" y2="470.6" stroke="#22c55e" stroke-width="1"/><rect x="494.3" y="444.5" width="8.0" height="22.5" fill="#22c55e"/><line x1="513.7" x2="513.7" y1="439.8" y2="483.1" stroke="#22c55e" stroke-width="1"/><rect x="509.7" y="443.5" width="8.0" height="1.4" fill="#22c55e"/><line x1="529.0" x2="529.0" y1="319.8" y2="448.0" stroke="#22c55e" stroke-width="1"/><rect x="525.0" y="364.9" width="8.0" height="77.0" fill="#22c55e"/><line x1="544.3" x2="544.3" y1="330.9" y2="380.8" stroke="#ef4444" stroke-width="1"/><rect x="540.3" y="362.3" width="8.0" height="18.5" fill="#ef4444"/><line x1="559.7" x2="559.7" y1="322.5" y2="386.8" stroke="#22c55e" stroke-width="1"/><rect x="555.7" y="353.9" width="8.0" height="27.4" fill="#22c55e"/><line x1="575.0" x2="575.0" y1="348.1" y2="389.8" stroke="#ef4444" stroke-width="1"/><rect x="571.0" y="354.1" width="8.0" height="1.0" fill="#ef4444"/><line x1="590.3" x2="590.3" y1="347.2" y2="378.7" stroke="#ef4444" stroke-width="1"/><rect x="586.3" y="354.2" width="8.0" height="16.0" fill="#ef4444"/><line x1="605.7" x2="605.7" y1="335.7" y2="380.3" stroke="#ef4444" stroke-width="1"/><rect x="601.7" y="370.1" width="8.0" height="4.9" fill="#ef4444"/><line x1="621.0" x2="621.0" y1="362.3" y2="396.9" stroke="#ef4444" stroke-width="1"/><rect x="617.0" y="375.0" width="8.0" height="12.4" fill="#ef4444"/><line x1="636.3" x2="636.3" y1="387.4" y2="413.4" stroke="#ef4444" stroke-width="1"/><rect x="632.3" y="387.4" width="8.0" height="7.1" fill="#ef4444"/><line x1="651.7" x2="651.7" y1="389.0" y2="434.0" stroke="#ef4444" stroke-width="1"/><rect x="647.7" y="395.3" width="8.0" height="36.3" fill="#ef4444"/><line x1="667.0" x2="667.0" y1="417.8" y2="439.0" stroke="#22c55e" stroke-width="1"/><rect x="663.0" y="421.0" width="8.0" height="9.7" fill="#22c55e"/><line x1="682.3" x2="682.3" y1="401.9" y2="428.7" stroke="#22c55e" stroke-width="1"/><rect x="678.3" y="414.9" width="8.0" height="6.0" fill="#22c55e"/><line x1="0" x2="690" y1="435.6" y2="435.6" stroke="#ef4444" stroke-width="1" stroke-dasharray="5,4" opacity="0.85"/><text x="694" y="438.6" fill="#ef4444" font-size="10" font-family="monospace">SL 4143.17</text><line x1="0" x2="690" y1="468.6" y2="468.6" stroke="#e6edf3" stroke-width="1" stroke-dasharray="5,4" opacity="0.85"/><text x="694" y="471.6" fill="#e6edf3" font-size="10" font-family="monospace">entry 4134.47</text></g></svg>